%TF.GenerationSoftware,KiCad,Pcbnew,9.0.3*%
%TF.CreationDate,2025-12-01T14:48:46+01:00*%
%TF.ProjectId,Inoovatest_Sub,496e6f6f-7661-4746-9573-745f5375622e,rev?*%
%TF.SameCoordinates,Original*%
%TF.FileFunction,Copper,L2,Bot*%
%TF.FilePolarity,Positive*%
%FSLAX46Y46*%
G04 Gerber Fmt 4.6, Leading zero omitted, Abs format (unit mm)*
G04 Created by KiCad (PCBNEW 9.0.3) date 2025-12-01 14:48:46*
%MOMM*%
%LPD*%
G01*
G04 APERTURE LIST*
G04 Aperture macros list*
%AMRoundRect*
0 Rectangle with rounded corners*
0 $1 Rounding radius*
0 $2 $3 $4 $5 $6 $7 $8 $9 X,Y pos of 4 corners*
0 Add a 4 corners polygon primitive as box body*
4,1,4,$2,$3,$4,$5,$6,$7,$8,$9,$2,$3,0*
0 Add four circle primitives for the rounded corners*
1,1,$1+$1,$2,$3*
1,1,$1+$1,$4,$5*
1,1,$1+$1,$6,$7*
1,1,$1+$1,$8,$9*
0 Add four rect primitives between the rounded corners*
20,1,$1+$1,$2,$3,$4,$5,0*
20,1,$1+$1,$4,$5,$6,$7,0*
20,1,$1+$1,$6,$7,$8,$9,0*
20,1,$1+$1,$8,$9,$2,$3,0*%
G04 Aperture macros list end*
%TA.AperFunction,ComponentPad*%
%ADD10C,1.800000*%
%TD*%
%TA.AperFunction,ComponentPad*%
%ADD11O,1.400000X3.800000*%
%TD*%
%TA.AperFunction,ComponentPad*%
%ADD12C,1.600000*%
%TD*%
%TA.AperFunction,ComponentPad*%
%ADD13RoundRect,0.250000X-0.550000X-0.550000X0.550000X-0.550000X0.550000X0.550000X-0.550000X0.550000X0*%
%TD*%
%TA.AperFunction,ComponentPad*%
%ADD14O,1.400000X4.100000*%
%TD*%
%TA.AperFunction,ComponentPad*%
%ADD15O,1.400000X4.000000*%
%TD*%
%TA.AperFunction,ComponentPad*%
%ADD16R,1.400000X1.400000*%
%TD*%
%TA.AperFunction,ComponentPad*%
%ADD17C,1.400000*%
%TD*%
%TA.AperFunction,ComponentPad*%
%ADD18C,3.450000*%
%TD*%
%TA.AperFunction,ComponentPad*%
%ADD19RoundRect,0.250000X0.550000X-0.550000X0.550000X0.550000X-0.550000X0.550000X-0.550000X-0.550000X0*%
%TD*%
%TA.AperFunction,ComponentPad*%
%ADD20R,1.800000X1.800000*%
%TD*%
%TA.AperFunction,ComponentPad*%
%ADD21C,0.500000*%
%TD*%
%TA.AperFunction,ComponentPad*%
%ADD22C,4.916000*%
%TD*%
%TA.AperFunction,ComponentPad*%
%ADD23R,4.916000X4.916000*%
%TD*%
%TA.AperFunction,ComponentPad*%
%ADD24O,2.600000X1.300000*%
%TD*%
%TA.AperFunction,ViaPad*%
%ADD25C,0.400000*%
%TD*%
%TA.AperFunction,ViaPad*%
%ADD26C,0.600000*%
%TD*%
%TA.AperFunction,Conductor*%
%ADD27C,0.200000*%
%TD*%
%TA.AperFunction,Conductor*%
%ADD28C,0.400000*%
%TD*%
G04 APERTURE END LIST*
D10*
%TO.P,J1,1,Pin_1*%
%TO.N,+10V*%
X110305000Y-87545000D03*
%TO.P,J1,2,Pin_2*%
%TO.N,/Measurement Chain/S+*%
X113845000Y-91045000D03*
%TO.P,J1,3,Pin_3*%
%TO.N,/Measurement Chain/S-*%
X110305000Y-91045000D03*
%TO.P,J1,4,Pin_4*%
%TO.N,/Processing\u002C Memory and Display/ID*%
X113805000Y-87545000D03*
%TO.P,J1,5,Pin_5*%
%TO.N,GND*%
X112075000Y-89275000D03*
%TD*%
D11*
%TO.P,SW2,1,1*%
%TO.N,GND*%
X83050000Y-72550000D03*
%TO.P,SW2,2,2*%
%TO.N,/Power Managment/ON{slash}OFF*%
X86550000Y-67550000D03*
%TO.P,SW2,3*%
%TO.N,N/C*%
X86450000Y-72590000D03*
%TO.P,SW2,4*%
X86550000Y-77550000D03*
%TO.P,SW2,5*%
X91550000Y-67550000D03*
%TO.P,SW2,6*%
X91500000Y-77550000D03*
%TO.P,SW2,7*%
X95050000Y-72550000D03*
%TD*%
D12*
%TO.P,C1,2*%
%TO.N,GND*%
X161750000Y-32720000D03*
D13*
%TO.P,C1,1*%
%TO.N,/Battery Management/VBUS*%
X159250000Y-32720000D03*
%TD*%
D14*
%TO.P,SW1,1,1*%
%TO.N,/Processing\u002C Memory and Display/STOP*%
X82920000Y-39050000D03*
%TO.P,SW1,2,2*%
%TO.N,GND*%
X86600000Y-34050000D03*
%TO.P,SW1,3*%
%TO.N,N/C*%
X86590000Y-39080000D03*
%TO.P,SW1,4*%
X86600000Y-44050000D03*
%TO.P,SW1,5*%
X92110000Y-34050000D03*
D15*
%TO.P,SW1,6*%
X92120000Y-44050000D03*
D14*
%TO.P,SW1,7*%
X95200000Y-39050000D03*
%TD*%
D16*
%TO.P,J2,1,VBUS*%
%TO.N,+5V5*%
X130550000Y-71060000D03*
D17*
%TO.P,J2,2,D-*%
%TO.N,/Processing\u002C Memory and Display/D-*%
X133050000Y-71060000D03*
%TO.P,J2,3,D+*%
%TO.N,/Processing\u002C Memory and Display/D+*%
X135050000Y-71060000D03*
%TO.P,J2,4,GND*%
%TO.N,GND*%
X137550000Y-71060000D03*
D18*
%TO.P,J2,5,Shield*%
X127480000Y-73460000D03*
%TO.P,J2,6*%
X140620000Y-73460000D03*
%TD*%
D19*
%TO.P,C23,1*%
%TO.N,Net-(Q1-D)*%
X120150000Y-51600000D03*
D12*
%TO.P,C23,2*%
%TO.N,GND*%
X120150000Y-49100000D03*
%TD*%
D20*
%TO.P,D2,1,K1*%
%TO.N,Net-(D2-K1)*%
X131510000Y-39050000D03*
D10*
%TO.P,D2,2,A*%
%TO.N,+3V3*%
X134050000Y-39050000D03*
%TO.P,D2,3,K2*%
%TO.N,Net-(D2-K2)*%
X136590000Y-39050000D03*
%TD*%
D21*
%TO.P,U9,11,SW*%
%TO.N,Net-(D4-A)*%
X164125000Y-76050000D03*
%TD*%
D22*
%TO.P,BT1,GND,Pin_2*%
%TO.N,GND*%
X159900000Y-62650000D03*
D23*
%TO.P,BT1,P*%
%TO.N,V_BAT*%
X159900000Y-51750000D03*
D24*
%TO.P,BT1,S1*%
%TO.N,GND*%
X169300000Y-47750000D03*
%TO.P,BT1,S2*%
X169300000Y-66650000D03*
%TD*%
D25*
%TO.N,GND*%
X144610000Y-84420000D03*
D26*
%TO.N,Net-(D2-K1)*%
X121100000Y-36300000D03*
%TO.N,Net-(D2-K2)*%
X125050000Y-36300000D03*
D25*
%TO.N,/Power Managment/PWR_Button*%
X98280000Y-92140000D03*
X130120000Y-109080000D03*
D26*
%TO.N,GND*%
X158760000Y-110810000D03*
%TO.N,+3V3*%
X124300000Y-111180000D03*
X147630000Y-95160000D03*
%TO.N,GND*%
X120855000Y-106515000D03*
D25*
%TO.N,Net-(U11-GPIO22{slash}ADC)*%
X137370000Y-110640000D03*
%TO.N,Net-(U11-GPIO23{slash}ADC)*%
X135490000Y-110640000D03*
X132630000Y-101370000D03*
%TO.N,Net-(U11-GPIO22{slash}ADC)*%
X133950000Y-101030000D03*
%TO.N,Net-(U11-GPIO11{slash}ADC)*%
X142110000Y-110760000D03*
%TO.N,Net-(U11-GPIO10{slash}ADC)*%
X133110000Y-112600000D03*
%TO.N,Net-(U11-GPIO16{slash}ADC)*%
X136470000Y-110670000D03*
%TO.N,Net-(U11-GPIO15{slash}ADC)*%
X139900000Y-110690000D03*
%TO.N,Net-(U11-GPIO12{slash}ADC)*%
X133880000Y-111820000D03*
%TO.N,Net-(U11-GPIO14{slash}ADC)*%
X134550000Y-111070000D03*
%TO.N,Net-(U11-GPIO13{slash}ADC)*%
X140950000Y-110710000D03*
%TO.N,Net-(U11-GPIO17{slash}ADC)*%
X138590000Y-110710000D03*
%TO.N,Net-(U11-GPIO13{slash}ADC)*%
X134000000Y-97510000D03*
%TO.N,Net-(U11-GPIO12{slash}ADC)*%
X132620000Y-97190000D03*
%TO.N,Net-(U11-GPIO14{slash}ADC)*%
X132590000Y-97880000D03*
%TO.N,Net-(U11-GPIO11{slash}ADC)*%
X134000000Y-96840000D03*
%TO.N,Net-(U11-GPIO10{slash}ADC)*%
X132640000Y-96460000D03*
%TO.N,Net-(U11-GPIO17{slash}ADC)*%
X134030000Y-98930000D03*
%TO.N,Net-(U11-GPIO16{slash}ADC)*%
X132600000Y-98590000D03*
%TO.N,Net-(U11-GPIO15{slash}ADC)*%
X134010000Y-98240000D03*
%TO.N,GND*%
X136850000Y-98700000D03*
X136775000Y-95925000D03*
X139570000Y-95980000D03*
X139545000Y-98695000D03*
X127320000Y-100870000D03*
%TO.N,/Measurement Chain/POT_SDA*%
X130420000Y-100800000D03*
%TO.N,/Measurement Chain/POT_SCL*%
X130970000Y-100840000D03*
X130310000Y-103070000D03*
%TO.N,/Measurement Chain/POT_SDA*%
X129760000Y-103030000D03*
%TO.N,/Battery Management/BAT_Monitor*%
X151040000Y-76820000D03*
X150970000Y-80390000D03*
X167350000Y-57270000D03*
X142700000Y-91410000D03*
%TO.N,/Processing\u002C Memory and Display/STOP*%
X123350000Y-79680000D03*
X124610000Y-80950000D03*
X135030000Y-91410000D03*
%TO.N,/Power Managment/SEL_5V{slash}10V*%
X136030000Y-91440000D03*
X125920000Y-79780000D03*
X124400000Y-78250000D03*
X106440000Y-53550000D03*
%TO.N,+3V3*%
X156150000Y-112900000D03*
%TO.N,Net-(U11-GPIO26{slash}ADC{slash}USB)*%
X146440000Y-114870000D03*
%TO.N,Net-(U11-GPIO29)*%
X152900000Y-113980000D03*
%TO.N,Net-(U11-GPIO25{slash}ADC{slash}USB)*%
X145760000Y-114830000D03*
%TO.N,Net-(Q6-G)*%
X149270000Y-111590000D03*
%TO.N,Net-(U11-GPIO30)*%
X153700000Y-114030000D03*
%TO.N,Net-(U11-GPIO31)*%
X154420000Y-114030000D03*
%TO.N,Net-(U11-GPIO32)*%
X155180000Y-114020000D03*
%TO.N,Net-(U11-GPIO28)*%
X152020000Y-113970000D03*
%TO.N,+3V3*%
X144150000Y-97170000D03*
%TO.N,Net-(U11-GPIO25{slash}ADC{slash}USB)*%
X144200000Y-102390000D03*
%TO.N,Net-(U11-GPIO26{slash}ADC{slash}USB)*%
X144240000Y-101710000D03*
%TO.N,Net-(Q6-G)*%
X144830000Y-101060000D03*
%TO.N,Net-(U11-GPIO28)*%
X144160000Y-100420000D03*
%TO.N,Net-(U11-GPIO29)*%
X144140000Y-99830000D03*
%TO.N,Net-(U11-GPIO30)*%
X144140000Y-99190000D03*
%TO.N,Net-(U11-GPIO31)*%
X144130000Y-98530000D03*
%TO.N,Net-(U11-GPIO32)*%
X144130000Y-97840000D03*
D26*
%TO.N,/Processing\u002C Memory and Display/ID*%
X136990000Y-91230000D03*
%TO.N,/Processing\u002C Memory and Display/D+*%
X157490000Y-92650000D03*
%TO.N,/Processing\u002C Memory and Display/D-*%
X158380000Y-92610000D03*
X142000000Y-69140000D03*
%TO.N,/Processing\u002C Memory and Display/D+*%
X142040000Y-70030000D03*
%TO.N,Net-(U10-CLK)*%
X132580000Y-80220000D03*
%TO.N,Net-(U10-DI{slash}IO_{0})*%
X132580000Y-78950000D03*
X139990000Y-91200000D03*
%TO.N,Net-(U10-CLK)*%
X139240000Y-91210000D03*
%TO.N,Net-(U10-DO{slash}IO_{1})*%
X141950000Y-90787500D03*
X139570000Y-81610000D03*
%TO.N,Net-(U10-~{CS})*%
X140990000Y-91310000D03*
X139170000Y-82850000D03*
%TO.N,GND*%
X125440000Y-97420000D03*
X128040000Y-96080000D03*
X110200000Y-102150000D03*
X105800000Y-102850000D03*
%TO.N,Net-(IC2-OUTF)*%
X128250000Y-97840000D03*
X101900000Y-104100000D03*
X114300000Y-103350000D03*
X121700000Y-101550000D03*
%TO.N,+5V5*%
X121426700Y-93837900D03*
X164640700Y-79596800D03*
X158329100Y-81413900D03*
%TO.N,+3V3*%
X136729100Y-76472800D03*
%TO.N,Net-(U4-P0W)*%
X112800000Y-105400000D03*
X115850000Y-105850000D03*
%TO.N,Net-(U2--)*%
X112366600Y-106700000D03*
X115225000Y-108744800D03*
%TO.N,Net-(Q1-D)*%
X166074000Y-75250000D03*
X117310900Y-61555900D03*
X166200000Y-77900000D03*
X162802400Y-75595400D03*
%TO.N,Net-(U9-BOOT)*%
X165250000Y-75250000D03*
X163450000Y-71900000D03*
%TO.N,Net-(U9-VCC)*%
X161750000Y-77100000D03*
X155750000Y-77450000D03*
%TO.N,Net-(Q2-G)*%
X111100000Y-58200000D03*
X110700000Y-56850000D03*
%TO.N,V_BAT*%
X115450000Y-54150000D03*
X116700000Y-47100000D03*
%TO.N,Net-(U7-PG)*%
X149130200Y-85048500D03*
X150079900Y-84868200D03*
%TO.N,Net-(U9-FSW)*%
X156750000Y-76250000D03*
X161950000Y-76300000D03*
%TO.N,/Processing\u002C Memory and Display/ID*%
X116230000Y-89190000D03*
%TD*%
D27*
%TO.N,/Processing\u002C Memory and Display/STOP*%
X116510000Y-79680000D02*
X123350000Y-79680000D01*
X82920000Y-46090000D02*
X116510000Y-79680000D01*
X82920000Y-39050000D02*
X82920000Y-46090000D01*
D28*
%TO.N,+3V3*%
X124300000Y-112170000D02*
X124300000Y-111180000D01*
X131030000Y-118900000D02*
X124300000Y-112170000D01*
X156420000Y-118900000D02*
X131030000Y-118900000D01*
X157500000Y-117820000D02*
X156420000Y-118900000D01*
X147630000Y-95160000D02*
X157500000Y-105030000D01*
X157500000Y-105030000D02*
X157500000Y-117820000D01*
D27*
%TO.N,Net-(D2-K1)*%
X123850000Y-39050000D02*
X131510000Y-39050000D01*
X121100000Y-36300000D02*
X123850000Y-39050000D01*
%TO.N,/Power Managment/PWR_Button*%
X126020000Y-109080000D02*
X130120000Y-109080000D01*
X105750000Y-99610000D02*
X116550000Y-99610000D01*
X116550000Y-99610000D02*
X126020000Y-109080000D01*
X98280000Y-92140000D02*
X105750000Y-99610000D01*
%TO.N,Net-(U11-GPIO11{slash}ADC)*%
X137970000Y-106620000D02*
X142110000Y-110760000D01*
X134000000Y-96840000D02*
X137970000Y-100810000D01*
X137970000Y-100810000D02*
X137970000Y-106620000D01*
%TO.N,Net-(U11-GPIO13{slash}ADC)*%
X137280000Y-107040000D02*
X140950000Y-110710000D01*
X137280000Y-100790000D02*
X137280000Y-107040000D01*
X134000000Y-97510000D02*
X137280000Y-100790000D01*
%TO.N,Net-(U11-GPIO15{slash}ADC)*%
X136340000Y-107130000D02*
X139900000Y-110690000D01*
X136340000Y-100570000D02*
X136340000Y-107130000D01*
X134010000Y-98240000D02*
X136340000Y-100570000D01*
%TO.N,Net-(U11-GPIO17{slash}ADC)*%
X135550000Y-101150000D02*
X135550000Y-107670000D01*
X134030000Y-99630000D02*
X135550000Y-101150000D01*
X134030000Y-98930000D02*
X134030000Y-99630000D01*
X135550000Y-107670000D02*
X138590000Y-110710000D01*
%TO.N,Net-(U11-GPIO10{slash}ADC)*%
X131421000Y-97679000D02*
X132640000Y-96460000D01*
X133110000Y-112600000D02*
X131421000Y-110911000D01*
X131421000Y-110911000D02*
X131421000Y-97679000D01*
%TO.N,Net-(U11-GPIO14{slash}ADC)*%
X132140000Y-98330000D02*
X132590000Y-97880000D01*
X132140000Y-108660000D02*
X132140000Y-98330000D01*
X134550000Y-111070000D02*
X132140000Y-108660000D01*
%TO.N,Net-(U11-GPIO12{slash}ADC)*%
X131790000Y-98020000D02*
X132620000Y-97190000D01*
X131790000Y-109730000D02*
X131790000Y-98020000D01*
X133880000Y-111820000D02*
X131790000Y-109730000D01*
%TO.N,Net-(U11-GPIO22{slash}ADC)*%
X133950000Y-107200000D02*
X133950000Y-101030000D01*
X137370000Y-110640000D02*
X137370000Y-110620000D01*
X137370000Y-110620000D02*
X133950000Y-107200000D01*
%TO.N,Net-(U11-GPIO16{slash}ADC)*%
X133250000Y-99240000D02*
X132600000Y-98590000D01*
X133250000Y-107510000D02*
X133250000Y-99240000D01*
X136470000Y-110670000D02*
X136410000Y-110670000D01*
X136410000Y-110670000D02*
X133250000Y-107510000D01*
%TO.N,Net-(U11-GPIO23{slash}ADC)*%
X132630000Y-107780000D02*
X135490000Y-110640000D01*
X132630000Y-101370000D02*
X132630000Y-107780000D01*
%TO.N,/Measurement Chain/POT_SDA*%
X130410000Y-102332189D02*
X130410000Y-100810000D01*
X130410000Y-100810000D02*
X130420000Y-100800000D01*
X129859000Y-102883189D02*
X130410000Y-102332189D01*
X129859000Y-102931000D02*
X129859000Y-102883189D01*
X129760000Y-103030000D02*
X129859000Y-102931000D01*
%TO.N,/Measurement Chain/POT_SCL*%
X130970000Y-102410000D02*
X130970000Y-100840000D01*
X130310000Y-103070000D02*
X130970000Y-102410000D01*
%TO.N,/Battery Management/BAT_Monitor*%
X146590000Y-91410000D02*
X142700000Y-91410000D01*
X150970000Y-87030000D02*
X146590000Y-91410000D01*
X150970000Y-80390000D02*
X150970000Y-87030000D01*
X167350000Y-60510000D02*
X151040000Y-76820000D01*
X167350000Y-57270000D02*
X167350000Y-60510000D01*
%TO.N,Net-(U10-DO{slash}IO_{1})*%
X141950000Y-90787500D02*
X141950000Y-83990000D01*
X141950000Y-83990000D02*
X139570000Y-81610000D01*
%TO.N,/Processing\u002C Memory and Display/STOP*%
X124610000Y-80990000D02*
X135030000Y-91410000D01*
X124610000Y-80950000D02*
X124610000Y-80990000D01*
%TO.N,/Power Managment/SEL_5V{slash}10V*%
X125920000Y-81210000D02*
X125920000Y-79780000D01*
X136030000Y-91320000D02*
X125920000Y-81210000D01*
X136030000Y-91440000D02*
X136030000Y-91320000D01*
X106440000Y-60290000D02*
X124400000Y-78250000D01*
X106440000Y-53550000D02*
X106440000Y-60290000D01*
D28*
%TO.N,+5V5*%
X123470000Y-80980000D02*
X123470000Y-91794600D01*
X130550000Y-73900000D02*
X123470000Y-80980000D01*
X130550000Y-71060000D02*
X130550000Y-73900000D01*
X123470000Y-91794600D02*
X121426700Y-93837900D01*
D27*
%TO.N,Net-(U11-GPIO25{slash}ADC{slash}USB)*%
X145770000Y-114820000D02*
X145760000Y-114830000D01*
X145770000Y-103960000D02*
X145770000Y-114820000D01*
X144200000Y-102390000D02*
X145770000Y-103960000D01*
%TO.N,Net-(U11-GPIO26{slash}ADC{slash}USB)*%
X146440000Y-103910000D02*
X146440000Y-114870000D01*
X144240000Y-101710000D02*
X146440000Y-103910000D01*
%TO.N,+3V3*%
X147487100Y-97170000D02*
X156150000Y-105832900D01*
X156150000Y-105832900D02*
X156150000Y-112900000D01*
X144150000Y-97170000D02*
X147487100Y-97170000D01*
%TO.N,Net-(U11-GPIO32)*%
X155180000Y-105430000D02*
X155180000Y-114020000D01*
X144130000Y-97840000D02*
X147590000Y-97840000D01*
X147590000Y-97840000D02*
X155180000Y-105430000D01*
%TO.N,Net-(U11-GPIO31)*%
X147130000Y-98530000D02*
X144130000Y-98530000D01*
X154420000Y-114030000D02*
X154420000Y-105820000D01*
X154420000Y-105820000D02*
X147130000Y-98530000D01*
%TO.N,Net-(U11-GPIO30)*%
X153700000Y-106520000D02*
X146370000Y-99190000D01*
X146370000Y-99190000D02*
X144140000Y-99190000D01*
X153700000Y-114030000D02*
X153700000Y-106520000D01*
%TO.N,Net-(U11-GPIO29)*%
X152910000Y-107180000D02*
X152900000Y-107190000D01*
X145560000Y-99830000D02*
X152910000Y-107180000D01*
X152900000Y-107190000D02*
X152900000Y-113980000D01*
X144140000Y-99830000D02*
X145560000Y-99830000D01*
%TO.N,Net-(U11-GPIO28)*%
X152020000Y-107460000D02*
X152020000Y-113970000D01*
X144980000Y-100420000D02*
X152020000Y-107460000D01*
X144160000Y-100420000D02*
X144980000Y-100420000D01*
%TO.N,Net-(Q6-G)*%
X148350000Y-110670000D02*
X149270000Y-111590000D01*
X148350000Y-104580000D02*
X148350000Y-110670000D01*
X144830000Y-101060000D02*
X148350000Y-104580000D01*
%TO.N,Net-(IC2-OUTF)*%
X123650000Y-101550000D02*
X121700000Y-101550000D01*
X128250000Y-97840000D02*
X127360000Y-97840000D01*
X127360000Y-97840000D02*
X123650000Y-101550000D01*
%TO.N,/Processing\u002C Memory and Display/ID*%
X133250000Y-94950000D02*
X137020000Y-91180000D01*
X122010000Y-94950000D02*
X133250000Y-94950000D01*
X116230000Y-89190000D02*
X116230000Y-91500000D01*
X116230000Y-91500000D02*
X119680000Y-94950000D01*
X119680000Y-94950000D02*
X122010000Y-94950000D01*
%TO.N,/Processing\u002C Memory and Display/D-*%
X158380000Y-92610000D02*
X158380000Y-85520000D01*
X158380000Y-85520000D02*
X142000000Y-69140000D01*
%TO.N,/Processing\u002C Memory and Display/D+*%
X157490000Y-85480000D02*
X157490000Y-92650000D01*
X142040000Y-70030000D02*
X157490000Y-85480000D01*
%TO.N,Net-(U10-CLK)*%
X139240000Y-86880000D02*
X132580000Y-80220000D01*
X139240000Y-91210000D02*
X139240000Y-86880000D01*
%TO.N,Net-(U10-DI{slash}IO_{0})*%
X139990000Y-86360000D02*
X132580000Y-78950000D01*
X139990000Y-91200000D02*
X139990000Y-86360000D01*
%TO.N,Net-(U10-~{CS})*%
X140990000Y-84670000D02*
X139170000Y-82850000D01*
X140990000Y-91310000D02*
X140990000Y-84670000D01*
%TO.N,Net-(IC2-OUTF)*%
X101900000Y-104100000D02*
X113550000Y-104100000D01*
X113550000Y-104100000D02*
X114300000Y-103350000D01*
D28*
%TO.N,+5V5*%
X158329100Y-81413900D02*
X160146200Y-79596800D01*
X160146200Y-79596800D02*
X164640700Y-79596800D01*
%TO.N,+3V3*%
X136729100Y-73440400D02*
X136729100Y-76472800D01*
X138653900Y-43653900D02*
X138653900Y-71515600D01*
X134050000Y-39050000D02*
X138653900Y-43653900D01*
X138653900Y-71515600D02*
X136729100Y-73440400D01*
D27*
%TO.N,Net-(U4-P0W)*%
X112800000Y-105400000D02*
X115400000Y-105400000D01*
X115400000Y-105400000D02*
X115850000Y-105850000D01*
%TO.N,Net-(Q1-D)*%
X166086500Y-75262500D02*
X166086500Y-75397900D01*
X164812500Y-75851700D02*
X164367500Y-75406700D01*
X166086500Y-75262500D02*
X166074000Y-75250000D01*
X120150000Y-58716800D02*
X120150000Y-51600000D01*
X165632700Y-75851700D02*
X164812500Y-75851700D01*
X117310900Y-61555900D02*
X120150000Y-58716800D01*
X166200000Y-75376000D02*
X166086500Y-75262500D01*
X162991100Y-75406700D02*
X162802400Y-75595400D01*
X164367500Y-75406700D02*
X162991100Y-75406700D01*
X166086500Y-75397900D02*
X165632700Y-75851700D01*
X166200000Y-77900000D02*
X166200000Y-75376000D01*
%TO.N,Net-(U9-BOOT)*%
X165250000Y-75250000D02*
X165250000Y-73700000D01*
X165250000Y-73700000D02*
X163450000Y-71900000D01*
%TO.N,Net-(U9-VCC)*%
X156100000Y-77100000D02*
X155750000Y-77450000D01*
X161750000Y-77100000D02*
X156100000Y-77100000D01*
%TO.N,Net-(Q2-G)*%
X110800000Y-57900000D02*
X110800000Y-56950000D01*
X110800000Y-56950000D02*
X110700000Y-56850000D01*
X111100000Y-58200000D02*
X110800000Y-57900000D01*
D28*
%TO.N,V_BAT*%
X116700000Y-52900000D02*
X115450000Y-54150000D01*
X116700000Y-47100000D02*
X116700000Y-52900000D01*
D27*
%TO.N,Net-(U7-PG)*%
X149310500Y-84868200D02*
X150079900Y-84868200D01*
X149130200Y-85048500D02*
X149310500Y-84868200D01*
%TO.N,Net-(U9-FSW)*%
X156800000Y-76300000D02*
X156750000Y-76250000D01*
X161950000Y-76300000D02*
X156800000Y-76300000D01*
%TO.N,Net-(D2-K2)*%
X133840000Y-36300000D02*
X136590000Y-39050000D01*
X125050000Y-36300000D02*
X133840000Y-36300000D01*
%TO.N,Net-(U2--)*%
X112366600Y-106700100D02*
X112366600Y-106700000D01*
X113180300Y-106700100D02*
X112366600Y-106700100D01*
X115225000Y-108744800D02*
X113180300Y-106700100D01*
%TD*%
%TA.AperFunction,Conductor*%
%TO.N,GND*%
G36*
X183004418Y-25500816D02*
G01*
X183204561Y-25515130D01*
X183222063Y-25517647D01*
X183413797Y-25559355D01*
X183430755Y-25564334D01*
X183614609Y-25632909D01*
X183630701Y-25640259D01*
X183802904Y-25734288D01*
X183817784Y-25743849D01*
X183974867Y-25861441D01*
X183988237Y-25873027D01*
X184126972Y-26011762D01*
X184138558Y-26025132D01*
X184256146Y-26182210D01*
X184265711Y-26197095D01*
X184359740Y-26369298D01*
X184367090Y-26385390D01*
X184435662Y-26569236D01*
X184440646Y-26586212D01*
X184482351Y-26777931D01*
X184484869Y-26795442D01*
X184499184Y-26995580D01*
X184499500Y-27004427D01*
X184499500Y-122995572D01*
X184499184Y-123004418D01*
X184499184Y-123004419D01*
X184484869Y-123204557D01*
X184482351Y-123222068D01*
X184440646Y-123413787D01*
X184435662Y-123430763D01*
X184367090Y-123614609D01*
X184359740Y-123630701D01*
X184265711Y-123802904D01*
X184256146Y-123817789D01*
X184138558Y-123974867D01*
X184126972Y-123988237D01*
X183988237Y-124126972D01*
X183974867Y-124138558D01*
X183817789Y-124256146D01*
X183802904Y-124265711D01*
X183630701Y-124359740D01*
X183614609Y-124367090D01*
X183430763Y-124435662D01*
X183413787Y-124440646D01*
X183222068Y-124482351D01*
X183204557Y-124484869D01*
X183023779Y-124497799D01*
X183004417Y-124499184D01*
X182995572Y-124499500D01*
X67004428Y-124499500D01*
X66995582Y-124499184D01*
X66973622Y-124497613D01*
X66795442Y-124484869D01*
X66777931Y-124482351D01*
X66586212Y-124440646D01*
X66569236Y-124435662D01*
X66385390Y-124367090D01*
X66369298Y-124359740D01*
X66197095Y-124265711D01*
X66182210Y-124256146D01*
X66025132Y-124138558D01*
X66011762Y-124126972D01*
X65873027Y-123988237D01*
X65861441Y-123974867D01*
X65743849Y-123817784D01*
X65734288Y-123802904D01*
X65640259Y-123630701D01*
X65632909Y-123614609D01*
X65572091Y-123451551D01*
X65564334Y-123430755D01*
X65559355Y-123413797D01*
X65517647Y-123222063D01*
X65515130Y-123204556D01*
X65500816Y-123004418D01*
X65500500Y-122995572D01*
X65500500Y-112893713D01*
X68649500Y-112893713D01*
X68649500Y-113106286D01*
X68680260Y-113300500D01*
X68682754Y-113316243D01*
X68723202Y-113440730D01*
X68748444Y-113518414D01*
X68844951Y-113707820D01*
X68969890Y-113879786D01*
X69120213Y-114030109D01*
X69292179Y-114155048D01*
X69292181Y-114155049D01*
X69292184Y-114155051D01*
X69481588Y-114251557D01*
X69683757Y-114317246D01*
X69893713Y-114350500D01*
X69893714Y-114350500D01*
X70106286Y-114350500D01*
X70106287Y-114350500D01*
X70316243Y-114317246D01*
X70518412Y-114251557D01*
X70707816Y-114155051D01*
X70867555Y-114038995D01*
X70879786Y-114030109D01*
X70879788Y-114030106D01*
X70879792Y-114030104D01*
X71030104Y-113879792D01*
X71030106Y-113879788D01*
X71030109Y-113879786D01*
X71155048Y-113707820D01*
X71155047Y-113707820D01*
X71155051Y-113707816D01*
X71251557Y-113518412D01*
X71317246Y-113316243D01*
X71350500Y-113106287D01*
X71350500Y-112893713D01*
X71317246Y-112683757D01*
X71251557Y-112481588D01*
X71155051Y-112292184D01*
X71155049Y-112292181D01*
X71155048Y-112292179D01*
X71030109Y-112120213D01*
X70879786Y-111969890D01*
X70707820Y-111844951D01*
X70518414Y-111748444D01*
X70518413Y-111748443D01*
X70518412Y-111748443D01*
X70316243Y-111682754D01*
X70316241Y-111682753D01*
X70316240Y-111682753D01*
X70154957Y-111657208D01*
X70106287Y-111649500D01*
X69893713Y-111649500D01*
X69845042Y-111657208D01*
X69683760Y-111682753D01*
X69481585Y-111748444D01*
X69292179Y-111844951D01*
X69120213Y-111969890D01*
X68969890Y-112120213D01*
X68844951Y-112292179D01*
X68748444Y-112481585D01*
X68748443Y-112481587D01*
X68748443Y-112481588D01*
X68717292Y-112577461D01*
X68682753Y-112683760D01*
X68649500Y-112893713D01*
X65500500Y-112893713D01*
X65500500Y-111101153D01*
X123499500Y-111101153D01*
X123499500Y-111258846D01*
X123530261Y-111413489D01*
X123530264Y-111413501D01*
X123590061Y-111557864D01*
X123599500Y-111605316D01*
X123599500Y-112101006D01*
X123599500Y-112238994D01*
X123599500Y-112238996D01*
X123599499Y-112238996D01*
X123626418Y-112374322D01*
X123626421Y-112374332D01*
X123679222Y-112501807D01*
X123755887Y-112616545D01*
X130583454Y-119444112D01*
X130698190Y-119520776D01*
X130796790Y-119561617D01*
X130825671Y-119573580D01*
X130825672Y-119573580D01*
X130825677Y-119573582D01*
X130852545Y-119578925D01*
X130852551Y-119578926D01*
X130852591Y-119578934D01*
X130942937Y-119596905D01*
X130961006Y-119600500D01*
X130961007Y-119600500D01*
X156488996Y-119600500D01*
X156597457Y-119578925D01*
X156624328Y-119573580D01*
X156688069Y-119547177D01*
X156751807Y-119520777D01*
X156751808Y-119520776D01*
X156751811Y-119520775D01*
X156866543Y-119444114D01*
X158044114Y-118266543D01*
X158120775Y-118151811D01*
X158173580Y-118024328D01*
X158200500Y-117888994D01*
X158200500Y-117751006D01*
X158200500Y-104961007D01*
X158200500Y-104961004D01*
X158173581Y-104825677D01*
X158173580Y-104825676D01*
X158173580Y-104825672D01*
X158166839Y-104809397D01*
X158120777Y-104698193D01*
X158120772Y-104698184D01*
X158115708Y-104690605D01*
X158115707Y-104690604D01*
X158044112Y-104583454D01*
X158044109Y-104583451D01*
X148426071Y-94965414D01*
X148399191Y-94925185D01*
X148339397Y-94780827D01*
X148339390Y-94780814D01*
X148251789Y-94649711D01*
X148251786Y-94649707D01*
X148140292Y-94538213D01*
X148140288Y-94538210D01*
X148009185Y-94450609D01*
X148009172Y-94450602D01*
X147863501Y-94390264D01*
X147863489Y-94390261D01*
X147708845Y-94359500D01*
X147708842Y-94359500D01*
X147551158Y-94359500D01*
X147551155Y-94359500D01*
X147396510Y-94390261D01*
X147396498Y-94390264D01*
X147250827Y-94450602D01*
X147250814Y-94450609D01*
X147119711Y-94538210D01*
X147119707Y-94538213D01*
X147008213Y-94649707D01*
X147008210Y-94649711D01*
X146920609Y-94780814D01*
X146920602Y-94780827D01*
X146860264Y-94926498D01*
X146860261Y-94926510D01*
X146829500Y-95081153D01*
X146829500Y-95238846D01*
X146860261Y-95393489D01*
X146860264Y-95393501D01*
X146920602Y-95539172D01*
X146920609Y-95539185D01*
X147008210Y-95670288D01*
X147008213Y-95670292D01*
X147119707Y-95781786D01*
X147119711Y-95781789D01*
X147250814Y-95869390D01*
X147250827Y-95869397D01*
X147395185Y-95929191D01*
X147435414Y-95956071D01*
X147930395Y-96451052D01*
X147963880Y-96512375D01*
X147958896Y-96582067D01*
X147917024Y-96638000D01*
X147851560Y-96662417D01*
X147783287Y-96647565D01*
X147780715Y-96646121D01*
X147772720Y-96641505D01*
X147762617Y-96635672D01*
X147718885Y-96610423D01*
X147566157Y-96569499D01*
X147408043Y-96569499D01*
X147400447Y-96569499D01*
X147400431Y-96569500D01*
X144549770Y-96569500D01*
X144487630Y-96551253D01*
X144487181Y-96552095D01*
X144483140Y-96549935D01*
X144482731Y-96549815D01*
X144481912Y-96549278D01*
X144481809Y-96549223D01*
X144354332Y-96496421D01*
X144354322Y-96496418D01*
X144218995Y-96469500D01*
X144218993Y-96469500D01*
X144081007Y-96469500D01*
X144081005Y-96469500D01*
X143945677Y-96496418D01*
X143945667Y-96496421D01*
X143818195Y-96549221D01*
X143818182Y-96549228D01*
X143703458Y-96625885D01*
X143703454Y-96625888D01*
X143605888Y-96723454D01*
X143605885Y-96723458D01*
X143529228Y-96838182D01*
X143529221Y-96838195D01*
X143476421Y-96965667D01*
X143476418Y-96965677D01*
X143449500Y-97101004D01*
X143449500Y-97101007D01*
X143449500Y-97238993D01*
X143449500Y-97238995D01*
X143449499Y-97238995D01*
X143476418Y-97374322D01*
X143476420Y-97374328D01*
X143500890Y-97433405D01*
X143508359Y-97502874D01*
X143500890Y-97528309D01*
X143456421Y-97635667D01*
X143456418Y-97635677D01*
X143429500Y-97771004D01*
X143429500Y-97771007D01*
X143429500Y-97908993D01*
X143429500Y-97908995D01*
X143429499Y-97908995D01*
X143456418Y-98044322D01*
X143456421Y-98044332D01*
X143495032Y-98137548D01*
X143502501Y-98207017D01*
X143495032Y-98232452D01*
X143456421Y-98325667D01*
X143456418Y-98325677D01*
X143429500Y-98461004D01*
X143429500Y-98461007D01*
X143429500Y-98598993D01*
X143429500Y-98598995D01*
X143429499Y-98598995D01*
X143456418Y-98734322D01*
X143456421Y-98734332D01*
X143493819Y-98824619D01*
X143501288Y-98894088D01*
X143493820Y-98919522D01*
X143466419Y-98985675D01*
X143466418Y-98985678D01*
X143439500Y-99121004D01*
X143439500Y-99121007D01*
X143439500Y-99258993D01*
X143439500Y-99258995D01*
X143439499Y-99258995D01*
X143466418Y-99394321D01*
X143466419Y-99394323D01*
X143466420Y-99394328D01*
X143494678Y-99462550D01*
X143502146Y-99532018D01*
X143494680Y-99557444D01*
X143466420Y-99625672D01*
X143466418Y-99625678D01*
X143439500Y-99761004D01*
X143439500Y-99761007D01*
X143439500Y-99898993D01*
X143439500Y-99898995D01*
X143439499Y-99898995D01*
X143466418Y-100034321D01*
X143466420Y-100034329D01*
X143494322Y-100101690D01*
X143501791Y-100171159D01*
X143494323Y-100196593D01*
X143486419Y-100215674D01*
X143486418Y-100215678D01*
X143459500Y-100351004D01*
X143459500Y-100351007D01*
X143459500Y-100488993D01*
X143459500Y-100488995D01*
X143459499Y-100488995D01*
X143486418Y-100624322D01*
X143486421Y-100624332D01*
X143539221Y-100751804D01*
X143539228Y-100751817D01*
X143615885Y-100866541D01*
X143615888Y-100866545D01*
X143713455Y-100964112D01*
X143713458Y-100964114D01*
X143756736Y-100993032D01*
X143801542Y-101046643D01*
X143810249Y-101115968D01*
X143780095Y-101178996D01*
X143775528Y-101183815D01*
X143695885Y-101263458D01*
X143619228Y-101378182D01*
X143619221Y-101378195D01*
X143566421Y-101505667D01*
X143566418Y-101505677D01*
X143539500Y-101641004D01*
X143539500Y-101641007D01*
X143539500Y-101778993D01*
X143539500Y-101778995D01*
X143539499Y-101778995D01*
X143566418Y-101914321D01*
X143566419Y-101914324D01*
X143566420Y-101914328D01*
X143572574Y-101929185D01*
X143583140Y-101954694D01*
X143590607Y-102024164D01*
X143580839Y-102052265D01*
X143581556Y-102052562D01*
X143526420Y-102185671D01*
X143526418Y-102185677D01*
X143499500Y-102321004D01*
X143499500Y-102321007D01*
X143499500Y-102458993D01*
X143499500Y-102458995D01*
X143499499Y-102458995D01*
X143526418Y-102594322D01*
X143526421Y-102594332D01*
X143579221Y-102721804D01*
X143579228Y-102721817D01*
X143655885Y-102836541D01*
X143655888Y-102836545D01*
X143753454Y-102934111D01*
X143753458Y-102934114D01*
X143868182Y-103010771D01*
X143868195Y-103010778D01*
X143944678Y-103042458D01*
X143995672Y-103063580D01*
X143995679Y-103063581D01*
X144001505Y-103065349D01*
X144001075Y-103066765D01*
X144056474Y-103095737D01*
X144058062Y-103097297D01*
X145133181Y-104172416D01*
X145166666Y-104233739D01*
X145169500Y-104260097D01*
X145169500Y-114415264D01*
X145149815Y-114482303D01*
X145148603Y-114484154D01*
X145139223Y-114498192D01*
X145086421Y-114625667D01*
X145086418Y-114625677D01*
X145059500Y-114761004D01*
X145059500Y-114761007D01*
X145059500Y-114898993D01*
X145059500Y-114898995D01*
X145059499Y-114898995D01*
X145086418Y-115034322D01*
X145086421Y-115034332D01*
X145139221Y-115161804D01*
X145139228Y-115161817D01*
X145215885Y-115276541D01*
X145215888Y-115276545D01*
X145313454Y-115374111D01*
X145313458Y-115374114D01*
X145428182Y-115450771D01*
X145428195Y-115450778D01*
X145524765Y-115490778D01*
X145555672Y-115503580D01*
X145555676Y-115503580D01*
X145555677Y-115503581D01*
X145691004Y-115530500D01*
X145691007Y-115530500D01*
X145828995Y-115530500D01*
X145920041Y-115512389D01*
X145964328Y-115503580D01*
X146004694Y-115486859D01*
X146074160Y-115479391D01*
X146102261Y-115489164D01*
X146102560Y-115488444D01*
X146204094Y-115530500D01*
X146235672Y-115543580D01*
X146235676Y-115543580D01*
X146235677Y-115543581D01*
X146371004Y-115570500D01*
X146371007Y-115570500D01*
X146508995Y-115570500D01*
X146600041Y-115552389D01*
X146644328Y-115543580D01*
X146771811Y-115490775D01*
X146886542Y-115414114D01*
X146984114Y-115316542D01*
X147060775Y-115201811D01*
X147113580Y-115074328D01*
X147140500Y-114938993D01*
X147140500Y-114801007D01*
X147140500Y-114801004D01*
X147113581Y-114665677D01*
X147113580Y-114665676D01*
X147113580Y-114665672D01*
X147113578Y-114665667D01*
X147060776Y-114538190D01*
X147057905Y-114532819D01*
X147059205Y-114532123D01*
X147040520Y-114472438D01*
X147040500Y-114470230D01*
X147040500Y-104419097D01*
X147060185Y-104352058D01*
X147112989Y-104306303D01*
X147182147Y-104296359D01*
X147245703Y-104325384D01*
X147252181Y-104331416D01*
X147713181Y-104792416D01*
X147746666Y-104853739D01*
X147749500Y-104880097D01*
X147749500Y-110583330D01*
X147749499Y-110583348D01*
X147749499Y-110749054D01*
X147749498Y-110749054D01*
X147749499Y-110749057D01*
X147790423Y-110901785D01*
X147790424Y-110901787D01*
X147790423Y-110901787D01*
X147797665Y-110914329D01*
X147797666Y-110914330D01*
X147869477Y-111038712D01*
X147869481Y-111038717D01*
X147988349Y-111157585D01*
X147988355Y-111157590D01*
X148562701Y-111731936D01*
X148593735Y-111788771D01*
X148594650Y-111788494D01*
X148595982Y-111792886D01*
X148596186Y-111793259D01*
X148596384Y-111794209D01*
X148596420Y-111794330D01*
X148649221Y-111921804D01*
X148649228Y-111921817D01*
X148725885Y-112036541D01*
X148725888Y-112036545D01*
X148823454Y-112134111D01*
X148823458Y-112134114D01*
X148938182Y-112210771D01*
X148938195Y-112210778D01*
X149065667Y-112263578D01*
X149065672Y-112263580D01*
X149065676Y-112263580D01*
X149065677Y-112263581D01*
X149201004Y-112290500D01*
X149201007Y-112290500D01*
X149338995Y-112290500D01*
X149430041Y-112272389D01*
X149474328Y-112263580D01*
X149601811Y-112210775D01*
X149716542Y-112134114D01*
X149814114Y-112036542D01*
X149890775Y-111921811D01*
X149943580Y-111794328D01*
X149953674Y-111743581D01*
X149970500Y-111658995D01*
X149970500Y-111521004D01*
X149943581Y-111385677D01*
X149943580Y-111385676D01*
X149943580Y-111385672D01*
X149942714Y-111383581D01*
X149890778Y-111258195D01*
X149890771Y-111258182D01*
X149814114Y-111143458D01*
X149814111Y-111143454D01*
X149716545Y-111045888D01*
X149716541Y-111045885D01*
X149601817Y-110969228D01*
X149601804Y-110969221D01*
X149474330Y-110916420D01*
X149468494Y-110914650D01*
X149468921Y-110913239D01*
X149413502Y-110884240D01*
X149411936Y-110882701D01*
X148986819Y-110457584D01*
X148953334Y-110396261D01*
X148950500Y-110369903D01*
X148950500Y-105539097D01*
X148970185Y-105472058D01*
X149022989Y-105426303D01*
X149092147Y-105416359D01*
X149155703Y-105445384D01*
X149162181Y-105451416D01*
X151383181Y-107672416D01*
X151416666Y-107733739D01*
X151419500Y-107760097D01*
X151419500Y-113570230D01*
X151401253Y-113632369D01*
X151402095Y-113632819D01*
X151399935Y-113636859D01*
X151399815Y-113637269D01*
X151399278Y-113638087D01*
X151399223Y-113638190D01*
X151346421Y-113765667D01*
X151346418Y-113765677D01*
X151319500Y-113901004D01*
X151319500Y-113901007D01*
X151319500Y-114038993D01*
X151319500Y-114038995D01*
X151319499Y-114038995D01*
X151346418Y-114174322D01*
X151346421Y-114174332D01*
X151399221Y-114301804D01*
X151399228Y-114301817D01*
X151475885Y-114416541D01*
X151475888Y-114416545D01*
X151573454Y-114514111D01*
X151573458Y-114514114D01*
X151688182Y-114590771D01*
X151688195Y-114590778D01*
X151808890Y-114640771D01*
X151815672Y-114643580D01*
X151815676Y-114643580D01*
X151815677Y-114643581D01*
X151951004Y-114670500D01*
X151951007Y-114670500D01*
X152088995Y-114670500D01*
X152188141Y-114650778D01*
X152224328Y-114643580D01*
X152351811Y-114590775D01*
X152383627Y-114569515D01*
X152450300Y-114548638D01*
X152517680Y-114567121D01*
X152521408Y-114569517D01*
X152568180Y-114600770D01*
X152568195Y-114600778D01*
X152688907Y-114650778D01*
X152695672Y-114653580D01*
X152695676Y-114653580D01*
X152695677Y-114653581D01*
X152831004Y-114680500D01*
X152831007Y-114680500D01*
X152968995Y-114680500D01*
X153060041Y-114662389D01*
X153104328Y-114653580D01*
X153208572Y-114610400D01*
X153278039Y-114602932D01*
X153324914Y-114621860D01*
X153368182Y-114650771D01*
X153368195Y-114650778D01*
X153471532Y-114693581D01*
X153495672Y-114703580D01*
X153495676Y-114703580D01*
X153495677Y-114703581D01*
X153631004Y-114730500D01*
X153631007Y-114730500D01*
X153768995Y-114730500D01*
X153860041Y-114712389D01*
X153904328Y-114703580D01*
X154012548Y-114658753D01*
X154082017Y-114651285D01*
X154107449Y-114658753D01*
X154215672Y-114703580D01*
X154215676Y-114703580D01*
X154215677Y-114703581D01*
X154351004Y-114730500D01*
X154351007Y-114730500D01*
X154488995Y-114730500D01*
X154580041Y-114712389D01*
X154624328Y-114703580D01*
X154751811Y-114650775D01*
X154751811Y-114650774D01*
X154752706Y-114650297D01*
X154753229Y-114650187D01*
X154757440Y-114648444D01*
X154757770Y-114649242D01*
X154821108Y-114636054D01*
X154858613Y-114645092D01*
X154975672Y-114693580D01*
X154975676Y-114693580D01*
X154975677Y-114693581D01*
X155111004Y-114720500D01*
X155111007Y-114720500D01*
X155248995Y-114720500D01*
X155340041Y-114702389D01*
X155384328Y-114693580D01*
X155493296Y-114648444D01*
X155511804Y-114640778D01*
X155511804Y-114640777D01*
X155511811Y-114640775D01*
X155626542Y-114564114D01*
X155724114Y-114466542D01*
X155800775Y-114351811D01*
X155853580Y-114224328D01*
X155880500Y-114088993D01*
X155880500Y-113951007D01*
X155880500Y-113951004D01*
X155853581Y-113815677D01*
X155853580Y-113815676D01*
X155853580Y-113815672D01*
X155824806Y-113746207D01*
X155817338Y-113676738D01*
X155848613Y-113614259D01*
X155908702Y-113578607D01*
X155963559Y-113577138D01*
X155989619Y-113582321D01*
X156081004Y-113600500D01*
X156081007Y-113600500D01*
X156218995Y-113600500D01*
X156310041Y-113582389D01*
X156354328Y-113573580D01*
X156481811Y-113520775D01*
X156596542Y-113444114D01*
X156596546Y-113444109D01*
X156596836Y-113443873D01*
X156597020Y-113443794D01*
X156601607Y-113440730D01*
X156602188Y-113441599D01*
X156661146Y-113416561D01*
X156730013Y-113428352D01*
X156781573Y-113475505D01*
X156799500Y-113539727D01*
X156799500Y-117478481D01*
X156779815Y-117545520D01*
X156763181Y-117566162D01*
X156166162Y-118163181D01*
X156104839Y-118196666D01*
X156078481Y-118199500D01*
X131371519Y-118199500D01*
X131304480Y-118179815D01*
X131283838Y-118163181D01*
X125036819Y-111916162D01*
X125022115Y-111889234D01*
X125005523Y-111863416D01*
X125004631Y-111857215D01*
X125003334Y-111854839D01*
X125000500Y-111828481D01*
X125000500Y-111605316D01*
X125009939Y-111557864D01*
X125069735Y-111413501D01*
X125069737Y-111413497D01*
X125100500Y-111258842D01*
X125100500Y-111101158D01*
X125100500Y-111101155D01*
X125100499Y-111101153D01*
X125089506Y-111045888D01*
X125069737Y-110946503D01*
X125051215Y-110901787D01*
X125009397Y-110800827D01*
X125009390Y-110800814D01*
X124921789Y-110669711D01*
X124921786Y-110669707D01*
X124810292Y-110558213D01*
X124810288Y-110558210D01*
X124679185Y-110470609D01*
X124679172Y-110470602D01*
X124533501Y-110410264D01*
X124533489Y-110410261D01*
X124378845Y-110379500D01*
X124378842Y-110379500D01*
X124221158Y-110379500D01*
X124221155Y-110379500D01*
X124066510Y-110410261D01*
X124066498Y-110410264D01*
X123920827Y-110470602D01*
X123920814Y-110470609D01*
X123789711Y-110558210D01*
X123789707Y-110558213D01*
X123678213Y-110669707D01*
X123678210Y-110669711D01*
X123590609Y-110800814D01*
X123590602Y-110800827D01*
X123530264Y-110946498D01*
X123530261Y-110946510D01*
X123499500Y-111101153D01*
X65500500Y-111101153D01*
X65500500Y-104021153D01*
X101099500Y-104021153D01*
X101099500Y-104178846D01*
X101130261Y-104333489D01*
X101130264Y-104333501D01*
X101190602Y-104479172D01*
X101190609Y-104479185D01*
X101278210Y-104610288D01*
X101278213Y-104610292D01*
X101389707Y-104721786D01*
X101389711Y-104721789D01*
X101520814Y-104809390D01*
X101520827Y-104809397D01*
X101595732Y-104840423D01*
X101666503Y-104869737D01*
X101785419Y-104893391D01*
X101821153Y-104900499D01*
X101821156Y-104900500D01*
X101821158Y-104900500D01*
X101978844Y-104900500D01*
X101978845Y-104900499D01*
X102133497Y-104869737D01*
X102279179Y-104809394D01*
X102279185Y-104809390D01*
X102410875Y-104721398D01*
X102477553Y-104700520D01*
X102479766Y-104700500D01*
X112072650Y-104700500D01*
X112139689Y-104720185D01*
X112185444Y-104772989D01*
X112195388Y-104842147D01*
X112175752Y-104893391D01*
X112090609Y-105020814D01*
X112090602Y-105020827D01*
X112030264Y-105166498D01*
X112030261Y-105166510D01*
X111999500Y-105321153D01*
X111999500Y-105478846D01*
X112030261Y-105633489D01*
X112030264Y-105633501D01*
X112090602Y-105779172D01*
X112090608Y-105779183D01*
X112094942Y-105785669D01*
X112115819Y-105852347D01*
X112097334Y-105919727D01*
X112045355Y-105966416D01*
X112039292Y-105969120D01*
X111987424Y-105990604D01*
X111987414Y-105990609D01*
X111856311Y-106078210D01*
X111856307Y-106078213D01*
X111744813Y-106189707D01*
X111744810Y-106189711D01*
X111657209Y-106320814D01*
X111657202Y-106320827D01*
X111596864Y-106466498D01*
X111596861Y-106466510D01*
X111566100Y-106621153D01*
X111566100Y-106778846D01*
X111596861Y-106933489D01*
X111596864Y-106933501D01*
X111657202Y-107079172D01*
X111657209Y-107079185D01*
X111744810Y-107210288D01*
X111744813Y-107210292D01*
X111856307Y-107321786D01*
X111856311Y-107321789D01*
X111987414Y-107409390D01*
X111987427Y-107409397D01*
X112133098Y-107469735D01*
X112133103Y-107469737D01*
X112287753Y-107500499D01*
X112287756Y-107500500D01*
X112287758Y-107500500D01*
X112445444Y-107500500D01*
X112445445Y-107500499D01*
X112600097Y-107469737D01*
X112745779Y-107409394D01*
X112837753Y-107347939D01*
X112904430Y-107327061D01*
X112971810Y-107345545D01*
X112994325Y-107363360D01*
X114390425Y-108759460D01*
X114423910Y-108820783D01*
X114424361Y-108822949D01*
X114455261Y-108978291D01*
X114455264Y-108978301D01*
X114515602Y-109123972D01*
X114515609Y-109123985D01*
X114603210Y-109255088D01*
X114603213Y-109255092D01*
X114714707Y-109366586D01*
X114714711Y-109366589D01*
X114845814Y-109454190D01*
X114845827Y-109454197D01*
X114991498Y-109514535D01*
X114991503Y-109514537D01*
X115146153Y-109545299D01*
X115146156Y-109545300D01*
X115146158Y-109545300D01*
X115303844Y-109545300D01*
X115303845Y-109545299D01*
X115458497Y-109514537D01*
X115604179Y-109454194D01*
X115735289Y-109366589D01*
X115846789Y-109255089D01*
X115934394Y-109123979D01*
X115994737Y-108978297D01*
X116025500Y-108823642D01*
X116025500Y-108665958D01*
X116025500Y-108665955D01*
X116025499Y-108665953D01*
X115999627Y-108535886D01*
X115994737Y-108511303D01*
X115951294Y-108406421D01*
X115934397Y-108365627D01*
X115934390Y-108365614D01*
X115846789Y-108234511D01*
X115846786Y-108234507D01*
X115735292Y-108123013D01*
X115735288Y-108123010D01*
X115604185Y-108035409D01*
X115604172Y-108035402D01*
X115458501Y-107975064D01*
X115458491Y-107975061D01*
X115303149Y-107944161D01*
X115241238Y-107911776D01*
X115239660Y-107910225D01*
X113668063Y-106338628D01*
X113660821Y-106331386D01*
X113660820Y-106331384D01*
X113549016Y-106219580D01*
X113547892Y-106218931D01*
X113541289Y-106212354D01*
X113528182Y-106188462D01*
X113512108Y-106166450D01*
X113511620Y-106158275D01*
X113507683Y-106151097D01*
X113509573Y-106123908D01*
X113507953Y-106096704D01*
X113511961Y-106089565D01*
X113512530Y-106081396D01*
X113528819Y-106059546D01*
X113542164Y-106035783D01*
X113549397Y-106031944D01*
X113554291Y-106025380D01*
X113579805Y-106015806D01*
X113603881Y-106003029D01*
X113617556Y-106001640D01*
X113619707Y-106000834D01*
X113621564Y-106001234D01*
X113628797Y-106000500D01*
X114963122Y-106000500D01*
X115030161Y-106020185D01*
X115075916Y-106072989D01*
X115077784Y-106077930D01*
X115077932Y-106077869D01*
X115080262Y-106083496D01*
X115080263Y-106083497D01*
X115085733Y-106096704D01*
X115140602Y-106229172D01*
X115140609Y-106229185D01*
X115228210Y-106360288D01*
X115228213Y-106360292D01*
X115339707Y-106471786D01*
X115339711Y-106471789D01*
X115470814Y-106559390D01*
X115470827Y-106559397D01*
X115616498Y-106619735D01*
X115616503Y-106619737D01*
X115771153Y-106650499D01*
X115771156Y-106650500D01*
X115771158Y-106650500D01*
X115928844Y-106650500D01*
X115928845Y-106650499D01*
X116083497Y-106619737D01*
X116229179Y-106559394D01*
X116360289Y-106471789D01*
X116471789Y-106360289D01*
X116559394Y-106229179D01*
X116619737Y-106083497D01*
X116650500Y-105928842D01*
X116650500Y-105771158D01*
X116650500Y-105771155D01*
X116650499Y-105771153D01*
X116623117Y-105633497D01*
X116619737Y-105616503D01*
X116587675Y-105539097D01*
X116559397Y-105470827D01*
X116559390Y-105470814D01*
X116471789Y-105339711D01*
X116471786Y-105339707D01*
X116360292Y-105228213D01*
X116360288Y-105228210D01*
X116229185Y-105140609D01*
X116229172Y-105140602D01*
X116083501Y-105080264D01*
X116083491Y-105080261D01*
X115928151Y-105049362D01*
X115866241Y-105016977D01*
X115864662Y-105015426D01*
X115768717Y-104919481D01*
X115768716Y-104919480D01*
X115681904Y-104869360D01*
X115681904Y-104869359D01*
X115681900Y-104869358D01*
X115631785Y-104840423D01*
X115479057Y-104799499D01*
X115320943Y-104799499D01*
X115313347Y-104799499D01*
X115313331Y-104799500D01*
X113998628Y-104799500D01*
X113977277Y-104793230D01*
X113955085Y-104791603D01*
X113944405Y-104783578D01*
X113931589Y-104779815D01*
X113917018Y-104762999D01*
X113899227Y-104749631D01*
X113894580Y-104737105D01*
X113885834Y-104727011D01*
X113882667Y-104704987D01*
X113874928Y-104684123D01*
X113877791Y-104671074D01*
X113875890Y-104657853D01*
X113885133Y-104637611D01*
X113889903Y-104615877D01*
X113900934Y-104603013D01*
X113904915Y-104594297D01*
X113911105Y-104587661D01*
X113917659Y-104581129D01*
X113918716Y-104580520D01*
X114030520Y-104468716D01*
X114030521Y-104468713D01*
X114314661Y-104184572D01*
X114375983Y-104151089D01*
X114378150Y-104150638D01*
X114436085Y-104139113D01*
X114533497Y-104119737D01*
X114679179Y-104059394D01*
X114810289Y-103971789D01*
X114921789Y-103860289D01*
X115009394Y-103729179D01*
X115012854Y-103720827D01*
X115030368Y-103678542D01*
X115069737Y-103583497D01*
X115100500Y-103428842D01*
X115100500Y-103271158D01*
X115100500Y-103271155D01*
X115100499Y-103271153D01*
X115069738Y-103116510D01*
X115069738Y-103116508D01*
X115069737Y-103116503D01*
X115049135Y-103066765D01*
X115009397Y-102970827D01*
X115009390Y-102970814D01*
X114921789Y-102839711D01*
X114921786Y-102839707D01*
X114810292Y-102728213D01*
X114810288Y-102728210D01*
X114679185Y-102640609D01*
X114679172Y-102640602D01*
X114533501Y-102580264D01*
X114533489Y-102580261D01*
X114378845Y-102549500D01*
X114378842Y-102549500D01*
X114221158Y-102549500D01*
X114221155Y-102549500D01*
X114066510Y-102580261D01*
X114066498Y-102580264D01*
X113920827Y-102640602D01*
X113920814Y-102640609D01*
X113789711Y-102728210D01*
X113789707Y-102728213D01*
X113678213Y-102839707D01*
X113678210Y-102839711D01*
X113590609Y-102970814D01*
X113590602Y-102970827D01*
X113530264Y-103116498D01*
X113530261Y-103116508D01*
X113499361Y-103271850D01*
X113490595Y-103288607D01*
X113486576Y-103307084D01*
X113467831Y-103332125D01*
X113466976Y-103333761D01*
X113465426Y-103335339D01*
X113337582Y-103463182D01*
X113276262Y-103496666D01*
X113249903Y-103499500D01*
X102479766Y-103499500D01*
X102412727Y-103479815D01*
X102410875Y-103478602D01*
X102279185Y-103390609D01*
X102279172Y-103390602D01*
X102133501Y-103330264D01*
X102133489Y-103330261D01*
X101978845Y-103299500D01*
X101978842Y-103299500D01*
X101821158Y-103299500D01*
X101821155Y-103299500D01*
X101666510Y-103330261D01*
X101666498Y-103330264D01*
X101520827Y-103390602D01*
X101520814Y-103390609D01*
X101389711Y-103478210D01*
X101389707Y-103478213D01*
X101278213Y-103589707D01*
X101278210Y-103589711D01*
X101190609Y-103720814D01*
X101190602Y-103720827D01*
X101130264Y-103866498D01*
X101130261Y-103866510D01*
X101099500Y-104021153D01*
X65500500Y-104021153D01*
X65500500Y-89174616D01*
X103299500Y-89174616D01*
X103299500Y-89375383D01*
X103330907Y-89573680D01*
X103392949Y-89764626D01*
X103449188Y-89875000D01*
X103484095Y-89943508D01*
X103602103Y-90105932D01*
X103744068Y-90247897D01*
X103906492Y-90365905D01*
X103989724Y-90408314D01*
X104085373Y-90457050D01*
X104085375Y-90457050D01*
X104085378Y-90457052D01*
X104276320Y-90519093D01*
X104474616Y-90550500D01*
X104474617Y-90550500D01*
X104675383Y-90550500D01*
X104675384Y-90550500D01*
X104873680Y-90519093D01*
X105064622Y-90457052D01*
X105243508Y-90365905D01*
X105405932Y-90247897D01*
X105547897Y-90105932D01*
X105665905Y-89943508D01*
X105757052Y-89764622D01*
X105819093Y-89573680D01*
X105850500Y-89375384D01*
X105850500Y-89174616D01*
X105819093Y-88976320D01*
X105757052Y-88785378D01*
X105757050Y-88785375D01*
X105757050Y-88785373D01*
X105703210Y-88679707D01*
X105665905Y-88606492D01*
X105547897Y-88444068D01*
X105405932Y-88302103D01*
X105243508Y-88184095D01*
X105064626Y-88092949D01*
X104873680Y-88030907D01*
X104675384Y-87999500D01*
X104474616Y-87999500D01*
X104375468Y-88015203D01*
X104276319Y-88030907D01*
X104085373Y-88092949D01*
X103906491Y-88184095D01*
X103813822Y-88251423D01*
X103744068Y-88302103D01*
X103744066Y-88302105D01*
X103744065Y-88302105D01*
X103602105Y-88444065D01*
X103602105Y-88444066D01*
X103602103Y-88444068D01*
X103551423Y-88513822D01*
X103484095Y-88606491D01*
X103392949Y-88785373D01*
X103330907Y-88976319D01*
X103299500Y-89174616D01*
X65500500Y-89174616D01*
X65500500Y-87434778D01*
X108904500Y-87434778D01*
X108904500Y-87655221D01*
X108938985Y-87872952D01*
X109007103Y-88082603D01*
X109007104Y-88082606D01*
X109107187Y-88279025D01*
X109236752Y-88457358D01*
X109236756Y-88457363D01*
X109392636Y-88613243D01*
X109392641Y-88613247D01*
X109484122Y-88679711D01*
X109570978Y-88742815D01*
X109699375Y-88808237D01*
X109767393Y-88842895D01*
X109767396Y-88842896D01*
X109872221Y-88876955D01*
X109977049Y-88911015D01*
X110194778Y-88945500D01*
X110194779Y-88945500D01*
X110415220Y-88945500D01*
X110415222Y-88945500D01*
X110548747Y-88924351D01*
X110618038Y-88933305D01*
X110671490Y-88978301D01*
X110692130Y-89045053D01*
X110690616Y-89066222D01*
X110675000Y-89164818D01*
X110675000Y-89385181D01*
X110697114Y-89524806D01*
X110688159Y-89594100D01*
X110643163Y-89647552D01*
X110576411Y-89668191D01*
X110555243Y-89666677D01*
X110473653Y-89653754D01*
X110415222Y-89644500D01*
X110194778Y-89644500D01*
X110122201Y-89655995D01*
X109977047Y-89678985D01*
X109767396Y-89747103D01*
X109767393Y-89747104D01*
X109570974Y-89847187D01*
X109392641Y-89976752D01*
X109392636Y-89976756D01*
X109236756Y-90132636D01*
X109236752Y-90132641D01*
X109107187Y-90310974D01*
X109007104Y-90507393D01*
X109007103Y-90507396D01*
X108938985Y-90717047D01*
X108904500Y-90934778D01*
X108904500Y-91155221D01*
X108938985Y-91372952D01*
X109007103Y-91582603D01*
X109007104Y-91582606D01*
X109075122Y-91716096D01*
X109107029Y-91778716D01*
X109107187Y-91779025D01*
X109236752Y-91957358D01*
X109236756Y-91957363D01*
X109392636Y-92113243D01*
X109392641Y-92113247D01*
X109518480Y-92204673D01*
X109570978Y-92242815D01*
X109699375Y-92308237D01*
X109767393Y-92342895D01*
X109767396Y-92342896D01*
X109870815Y-92376498D01*
X109977049Y-92411015D01*
X110194778Y-92445500D01*
X110194779Y-92445500D01*
X110415221Y-92445500D01*
X110415222Y-92445500D01*
X110632951Y-92411015D01*
X110842606Y-92342895D01*
X111039022Y-92242815D01*
X111217365Y-92113242D01*
X111373242Y-91957365D01*
X111502815Y-91779022D01*
X111602895Y-91582606D01*
X111671015Y-91372951D01*
X111705500Y-91155222D01*
X111705500Y-90934778D01*
X111683322Y-90794753D01*
X111692276Y-90725463D01*
X111737272Y-90672011D01*
X111804024Y-90651371D01*
X111825193Y-90652885D01*
X111964819Y-90675000D01*
X112185181Y-90675000D01*
X112324806Y-90652885D01*
X112394099Y-90661839D01*
X112447551Y-90706835D01*
X112468191Y-90773587D01*
X112466677Y-90794756D01*
X112444500Y-90934778D01*
X112444500Y-91155221D01*
X112478985Y-91372952D01*
X112547103Y-91582603D01*
X112547104Y-91582606D01*
X112615122Y-91716096D01*
X112647029Y-91778716D01*
X112647187Y-91779025D01*
X112776752Y-91957358D01*
X112776756Y-91957363D01*
X112932636Y-92113243D01*
X112932641Y-92113247D01*
X113058480Y-92204673D01*
X113110978Y-92242815D01*
X113239375Y-92308237D01*
X113307393Y-92342895D01*
X113307396Y-92342896D01*
X113410815Y-92376498D01*
X113517049Y-92411015D01*
X113734778Y-92445500D01*
X113734779Y-92445500D01*
X113955221Y-92445500D01*
X113955222Y-92445500D01*
X114172951Y-92411015D01*
X114382606Y-92342895D01*
X114579022Y-92242815D01*
X114757365Y-92113242D01*
X114913242Y-91957365D01*
X115042815Y-91779022D01*
X115142895Y-91582606D01*
X115211015Y-91372951D01*
X115245500Y-91155222D01*
X115245500Y-90934778D01*
X115211015Y-90717049D01*
X115158039Y-90554002D01*
X115142896Y-90507396D01*
X115142895Y-90507393D01*
X115092414Y-90408321D01*
X115042815Y-90310978D01*
X114969412Y-90209947D01*
X114913247Y-90132641D01*
X114913243Y-90132636D01*
X114757363Y-89976756D01*
X114757358Y-89976752D01*
X114579025Y-89847187D01*
X114579024Y-89847186D01*
X114579022Y-89847185D01*
X114516096Y-89815122D01*
X114382606Y-89747104D01*
X114382603Y-89747103D01*
X114172952Y-89678985D01*
X114038702Y-89657722D01*
X113955222Y-89644500D01*
X113734778Y-89644500D01*
X113693551Y-89651029D01*
X113594756Y-89666677D01*
X113525462Y-89657722D01*
X113472010Y-89612726D01*
X113451371Y-89545974D01*
X113452885Y-89524806D01*
X113475000Y-89385180D01*
X113475000Y-89164818D01*
X113460413Y-89072721D01*
X113469368Y-89003428D01*
X113514364Y-88949976D01*
X113581115Y-88929336D01*
X113602280Y-88930849D01*
X113694778Y-88945500D01*
X113694779Y-88945500D01*
X113915221Y-88945500D01*
X113915222Y-88945500D01*
X114132951Y-88911015D01*
X114342606Y-88842895D01*
X114539022Y-88742815D01*
X114717365Y-88613242D01*
X114873242Y-88457365D01*
X115002815Y-88279022D01*
X115102895Y-88082606D01*
X115171015Y-87872951D01*
X115205500Y-87655222D01*
X115205500Y-87434778D01*
X115171015Y-87217049D01*
X115102895Y-87007394D01*
X115102895Y-87007393D01*
X115050977Y-86905500D01*
X115002815Y-86810978D01*
X114897944Y-86666634D01*
X114873247Y-86632641D01*
X114873243Y-86632636D01*
X114717363Y-86476756D01*
X114717358Y-86476752D01*
X114539025Y-86347187D01*
X114539024Y-86347186D01*
X114539022Y-86347185D01*
X114476096Y-86315122D01*
X114342606Y-86247104D01*
X114342603Y-86247103D01*
X114132952Y-86178985D01*
X114024086Y-86161742D01*
X113915222Y-86144500D01*
X113694778Y-86144500D01*
X113622201Y-86155995D01*
X113477047Y-86178985D01*
X113267396Y-86247103D01*
X113267393Y-86247104D01*
X113070974Y-86347187D01*
X112892641Y-86476752D01*
X112892636Y-86476756D01*
X112736756Y-86632636D01*
X112736752Y-86632641D01*
X112607187Y-86810974D01*
X112507104Y-87007393D01*
X112507103Y-87007396D01*
X112438985Y-87217047D01*
X112404500Y-87434778D01*
X112404500Y-87655222D01*
X112404499Y-87655222D01*
X112419149Y-87747716D01*
X112410194Y-87817009D01*
X112365198Y-87870461D01*
X112298446Y-87891100D01*
X112277279Y-87889586D01*
X112185182Y-87875000D01*
X111964819Y-87875000D01*
X111831692Y-87896085D01*
X111762398Y-87887130D01*
X111708946Y-87842134D01*
X111688307Y-87775382D01*
X111689821Y-87754214D01*
X111705500Y-87655221D01*
X111705500Y-87434778D01*
X111678101Y-87261790D01*
X111671015Y-87217049D01*
X111602895Y-87007394D01*
X111602895Y-87007393D01*
X111550977Y-86905500D01*
X111502815Y-86810978D01*
X111397944Y-86666634D01*
X111373247Y-86632641D01*
X111373243Y-86632636D01*
X111217363Y-86476756D01*
X111217358Y-86476752D01*
X111039025Y-86347187D01*
X111039024Y-86347186D01*
X111039022Y-86347185D01*
X110976096Y-86315122D01*
X110842606Y-86247104D01*
X110842603Y-86247103D01*
X110632952Y-86178985D01*
X110524086Y-86161742D01*
X110415222Y-86144500D01*
X110194778Y-86144500D01*
X110122201Y-86155995D01*
X109977047Y-86178985D01*
X109767396Y-86247103D01*
X109767393Y-86247104D01*
X109570974Y-86347187D01*
X109392641Y-86476752D01*
X109392636Y-86476756D01*
X109236756Y-86632636D01*
X109236752Y-86632641D01*
X109107187Y-86810974D01*
X109007104Y-87007393D01*
X109007103Y-87007396D01*
X108938985Y-87217047D01*
X108904500Y-87434778D01*
X65500500Y-87434778D01*
X65500500Y-85125097D01*
X101884500Y-85125097D01*
X101884500Y-85384902D01*
X101925140Y-85641493D01*
X102005422Y-85888576D01*
X102123368Y-86120054D01*
X102215675Y-86247104D01*
X102276069Y-86330229D01*
X102459771Y-86513931D01*
X102669949Y-86666634D01*
X102794121Y-86729903D01*
X102901423Y-86784577D01*
X102901425Y-86784577D01*
X102901428Y-86784579D01*
X103148507Y-86864860D01*
X103280706Y-86885797D01*
X103405098Y-86905500D01*
X103405103Y-86905500D01*
X103664902Y-86905500D01*
X103778298Y-86887539D01*
X103921493Y-86864860D01*
X104168572Y-86784579D01*
X104400051Y-86666634D01*
X104610229Y-86513931D01*
X104793931Y-86330229D01*
X104946634Y-86120051D01*
X105064579Y-85888572D01*
X105144860Y-85641493D01*
X105176623Y-85440945D01*
X105185500Y-85384902D01*
X105185500Y-85125097D01*
X118904500Y-85125097D01*
X118904500Y-85384902D01*
X118945140Y-85641493D01*
X119025422Y-85888576D01*
X119143368Y-86120054D01*
X119235675Y-86247104D01*
X119296069Y-86330229D01*
X119479771Y-86513931D01*
X119689949Y-86666634D01*
X119814121Y-86729903D01*
X119921423Y-86784577D01*
X119921425Y-86784577D01*
X119921428Y-86784579D01*
X120168507Y-86864860D01*
X120300706Y-86885797D01*
X120425098Y-86905500D01*
X120425103Y-86905500D01*
X120684902Y-86905500D01*
X120798298Y-86887539D01*
X120941493Y-86864860D01*
X121188572Y-86784579D01*
X121420051Y-86666634D01*
X121630229Y-86513931D01*
X121813931Y-86330229D01*
X121966634Y-86120051D01*
X122084579Y-85888572D01*
X122164860Y-85641493D01*
X122196623Y-85440945D01*
X122205500Y-85384902D01*
X122205500Y-85125097D01*
X122180880Y-84969658D01*
X122164860Y-84868507D01*
X122084579Y-84621428D01*
X122084577Y-84621425D01*
X122084577Y-84621423D01*
X121985365Y-84426711D01*
X121966634Y-84389949D01*
X121813931Y-84179771D01*
X121630229Y-83996069D01*
X121420051Y-83843366D01*
X121347764Y-83806534D01*
X121188576Y-83725422D01*
X120941493Y-83645140D01*
X120684902Y-83604500D01*
X120684897Y-83604500D01*
X120425103Y-83604500D01*
X120425098Y-83604500D01*
X120168506Y-83645140D01*
X119921423Y-83725422D01*
X119689945Y-83843368D01*
X119479774Y-83996066D01*
X119479768Y-83996071D01*
X119296071Y-84179768D01*
X119296066Y-84179774D01*
X119143368Y-84389945D01*
X119025422Y-84621423D01*
X118945140Y-84868506D01*
X118904500Y-85125097D01*
X105185500Y-85125097D01*
X105160880Y-84969658D01*
X105144860Y-84868507D01*
X105064579Y-84621428D01*
X105064577Y-84621425D01*
X105064577Y-84621423D01*
X104965365Y-84426711D01*
X104946634Y-84389949D01*
X104793931Y-84179771D01*
X104610229Y-83996069D01*
X104400051Y-83843366D01*
X104327764Y-83806534D01*
X104168576Y-83725422D01*
X103921493Y-83645140D01*
X103664902Y-83604500D01*
X103664897Y-83604500D01*
X103405103Y-83604500D01*
X103405098Y-83604500D01*
X103148506Y-83645140D01*
X102901423Y-83725422D01*
X102669945Y-83843368D01*
X102459774Y-83996066D01*
X102459768Y-83996071D01*
X102276071Y-84179768D01*
X102276066Y-84179774D01*
X102123368Y-84389945D01*
X102005422Y-84621423D01*
X101925140Y-84868506D01*
X101884500Y-85125097D01*
X65500500Y-85125097D01*
X65500500Y-71255552D01*
X81850000Y-71255552D01*
X81850000Y-72300000D01*
X82700000Y-72300000D01*
X82700000Y-72800000D01*
X81850000Y-72800000D01*
X81850000Y-73844447D01*
X81879548Y-74031002D01*
X81937914Y-74210637D01*
X82023670Y-74378940D01*
X82134685Y-74531741D01*
X82134689Y-74531746D01*
X82268253Y-74665310D01*
X82268258Y-74665314D01*
X82421059Y-74776329D01*
X82589362Y-74862085D01*
X82768997Y-74920451D01*
X82800000Y-74925362D01*
X82800000Y-73944975D01*
X82835095Y-73980070D01*
X82914905Y-74026148D01*
X83003922Y-74050000D01*
X83096078Y-74050000D01*
X83185095Y-74026148D01*
X83264905Y-73980070D01*
X83300000Y-73944975D01*
X83300000Y-74925361D01*
X83331002Y-74920451D01*
X83510637Y-74862085D01*
X83678940Y-74776329D01*
X83831741Y-74665314D01*
X83831746Y-74665310D01*
X83965310Y-74531746D01*
X83965314Y-74531741D01*
X84076329Y-74378940D01*
X84162085Y-74210637D01*
X84220451Y-74031002D01*
X84250000Y-73844447D01*
X84250000Y-72800000D01*
X83400000Y-72800000D01*
X83400000Y-72300000D01*
X84250000Y-72300000D01*
X84250000Y-71295513D01*
X85249500Y-71295513D01*
X85249500Y-73884486D01*
X85279059Y-74071118D01*
X85337454Y-74250836D01*
X85423240Y-74419199D01*
X85534310Y-74572073D01*
X85667927Y-74705690D01*
X85820801Y-74816760D01*
X85861280Y-74837385D01*
X85989163Y-74902545D01*
X85989165Y-74902545D01*
X85989168Y-74902547D01*
X86059382Y-74925361D01*
X86168878Y-74960939D01*
X86168879Y-74960939D01*
X86168882Y-74960940D01*
X86177278Y-74962269D01*
X86240413Y-74992196D01*
X86277346Y-75051506D01*
X86276352Y-75121368D01*
X86237744Y-75179603D01*
X86196204Y-75202673D01*
X86089167Y-75237452D01*
X85920800Y-75323240D01*
X85833579Y-75386610D01*
X85767927Y-75434310D01*
X85767925Y-75434312D01*
X85767924Y-75434312D01*
X85634312Y-75567924D01*
X85634312Y-75567925D01*
X85634310Y-75567927D01*
X85601893Y-75612545D01*
X85523240Y-75720800D01*
X85437454Y-75889163D01*
X85379059Y-76068881D01*
X85349500Y-76255513D01*
X85349500Y-78844486D01*
X85379059Y-79031118D01*
X85437454Y-79210836D01*
X85512940Y-79358984D01*
X85523240Y-79379199D01*
X85634310Y-79532073D01*
X85767927Y-79665690D01*
X85920801Y-79776760D01*
X86000347Y-79817290D01*
X86089163Y-79862545D01*
X86089165Y-79862545D01*
X86089168Y-79862547D01*
X86185497Y-79893846D01*
X86268881Y-79920940D01*
X86455514Y-79950500D01*
X86455519Y-79950500D01*
X86644486Y-79950500D01*
X86831118Y-79920940D01*
X87010832Y-79862547D01*
X87179199Y-79776760D01*
X87332073Y-79665690D01*
X87465690Y-79532073D01*
X87576760Y-79379199D01*
X87662547Y-79210832D01*
X87720940Y-79031118D01*
X87724852Y-79006418D01*
X87750500Y-78844486D01*
X87750500Y-76255513D01*
X90299500Y-76255513D01*
X90299500Y-78844486D01*
X90329059Y-79031118D01*
X90387454Y-79210836D01*
X90462940Y-79358984D01*
X90473240Y-79379199D01*
X90584310Y-79532073D01*
X90717927Y-79665690D01*
X90870801Y-79776760D01*
X90950347Y-79817290D01*
X91039163Y-79862545D01*
X91039165Y-79862545D01*
X91039168Y-79862547D01*
X91135497Y-79893846D01*
X91218881Y-79920940D01*
X91405514Y-79950500D01*
X91405519Y-79950500D01*
X91594486Y-79950500D01*
X91781118Y-79920940D01*
X91960832Y-79862547D01*
X92129199Y-79776760D01*
X92282073Y-79665690D01*
X92415690Y-79532073D01*
X92526760Y-79379199D01*
X92612547Y-79210832D01*
X92670940Y-79031118D01*
X92674852Y-79006418D01*
X92700500Y-78844486D01*
X92700500Y-76255513D01*
X92670940Y-76068881D01*
X92612545Y-75889163D01*
X92526759Y-75720800D01*
X92515051Y-75704685D01*
X92415690Y-75567927D01*
X92282073Y-75434310D01*
X92129199Y-75323240D01*
X92111027Y-75313981D01*
X91960836Y-75237454D01*
X91781118Y-75179059D01*
X91594486Y-75149500D01*
X91594481Y-75149500D01*
X91405519Y-75149500D01*
X91405514Y-75149500D01*
X91218881Y-75179059D01*
X91039163Y-75237454D01*
X90870800Y-75323240D01*
X90783579Y-75386610D01*
X90717927Y-75434310D01*
X90717925Y-75434312D01*
X90717924Y-75434312D01*
X90584312Y-75567924D01*
X90584312Y-75567925D01*
X90584310Y-75567927D01*
X90551893Y-75612545D01*
X90473240Y-75720800D01*
X90387454Y-75889163D01*
X90329059Y-76068881D01*
X90299500Y-76255513D01*
X87750500Y-76255513D01*
X87720940Y-76068881D01*
X87662545Y-75889163D01*
X87576759Y-75720800D01*
X87565051Y-75704685D01*
X87465690Y-75567927D01*
X87332073Y-75434310D01*
X87179199Y-75323240D01*
X87161027Y-75313981D01*
X87010836Y-75237454D01*
X86831120Y-75179060D01*
X86822715Y-75177729D01*
X86759581Y-75147798D01*
X86722650Y-75088486D01*
X86723650Y-75018623D01*
X86762261Y-74960392D01*
X86803794Y-74937325D01*
X86910832Y-74902547D01*
X87079199Y-74816760D01*
X87232073Y-74705690D01*
X87365690Y-74572073D01*
X87476760Y-74419199D01*
X87562547Y-74250832D01*
X87620940Y-74071118D01*
X87627294Y-74031002D01*
X87650500Y-73884486D01*
X87650500Y-71295514D01*
X87646466Y-71270046D01*
X87646466Y-71270045D01*
X87644164Y-71255513D01*
X93849500Y-71255513D01*
X93849500Y-73844486D01*
X93879059Y-74031118D01*
X93937454Y-74210836D01*
X94023108Y-74378940D01*
X94023240Y-74379199D01*
X94134310Y-74532073D01*
X94267927Y-74665690D01*
X94420801Y-74776760D01*
X94482722Y-74808310D01*
X94589163Y-74862545D01*
X94589165Y-74862545D01*
X94589168Y-74862547D01*
X94661355Y-74886002D01*
X94768881Y-74920940D01*
X94955514Y-74950500D01*
X94955519Y-74950500D01*
X95144486Y-74950500D01*
X95331118Y-74920940D01*
X95387725Y-74902547D01*
X95510832Y-74862547D01*
X95679199Y-74776760D01*
X95832073Y-74665690D01*
X95965690Y-74532073D01*
X96076760Y-74379199D01*
X96162547Y-74210832D01*
X96220940Y-74031118D01*
X96230779Y-73968996D01*
X96250500Y-73844486D01*
X96250500Y-71255513D01*
X96220940Y-71068881D01*
X96175542Y-70929163D01*
X96162547Y-70889168D01*
X96162545Y-70889165D01*
X96162545Y-70889163D01*
X96086235Y-70739397D01*
X96076760Y-70720801D01*
X95965690Y-70567927D01*
X95832073Y-70434310D01*
X95679199Y-70323240D01*
X95657404Y-70312135D01*
X95510836Y-70237454D01*
X95331118Y-70179059D01*
X95144486Y-70149500D01*
X95144481Y-70149500D01*
X94955519Y-70149500D01*
X94955514Y-70149500D01*
X94768881Y-70179059D01*
X94589163Y-70237454D01*
X94420800Y-70323240D01*
X94365746Y-70363240D01*
X94267927Y-70434310D01*
X94267925Y-70434312D01*
X94267924Y-70434312D01*
X94134312Y-70567924D01*
X94134312Y-70567925D01*
X94134310Y-70567927D01*
X94105250Y-70607925D01*
X94023240Y-70720800D01*
X93937454Y-70889163D01*
X93879059Y-71068881D01*
X93849500Y-71255513D01*
X87644164Y-71255513D01*
X87620940Y-71108881D01*
X87593846Y-71025497D01*
X87562547Y-70929168D01*
X87562545Y-70929165D01*
X87562545Y-70929163D01*
X87494461Y-70795542D01*
X87476760Y-70760801D01*
X87365690Y-70607927D01*
X87232073Y-70474310D01*
X87079199Y-70363240D01*
X86910836Y-70277454D01*
X86731118Y-70219059D01*
X86598816Y-70198105D01*
X86598810Y-70198104D01*
X86544481Y-70189500D01*
X86355519Y-70189500D01*
X86355514Y-70189500D01*
X86168881Y-70219059D01*
X85989163Y-70277454D01*
X85820800Y-70363240D01*
X85757563Y-70409185D01*
X85667927Y-70474310D01*
X85667925Y-70474312D01*
X85667924Y-70474312D01*
X85534312Y-70607924D01*
X85534312Y-70607925D01*
X85534310Y-70607927D01*
X85496434Y-70660059D01*
X85423240Y-70760800D01*
X85337454Y-70929163D01*
X85279059Y-71108881D01*
X85249500Y-71295513D01*
X84250000Y-71295513D01*
X84250000Y-71255552D01*
X84220451Y-71068997D01*
X84162085Y-70889362D01*
X84076329Y-70721059D01*
X83965314Y-70568258D01*
X83965310Y-70568253D01*
X83831746Y-70434689D01*
X83831741Y-70434685D01*
X83678940Y-70323670D01*
X83510635Y-70237913D01*
X83331004Y-70179549D01*
X83330995Y-70179547D01*
X83300000Y-70174637D01*
X83300000Y-71155025D01*
X83264905Y-71119930D01*
X83185095Y-71073852D01*
X83096078Y-71050000D01*
X83003922Y-71050000D01*
X82914905Y-71073852D01*
X82835095Y-71119930D01*
X82800000Y-71155025D01*
X82800000Y-70174637D01*
X82799999Y-70174637D01*
X82769004Y-70179547D01*
X82768995Y-70179549D01*
X82589364Y-70237913D01*
X82421059Y-70323670D01*
X82268258Y-70434685D01*
X82268253Y-70434689D01*
X82134689Y-70568253D01*
X82134685Y-70568258D01*
X82023670Y-70721059D01*
X81937914Y-70889362D01*
X81879548Y-71068997D01*
X81850000Y-71255552D01*
X65500500Y-71255552D01*
X65500500Y-66255513D01*
X85349500Y-66255513D01*
X85349500Y-68844486D01*
X85379059Y-69031118D01*
X85437454Y-69210836D01*
X85520331Y-69373489D01*
X85523240Y-69379199D01*
X85634310Y-69532073D01*
X85767927Y-69665690D01*
X85920801Y-69776760D01*
X85959549Y-69796503D01*
X86089163Y-69862545D01*
X86089165Y-69862545D01*
X86089168Y-69862547D01*
X86162029Y-69886221D01*
X86268881Y-69920940D01*
X86339445Y-69932116D01*
X86455519Y-69950500D01*
X86613569Y-69950500D01*
X86644486Y-69950500D01*
X86831118Y-69920940D01*
X87010832Y-69862547D01*
X87179199Y-69776760D01*
X87332073Y-69665690D01*
X87465690Y-69532073D01*
X87576760Y-69379199D01*
X87662547Y-69210832D01*
X87720940Y-69031118D01*
X87740678Y-68906498D01*
X87750500Y-68844486D01*
X87750500Y-66255513D01*
X90349500Y-66255513D01*
X90349500Y-68844486D01*
X90379059Y-69031118D01*
X90437454Y-69210836D01*
X90520331Y-69373489D01*
X90523240Y-69379199D01*
X90634310Y-69532073D01*
X90767927Y-69665690D01*
X90920801Y-69776760D01*
X90959549Y-69796503D01*
X91089163Y-69862545D01*
X91089165Y-69862545D01*
X91089168Y-69862547D01*
X91162029Y-69886221D01*
X91268881Y-69920940D01*
X91455514Y-69950500D01*
X91455519Y-69950500D01*
X91644486Y-69950500D01*
X91831118Y-69920940D01*
X92010832Y-69862547D01*
X92179199Y-69776760D01*
X92332073Y-69665690D01*
X92465690Y-69532073D01*
X92576760Y-69379199D01*
X92662547Y-69210832D01*
X92720940Y-69031118D01*
X92740678Y-68906498D01*
X92750500Y-68844486D01*
X92750500Y-66255513D01*
X92720940Y-66068881D01*
X92662545Y-65889163D01*
X92576759Y-65720800D01*
X92465690Y-65567927D01*
X92332073Y-65434310D01*
X92179199Y-65323240D01*
X92010836Y-65237454D01*
X91831118Y-65179059D01*
X91644486Y-65149500D01*
X91644481Y-65149500D01*
X91455519Y-65149500D01*
X91455514Y-65149500D01*
X91268881Y-65179059D01*
X91089163Y-65237454D01*
X90920800Y-65323240D01*
X90833579Y-65386610D01*
X90767927Y-65434310D01*
X90767925Y-65434312D01*
X90767924Y-65434312D01*
X90634312Y-65567924D01*
X90634312Y-65567925D01*
X90634310Y-65567927D01*
X90605196Y-65607999D01*
X90523240Y-65720800D01*
X90437454Y-65889163D01*
X90379059Y-66068881D01*
X90349500Y-66255513D01*
X87750500Y-66255513D01*
X87720940Y-66068881D01*
X87662545Y-65889163D01*
X87576759Y-65720800D01*
X87465690Y-65567927D01*
X87332073Y-65434310D01*
X87179199Y-65323240D01*
X87010836Y-65237454D01*
X86831118Y-65179059D01*
X86644486Y-65149500D01*
X86644481Y-65149500D01*
X86455519Y-65149500D01*
X86455514Y-65149500D01*
X86268881Y-65179059D01*
X86089163Y-65237454D01*
X85920800Y-65323240D01*
X85833579Y-65386610D01*
X85767927Y-65434310D01*
X85767925Y-65434312D01*
X85767924Y-65434312D01*
X85634312Y-65567924D01*
X85634312Y-65567925D01*
X85634310Y-65567927D01*
X85605196Y-65607999D01*
X85523240Y-65720800D01*
X85437454Y-65889163D01*
X85379059Y-66068881D01*
X85349500Y-66255513D01*
X65500500Y-66255513D01*
X65500500Y-46393713D01*
X68649500Y-46393713D01*
X68649500Y-46606286D01*
X68667640Y-46720821D01*
X68682754Y-46816243D01*
X68742730Y-47000830D01*
X68748444Y-47018414D01*
X68844951Y-47207820D01*
X68969890Y-47379786D01*
X69120213Y-47530109D01*
X69292179Y-47655048D01*
X69292181Y-47655049D01*
X69292184Y-47655051D01*
X69481588Y-47751557D01*
X69683757Y-47817246D01*
X69893713Y-47850500D01*
X69893714Y-47850500D01*
X70106286Y-47850500D01*
X70106287Y-47850500D01*
X70316243Y-47817246D01*
X70518412Y-47751557D01*
X70707816Y-47655051D01*
X70736510Y-47634204D01*
X70879786Y-47530109D01*
X70879788Y-47530106D01*
X70879792Y-47530104D01*
X71030104Y-47379792D01*
X71030106Y-47379788D01*
X71030109Y-47379786D01*
X71155048Y-47207820D01*
X71155047Y-47207820D01*
X71155051Y-47207816D01*
X71251557Y-47018412D01*
X71317246Y-46816243D01*
X71350500Y-46606287D01*
X71350500Y-46393713D01*
X71317246Y-46183757D01*
X71251557Y-45981588D01*
X71155051Y-45792184D01*
X71155049Y-45792181D01*
X71155048Y-45792179D01*
X71030109Y-45620213D01*
X70879786Y-45469890D01*
X70707820Y-45344951D01*
X70518414Y-45248444D01*
X70518413Y-45248443D01*
X70518412Y-45248443D01*
X70316243Y-45182754D01*
X70316241Y-45182753D01*
X70316240Y-45182753D01*
X70154957Y-45157208D01*
X70106287Y-45149500D01*
X69893713Y-45149500D01*
X69845042Y-45157208D01*
X69683760Y-45182753D01*
X69481585Y-45248444D01*
X69292179Y-45344951D01*
X69120213Y-45469890D01*
X68969890Y-45620213D01*
X68844951Y-45792179D01*
X68748444Y-45981585D01*
X68682753Y-46183760D01*
X68649500Y-46393713D01*
X65500500Y-46393713D01*
X65500500Y-37605513D01*
X81719500Y-37605513D01*
X81719500Y-40494486D01*
X81749059Y-40681118D01*
X81807454Y-40860836D01*
X81893240Y-41029199D01*
X82004310Y-41182073D01*
X82137927Y-41315690D01*
X82268386Y-41410474D01*
X82311051Y-41465803D01*
X82319500Y-41510791D01*
X82319500Y-46003330D01*
X82319499Y-46003348D01*
X82319499Y-46169054D01*
X82319498Y-46169054D01*
X82319499Y-46169057D01*
X82360423Y-46321785D01*
X82360424Y-46321787D01*
X82360423Y-46321787D01*
X82365318Y-46330264D01*
X82365319Y-46330265D01*
X82439477Y-46458712D01*
X82439481Y-46458717D01*
X82558349Y-46577585D01*
X82558354Y-46577589D01*
X116141284Y-80160520D01*
X116141286Y-80160521D01*
X116141290Y-80160524D01*
X116241858Y-80218586D01*
X116278216Y-80239577D01*
X116430943Y-80280501D01*
X116430945Y-80280501D01*
X116596654Y-80280501D01*
X116596670Y-80280500D01*
X122879481Y-80280500D01*
X122893929Y-80284742D01*
X122908971Y-80284058D01*
X122926773Y-80294386D01*
X122946520Y-80300185D01*
X122956379Y-80311563D01*
X122969406Y-80319121D01*
X122978799Y-80337437D01*
X122992275Y-80352989D01*
X122994417Y-80367891D01*
X123001290Y-80381292D01*
X122999289Y-80401775D01*
X123002219Y-80422147D01*
X122995853Y-80436967D01*
X122994500Y-80450831D01*
X122981369Y-80470691D01*
X122976788Y-80481359D01*
X122972293Y-80487049D01*
X122925886Y-80533457D01*
X122875077Y-80609499D01*
X122872347Y-80613583D01*
X122872334Y-80613601D01*
X122849226Y-80648186D01*
X122849222Y-80648193D01*
X122796421Y-80775667D01*
X122796418Y-80775677D01*
X122769500Y-80911004D01*
X122769500Y-91453080D01*
X122749815Y-91520119D01*
X122733181Y-91540761D01*
X121232112Y-93041829D01*
X121191884Y-93068709D01*
X121047523Y-93128504D01*
X121047514Y-93128509D01*
X120916411Y-93216110D01*
X120916407Y-93216113D01*
X120804913Y-93327607D01*
X120804910Y-93327611D01*
X120717309Y-93458714D01*
X120717302Y-93458727D01*
X120656964Y-93604398D01*
X120656961Y-93604410D01*
X120626200Y-93759053D01*
X120626200Y-93916746D01*
X120656961Y-94071389D01*
X120656964Y-94071401D01*
X120701138Y-94178048D01*
X120708607Y-94247518D01*
X120677331Y-94309997D01*
X120617242Y-94345648D01*
X120586577Y-94349500D01*
X119980098Y-94349500D01*
X119913059Y-94329815D01*
X119892417Y-94313181D01*
X116866819Y-91287583D01*
X116833334Y-91226260D01*
X116830500Y-91199902D01*
X116830500Y-89769765D01*
X116850185Y-89702726D01*
X116851398Y-89700874D01*
X116939390Y-89569185D01*
X116939390Y-89569184D01*
X116939394Y-89569179D01*
X116999737Y-89423497D01*
X117030500Y-89268842D01*
X117030500Y-89174616D01*
X118299500Y-89174616D01*
X118299500Y-89375383D01*
X118330907Y-89573680D01*
X118392949Y-89764626D01*
X118449188Y-89875000D01*
X118484095Y-89943508D01*
X118602103Y-90105932D01*
X118744068Y-90247897D01*
X118906492Y-90365905D01*
X118989724Y-90408314D01*
X119085373Y-90457050D01*
X119085375Y-90457050D01*
X119085378Y-90457052D01*
X119276320Y-90519093D01*
X119474616Y-90550500D01*
X119474617Y-90550500D01*
X119675383Y-90550500D01*
X119675384Y-90550500D01*
X119873680Y-90519093D01*
X120064622Y-90457052D01*
X120243508Y-90365905D01*
X120405932Y-90247897D01*
X120547897Y-90105932D01*
X120665905Y-89943508D01*
X120757052Y-89764622D01*
X120819093Y-89573680D01*
X120850500Y-89375384D01*
X120850500Y-89174616D01*
X120819093Y-88976320D01*
X120757052Y-88785378D01*
X120757050Y-88785375D01*
X120757050Y-88785373D01*
X120703210Y-88679707D01*
X120665905Y-88606492D01*
X120547897Y-88444068D01*
X120405932Y-88302103D01*
X120243508Y-88184095D01*
X120064626Y-88092949D01*
X119873680Y-88030907D01*
X119675384Y-87999500D01*
X119474616Y-87999500D01*
X119375468Y-88015203D01*
X119276319Y-88030907D01*
X119085373Y-88092949D01*
X118906491Y-88184095D01*
X118813822Y-88251423D01*
X118744068Y-88302103D01*
X118744066Y-88302105D01*
X118744065Y-88302105D01*
X118602105Y-88444065D01*
X118602105Y-88444066D01*
X118602103Y-88444068D01*
X118551423Y-88513822D01*
X118484095Y-88606491D01*
X118392949Y-88785373D01*
X118330907Y-88976319D01*
X118299500Y-89174616D01*
X117030500Y-89174616D01*
X117030500Y-89111158D01*
X117030500Y-89111155D01*
X117030499Y-89111153D01*
X117022854Y-89072721D01*
X116999737Y-88956503D01*
X116999735Y-88956498D01*
X116939397Y-88810827D01*
X116939390Y-88810814D01*
X116851789Y-88679711D01*
X116851786Y-88679707D01*
X116740292Y-88568213D01*
X116740288Y-88568210D01*
X116609185Y-88480609D01*
X116609172Y-88480602D01*
X116463501Y-88420264D01*
X116463489Y-88420261D01*
X116308845Y-88389500D01*
X116308842Y-88389500D01*
X116151158Y-88389500D01*
X116151155Y-88389500D01*
X115996510Y-88420261D01*
X115996498Y-88420264D01*
X115850827Y-88480602D01*
X115850814Y-88480609D01*
X115719711Y-88568210D01*
X115719707Y-88568213D01*
X115608213Y-88679707D01*
X115608210Y-88679711D01*
X115520609Y-88810814D01*
X115520602Y-88810827D01*
X115460264Y-88956498D01*
X115460261Y-88956510D01*
X115429500Y-89111153D01*
X115429500Y-89268846D01*
X115460261Y-89423489D01*
X115460264Y-89423501D01*
X115520602Y-89569172D01*
X115520609Y-89569185D01*
X115608602Y-89700874D01*
X115629480Y-89767551D01*
X115629500Y-89769765D01*
X115629500Y-91413330D01*
X115629499Y-91413348D01*
X115629499Y-91579054D01*
X115629498Y-91579054D01*
X115670423Y-91731787D01*
X115670425Y-91731790D01*
X115693227Y-91771283D01*
X115693228Y-91771285D01*
X115749475Y-91868709D01*
X115749481Y-91868717D01*
X115868349Y-91987585D01*
X115868354Y-91987589D01*
X119311284Y-95430520D01*
X119448215Y-95509577D01*
X119600943Y-95550501D01*
X119600946Y-95550501D01*
X119766654Y-95550501D01*
X119766670Y-95550500D01*
X121930943Y-95550500D01*
X132381843Y-95550500D01*
X132448882Y-95570185D01*
X132494637Y-95622989D01*
X132504581Y-95692147D01*
X132475556Y-95755703D01*
X132429295Y-95789061D01*
X132308195Y-95839221D01*
X132308182Y-95839228D01*
X132193458Y-95915885D01*
X132193454Y-95915888D01*
X132095888Y-96013454D01*
X132095885Y-96013458D01*
X132019228Y-96128182D01*
X132019221Y-96128195D01*
X131966420Y-96255669D01*
X131964650Y-96261506D01*
X131963236Y-96261077D01*
X131934248Y-96316488D01*
X131932702Y-96318061D01*
X131052286Y-97198478D01*
X130940481Y-97310282D01*
X130940479Y-97310285D01*
X130903506Y-97374326D01*
X130903505Y-97374328D01*
X130861423Y-97447214D01*
X130854973Y-97471286D01*
X130820499Y-97599943D01*
X130820499Y-97599945D01*
X130820499Y-97768046D01*
X130820500Y-97768059D01*
X130820500Y-100022098D01*
X130800815Y-100089137D01*
X130748011Y-100134892D01*
X130678853Y-100144836D01*
X130649048Y-100136659D01*
X130624332Y-100126421D01*
X130624322Y-100126418D01*
X130488995Y-100099500D01*
X130488993Y-100099500D01*
X130351007Y-100099500D01*
X130351005Y-100099500D01*
X130215677Y-100126418D01*
X130215667Y-100126421D01*
X130088195Y-100179221D01*
X130088182Y-100179228D01*
X129973458Y-100255885D01*
X129973454Y-100255888D01*
X129875888Y-100353454D01*
X129875885Y-100353458D01*
X129799228Y-100468182D01*
X129799221Y-100468195D01*
X129746421Y-100595667D01*
X129746418Y-100595677D01*
X129719500Y-100731004D01*
X129719500Y-100731007D01*
X129719500Y-100868993D01*
X129719500Y-100868995D01*
X129719499Y-100868995D01*
X129746418Y-101004322D01*
X129746420Y-101004328D01*
X129800061Y-101133829D01*
X129809500Y-101181282D01*
X129809500Y-102032091D01*
X129789815Y-102099130D01*
X129773181Y-102119772D01*
X129540442Y-102352510D01*
X129500215Y-102379390D01*
X129428187Y-102409225D01*
X129428186Y-102409226D01*
X129313462Y-102485882D01*
X129313454Y-102485888D01*
X129215888Y-102583454D01*
X129215885Y-102583458D01*
X129139228Y-102698182D01*
X129139221Y-102698195D01*
X129086421Y-102825667D01*
X129086418Y-102825677D01*
X129059500Y-102961004D01*
X129059500Y-102961007D01*
X129059500Y-103098993D01*
X129059500Y-103098995D01*
X129059499Y-103098995D01*
X129086418Y-103234322D01*
X129086421Y-103234332D01*
X129139221Y-103361804D01*
X129139228Y-103361817D01*
X129215885Y-103476541D01*
X129215888Y-103476545D01*
X129313454Y-103574111D01*
X129313458Y-103574114D01*
X129428182Y-103650771D01*
X129428195Y-103650778D01*
X129555544Y-103703527D01*
X129555672Y-103703580D01*
X129555676Y-103703580D01*
X129555677Y-103703581D01*
X129691004Y-103730500D01*
X129691007Y-103730500D01*
X129828995Y-103730500D01*
X129894443Y-103717481D01*
X129957686Y-103704901D01*
X130027277Y-103711128D01*
X130029211Y-103711908D01*
X130105672Y-103743580D01*
X130105676Y-103743580D01*
X130105677Y-103743581D01*
X130241004Y-103770500D01*
X130241007Y-103770500D01*
X130378995Y-103770500D01*
X130470041Y-103752389D01*
X130514328Y-103743580D01*
X130590673Y-103711957D01*
X130647440Y-103688444D01*
X130648352Y-103690647D01*
X130706419Y-103678542D01*
X130771669Y-103703527D01*
X130813054Y-103759822D01*
X130820500Y-103802145D01*
X130820500Y-108490481D01*
X130800815Y-108557520D01*
X130748011Y-108603275D01*
X130678853Y-108613219D01*
X130615297Y-108584194D01*
X130608819Y-108578162D01*
X130566545Y-108535888D01*
X130566541Y-108535885D01*
X130451817Y-108459228D01*
X130451804Y-108459221D01*
X130324332Y-108406421D01*
X130324322Y-108406418D01*
X130188995Y-108379500D01*
X130188993Y-108379500D01*
X130051007Y-108379500D01*
X130051005Y-108379500D01*
X129915677Y-108406418D01*
X129915667Y-108406421D01*
X129788190Y-108459223D01*
X129782819Y-108462095D01*
X129782123Y-108460794D01*
X129722438Y-108479480D01*
X129720230Y-108479500D01*
X126320097Y-108479500D01*
X126253058Y-108459815D01*
X126232416Y-108443181D01*
X119260388Y-101471153D01*
X120899500Y-101471153D01*
X120899500Y-101628846D01*
X120930261Y-101783489D01*
X120930264Y-101783501D01*
X120990602Y-101929172D01*
X120990609Y-101929185D01*
X121078210Y-102060288D01*
X121078213Y-102060292D01*
X121189707Y-102171786D01*
X121189711Y-102171789D01*
X121320814Y-102259390D01*
X121320827Y-102259397D01*
X121466498Y-102319735D01*
X121466503Y-102319737D01*
X121621153Y-102350499D01*
X121621156Y-102350500D01*
X121621158Y-102350500D01*
X121778844Y-102350500D01*
X121778845Y-102350499D01*
X121933497Y-102319737D01*
X122079179Y-102259394D01*
X122079185Y-102259390D01*
X122210875Y-102171398D01*
X122277553Y-102150520D01*
X122279766Y-102150500D01*
X123563331Y-102150500D01*
X123563347Y-102150501D01*
X123570943Y-102150501D01*
X123729054Y-102150501D01*
X123729057Y-102150501D01*
X123881785Y-102109577D01*
X123949468Y-102070500D01*
X124018716Y-102030520D01*
X124130520Y-101918716D01*
X124130520Y-101918714D01*
X124140724Y-101908511D01*
X124140727Y-101908506D01*
X127572416Y-98476819D01*
X127599343Y-98462115D01*
X127625162Y-98445523D01*
X127631362Y-98444631D01*
X127633739Y-98443334D01*
X127660097Y-98440500D01*
X127670234Y-98440500D01*
X127737273Y-98460185D01*
X127739125Y-98461398D01*
X127870814Y-98549390D01*
X127870827Y-98549397D01*
X127990564Y-98598993D01*
X128016503Y-98609737D01*
X128171153Y-98640499D01*
X128171156Y-98640500D01*
X128171158Y-98640500D01*
X128328844Y-98640500D01*
X128328845Y-98640499D01*
X128483497Y-98609737D01*
X128629179Y-98549394D01*
X128760289Y-98461789D01*
X128871789Y-98350289D01*
X128959394Y-98219179D01*
X129019737Y-98073497D01*
X129050500Y-97918842D01*
X129050500Y-97761158D01*
X129050500Y-97761155D01*
X129050499Y-97761153D01*
X129041185Y-97714328D01*
X129019737Y-97606503D01*
X129000318Y-97559621D01*
X128959397Y-97460827D01*
X128959390Y-97460814D01*
X128871789Y-97329711D01*
X128871786Y-97329707D01*
X128760292Y-97218213D01*
X128760288Y-97218210D01*
X128629185Y-97130609D01*
X128629172Y-97130602D01*
X128483501Y-97070264D01*
X128483489Y-97070261D01*
X128328845Y-97039500D01*
X128328842Y-97039500D01*
X128171158Y-97039500D01*
X128171155Y-97039500D01*
X128016510Y-97070261D01*
X128016498Y-97070264D01*
X127870827Y-97130602D01*
X127870814Y-97130609D01*
X127739125Y-97218602D01*
X127672447Y-97239480D01*
X127670234Y-97239500D01*
X127280942Y-97239500D01*
X127128214Y-97280423D01*
X127117619Y-97286541D01*
X127117617Y-97286542D01*
X126991287Y-97359477D01*
X126991282Y-97359481D01*
X126879478Y-97471286D01*
X123437584Y-100913181D01*
X123376261Y-100946666D01*
X123349903Y-100949500D01*
X122279766Y-100949500D01*
X122212727Y-100929815D01*
X122210875Y-100928602D01*
X122079185Y-100840609D01*
X122079172Y-100840602D01*
X121933501Y-100780264D01*
X121933489Y-100780261D01*
X121778845Y-100749500D01*
X121778842Y-100749500D01*
X121621158Y-100749500D01*
X121621155Y-100749500D01*
X121466510Y-100780261D01*
X121466498Y-100780264D01*
X121320827Y-100840602D01*
X121320814Y-100840609D01*
X121189711Y-100928210D01*
X121189707Y-100928213D01*
X121078213Y-101039707D01*
X121078210Y-101039711D01*
X120990609Y-101170814D01*
X120990602Y-101170827D01*
X120930264Y-101316498D01*
X120930261Y-101316510D01*
X120899500Y-101471153D01*
X119260388Y-101471153D01*
X117037590Y-99248355D01*
X117037588Y-99248352D01*
X116918717Y-99129481D01*
X116918716Y-99129480D01*
X116831904Y-99079360D01*
X116831904Y-99079359D01*
X116831900Y-99079358D01*
X116781785Y-99050423D01*
X116629057Y-99009499D01*
X116470943Y-99009499D01*
X116463347Y-99009499D01*
X116463331Y-99009500D01*
X106050097Y-99009500D01*
X105983058Y-98989815D01*
X105962416Y-98973181D01*
X98987297Y-91998062D01*
X98956263Y-91941227D01*
X98955349Y-91941505D01*
X98954017Y-91937114D01*
X98953812Y-91936739D01*
X98953612Y-91935779D01*
X98953581Y-91935677D01*
X98953580Y-91935672D01*
X98928072Y-91874091D01*
X98900778Y-91808195D01*
X98900771Y-91808182D01*
X98824114Y-91693458D01*
X98824111Y-91693454D01*
X98726545Y-91595888D01*
X98726541Y-91595885D01*
X98611817Y-91519228D01*
X98611804Y-91519221D01*
X98484332Y-91466421D01*
X98484322Y-91466418D01*
X98348995Y-91439500D01*
X98348993Y-91439500D01*
X98211007Y-91439500D01*
X98211005Y-91439500D01*
X98075677Y-91466418D01*
X98075667Y-91466421D01*
X97948195Y-91519221D01*
X97948182Y-91519228D01*
X97833458Y-91595885D01*
X97833454Y-91595888D01*
X97735888Y-91693454D01*
X97735885Y-91693458D01*
X97659228Y-91808182D01*
X97659221Y-91808195D01*
X97606421Y-91935667D01*
X97606418Y-91935677D01*
X97579500Y-92071004D01*
X97579500Y-92071007D01*
X97579500Y-92208993D01*
X97579500Y-92208995D01*
X97579499Y-92208995D01*
X97606418Y-92344322D01*
X97606421Y-92344332D01*
X97659221Y-92471804D01*
X97659228Y-92471817D01*
X97735885Y-92586541D01*
X97735888Y-92586545D01*
X97833454Y-92684111D01*
X97833458Y-92684114D01*
X97948182Y-92760771D01*
X97948195Y-92760778D01*
X98024678Y-92792458D01*
X98075672Y-92813580D01*
X98075679Y-92813581D01*
X98081505Y-92815349D01*
X98081075Y-92816765D01*
X98136474Y-92845737D01*
X98138062Y-92847297D01*
X105265139Y-99974374D01*
X105265149Y-99974385D01*
X105269479Y-99978715D01*
X105269480Y-99978716D01*
X105381284Y-100090520D01*
X105466121Y-100139500D01*
X105518215Y-100169577D01*
X105670942Y-100210500D01*
X105670943Y-100210500D01*
X116249903Y-100210500D01*
X116316942Y-100230185D01*
X116337584Y-100246819D01*
X125535139Y-109444374D01*
X125535149Y-109444385D01*
X125539479Y-109448715D01*
X125539480Y-109448716D01*
X125651284Y-109560520D01*
X125651286Y-109560521D01*
X125651290Y-109560524D01*
X125761428Y-109624111D01*
X125788216Y-109639577D01*
X125900019Y-109669534D01*
X125940942Y-109680500D01*
X125940943Y-109680500D01*
X129720230Y-109680500D01*
X129782369Y-109698746D01*
X129782819Y-109697905D01*
X129786859Y-109700064D01*
X129787269Y-109700185D01*
X129788087Y-109700721D01*
X129788190Y-109700776D01*
X129915667Y-109753578D01*
X129915672Y-109753580D01*
X129915676Y-109753580D01*
X129915677Y-109753581D01*
X130051004Y-109780500D01*
X130051007Y-109780500D01*
X130188995Y-109780500D01*
X130280041Y-109762389D01*
X130324328Y-109753580D01*
X130451811Y-109700775D01*
X130566542Y-109624114D01*
X130566545Y-109624111D01*
X130608819Y-109581838D01*
X130670142Y-109548353D01*
X130739834Y-109553337D01*
X130795767Y-109595209D01*
X130820184Y-109660673D01*
X130820500Y-109669519D01*
X130820500Y-110824330D01*
X130820499Y-110824348D01*
X130820499Y-110990054D01*
X130820498Y-110990054D01*
X130861423Y-111142785D01*
X130877436Y-111170520D01*
X130877435Y-111170520D01*
X130877436Y-111170521D01*
X130940475Y-111279709D01*
X130940481Y-111279717D01*
X131059349Y-111398585D01*
X131059355Y-111398590D01*
X132402702Y-112741938D01*
X132433735Y-112798771D01*
X132434650Y-112798494D01*
X132435982Y-112802887D01*
X132436187Y-112803261D01*
X132436386Y-112804215D01*
X132436420Y-112804330D01*
X132489221Y-112931804D01*
X132489228Y-112931817D01*
X132565885Y-113046541D01*
X132565888Y-113046545D01*
X132663454Y-113144111D01*
X132663458Y-113144114D01*
X132778182Y-113220771D01*
X132778195Y-113220778D01*
X132905667Y-113273578D01*
X132905672Y-113273580D01*
X132905676Y-113273580D01*
X132905677Y-113273581D01*
X133041004Y-113300500D01*
X133041007Y-113300500D01*
X133178995Y-113300500D01*
X133270041Y-113282389D01*
X133314328Y-113273580D01*
X133441811Y-113220775D01*
X133556542Y-113144114D01*
X133654114Y-113046542D01*
X133730775Y-112931811D01*
X133783580Y-112804328D01*
X133807563Y-112683760D01*
X133810500Y-112668995D01*
X133810500Y-112644500D01*
X133830185Y-112577461D01*
X133882989Y-112531706D01*
X133934500Y-112520500D01*
X133948995Y-112520500D01*
X134042968Y-112501807D01*
X134084328Y-112493580D01*
X134211811Y-112440775D01*
X134326542Y-112364114D01*
X134424114Y-112266542D01*
X134500775Y-112151811D01*
X134553580Y-112024328D01*
X134564407Y-111969896D01*
X134580500Y-111888995D01*
X134580500Y-111879921D01*
X134600185Y-111812882D01*
X134652989Y-111767127D01*
X134680309Y-111758304D01*
X134717552Y-111750895D01*
X134754328Y-111743580D01*
X134881811Y-111690775D01*
X134996542Y-111614114D01*
X135094114Y-111516542D01*
X135170775Y-111401811D01*
X135174340Y-111393202D01*
X135218176Y-111338800D01*
X135284469Y-111316731D01*
X135313093Y-111319035D01*
X135421002Y-111340499D01*
X135421005Y-111340500D01*
X135421007Y-111340500D01*
X135558995Y-111340500D01*
X135666904Y-111319035D01*
X135694328Y-111313580D01*
X135821811Y-111260775D01*
X135888660Y-111216108D01*
X135955337Y-111195230D01*
X136022717Y-111213714D01*
X136026442Y-111216108D01*
X136138182Y-111290771D01*
X136138195Y-111290778D01*
X136234765Y-111330778D01*
X136265672Y-111343580D01*
X136265676Y-111343580D01*
X136265677Y-111343581D01*
X136401004Y-111370500D01*
X136401007Y-111370500D01*
X136538995Y-111370500D01*
X136630041Y-111352389D01*
X136674328Y-111343580D01*
X136801811Y-111290775D01*
X136873559Y-111242834D01*
X136940235Y-111221957D01*
X137007615Y-111240441D01*
X137011334Y-111242831D01*
X137038189Y-111260775D01*
X137038190Y-111260775D01*
X137038191Y-111260776D01*
X137110623Y-111290778D01*
X137165672Y-111313580D01*
X137165676Y-111313580D01*
X137165677Y-111313581D01*
X137301004Y-111340500D01*
X137301007Y-111340500D01*
X137438995Y-111340500D01*
X137546904Y-111319035D01*
X137574328Y-111313580D01*
X137701811Y-111260775D01*
X137816542Y-111184114D01*
X137858226Y-111142430D01*
X137919549Y-111108944D01*
X137989240Y-111113928D01*
X138040999Y-111152673D01*
X138042022Y-111151834D01*
X138045888Y-111156545D01*
X138143454Y-111254111D01*
X138143458Y-111254114D01*
X138258182Y-111330771D01*
X138258195Y-111330778D01*
X138354094Y-111370500D01*
X138385672Y-111383580D01*
X138385676Y-111383580D01*
X138385677Y-111383581D01*
X138521004Y-111410500D01*
X138521007Y-111410500D01*
X138658995Y-111410500D01*
X138759539Y-111390500D01*
X138794328Y-111383580D01*
X138921811Y-111330775D01*
X139036542Y-111254114D01*
X139134114Y-111156542D01*
X139148579Y-111134892D01*
X139202189Y-111090089D01*
X139271514Y-111081380D01*
X139334542Y-111111534D01*
X139354777Y-111134884D01*
X139355882Y-111136537D01*
X139355888Y-111136545D01*
X139453454Y-111234111D01*
X139453458Y-111234114D01*
X139568182Y-111310771D01*
X139568195Y-111310778D01*
X139695667Y-111363578D01*
X139695672Y-111363580D01*
X139695676Y-111363580D01*
X139695677Y-111363581D01*
X139831004Y-111390500D01*
X139831007Y-111390500D01*
X139968995Y-111390500D01*
X140069539Y-111370500D01*
X140104328Y-111363580D01*
X140231811Y-111310775D01*
X140231816Y-111310771D01*
X140231819Y-111310770D01*
X140278304Y-111279709D01*
X140344003Y-111235810D01*
X140410678Y-111214932D01*
X140478059Y-111233416D01*
X140500574Y-111251231D01*
X140503454Y-111254111D01*
X140503458Y-111254114D01*
X140618182Y-111330771D01*
X140618195Y-111330778D01*
X140714094Y-111370500D01*
X140745672Y-111383580D01*
X140745676Y-111383580D01*
X140745677Y-111383581D01*
X140881004Y-111410500D01*
X140881007Y-111410500D01*
X141018995Y-111410500D01*
X141119539Y-111390500D01*
X141154328Y-111383580D01*
X141281811Y-111330775D01*
X141396542Y-111254114D01*
X141417318Y-111233337D01*
X141478636Y-111199853D01*
X141548328Y-111204835D01*
X141592680Y-111233337D01*
X141663454Y-111304111D01*
X141663458Y-111304114D01*
X141778182Y-111380771D01*
X141778195Y-111380778D01*
X141905667Y-111433578D01*
X141905672Y-111433580D01*
X141905676Y-111433580D01*
X141905677Y-111433581D01*
X142041004Y-111460500D01*
X142041007Y-111460500D01*
X142178995Y-111460500D01*
X142270041Y-111442389D01*
X142314328Y-111433580D01*
X142418333Y-111390500D01*
X142441804Y-111380778D01*
X142441804Y-111380777D01*
X142441811Y-111380775D01*
X142556542Y-111304114D01*
X142654114Y-111206542D01*
X142730775Y-111091811D01*
X142732958Y-111086542D01*
X142761138Y-111018508D01*
X142783580Y-110964328D01*
X142793525Y-110914330D01*
X142810500Y-110828995D01*
X142810500Y-110691004D01*
X142783581Y-110555677D01*
X142783580Y-110555676D01*
X142783580Y-110555672D01*
X142742951Y-110457584D01*
X142730778Y-110428195D01*
X142730771Y-110428182D01*
X142654114Y-110313458D01*
X142654111Y-110313454D01*
X142556545Y-110215888D01*
X142556541Y-110215885D01*
X142441817Y-110139228D01*
X142441804Y-110139221D01*
X142314330Y-110086420D01*
X142308494Y-110084650D01*
X142308921Y-110083239D01*
X142253502Y-110054240D01*
X142251936Y-110052701D01*
X138606819Y-106407584D01*
X138573334Y-106346261D01*
X138570500Y-106319903D01*
X138570500Y-100899059D01*
X138570501Y-100899046D01*
X138570501Y-100730945D01*
X138570501Y-100730943D01*
X138529577Y-100578215D01*
X138486486Y-100503580D01*
X138450520Y-100441284D01*
X138338716Y-100329480D01*
X138338715Y-100329479D01*
X138334385Y-100325149D01*
X138334374Y-100325139D01*
X134707297Y-96698062D01*
X134676263Y-96641227D01*
X134675349Y-96641505D01*
X134674017Y-96637114D01*
X134673812Y-96636739D01*
X134673612Y-96635779D01*
X134673580Y-96635673D01*
X134673580Y-96635672D01*
X134646170Y-96569499D01*
X134620778Y-96508195D01*
X134620771Y-96508182D01*
X134544114Y-96393458D01*
X134544111Y-96393454D01*
X134446545Y-96295888D01*
X134446541Y-96295885D01*
X134331817Y-96219228D01*
X134331804Y-96219221D01*
X134204332Y-96166421D01*
X134204322Y-96166418D01*
X134068995Y-96139500D01*
X134068993Y-96139500D01*
X133931007Y-96139500D01*
X133931005Y-96139500D01*
X133795677Y-96166418D01*
X133795667Y-96166421D01*
X133668195Y-96219221D01*
X133668182Y-96219228D01*
X133553458Y-96295885D01*
X133524089Y-96325254D01*
X133462765Y-96358738D01*
X133393074Y-96353752D01*
X133337141Y-96311880D01*
X133314792Y-96261763D01*
X133313581Y-96255677D01*
X133313580Y-96255676D01*
X133313580Y-96255672D01*
X133313578Y-96255667D01*
X133260778Y-96128195D01*
X133260771Y-96128182D01*
X133184114Y-96013458D01*
X133184111Y-96013454D01*
X133086545Y-95915888D01*
X133086541Y-95915885D01*
X132971817Y-95839228D01*
X132971804Y-95839221D01*
X132850705Y-95789061D01*
X132796301Y-95745220D01*
X132774236Y-95678926D01*
X132791515Y-95611227D01*
X132842652Y-95563616D01*
X132898157Y-95550500D01*
X133163331Y-95550500D01*
X133163347Y-95550501D01*
X133170943Y-95550501D01*
X133329054Y-95550501D01*
X133329057Y-95550501D01*
X133481785Y-95509577D01*
X133553578Y-95468127D01*
X133618716Y-95430520D01*
X133730520Y-95318716D01*
X133730520Y-95318714D01*
X133740724Y-95308511D01*
X133740727Y-95308506D01*
X136982416Y-92066819D01*
X137043739Y-92033334D01*
X137062800Y-92031284D01*
X137062782Y-92031097D01*
X137068836Y-92030500D01*
X137068842Y-92030500D01*
X137223497Y-91999737D01*
X137369179Y-91939394D01*
X137500289Y-91851789D01*
X137611789Y-91740289D01*
X137699394Y-91609179D01*
X137759737Y-91463497D01*
X137790500Y-91308842D01*
X137790500Y-91151158D01*
X137790500Y-91151155D01*
X137790499Y-91151153D01*
X137759738Y-90996510D01*
X137759737Y-90996503D01*
X137751451Y-90976498D01*
X137699397Y-90850827D01*
X137699390Y-90850814D01*
X137611789Y-90719711D01*
X137611786Y-90719707D01*
X137500292Y-90608213D01*
X137500288Y-90608210D01*
X137369185Y-90520609D01*
X137369172Y-90520602D01*
X137223501Y-90460264D01*
X137223489Y-90460261D01*
X137068845Y-90429500D01*
X137068842Y-90429500D01*
X136911158Y-90429500D01*
X136911155Y-90429500D01*
X136756510Y-90460261D01*
X136756498Y-90460264D01*
X136610827Y-90520602D01*
X136610814Y-90520609D01*
X136479711Y-90608210D01*
X136479707Y-90608213D01*
X136411259Y-90676662D01*
X136349936Y-90710147D01*
X136280244Y-90705163D01*
X136235897Y-90676662D01*
X126556819Y-80997584D01*
X126523334Y-80936261D01*
X126520500Y-80909903D01*
X126520500Y-80179769D01*
X126538746Y-80117627D01*
X126537906Y-80117178D01*
X126540064Y-80113140D01*
X126540185Y-80112730D01*
X126540721Y-80111910D01*
X126540781Y-80111799D01*
X126593578Y-79984332D01*
X126593580Y-79984328D01*
X126617804Y-79862547D01*
X126620500Y-79848995D01*
X126620500Y-79711004D01*
X126593581Y-79575677D01*
X126593580Y-79575676D01*
X126593580Y-79575672D01*
X126569672Y-79517953D01*
X126540778Y-79448195D01*
X126540771Y-79448182D01*
X126464114Y-79333458D01*
X126464111Y-79333454D01*
X126373337Y-79242680D01*
X126339852Y-79181357D01*
X126344836Y-79111665D01*
X126373335Y-79067320D01*
X126569502Y-78871153D01*
X131779500Y-78871153D01*
X131779500Y-79028846D01*
X131810261Y-79183489D01*
X131810264Y-79183501D01*
X131870602Y-79329172D01*
X131870609Y-79329185D01*
X131958210Y-79460288D01*
X131958213Y-79460292D01*
X131995240Y-79497319D01*
X132028725Y-79558642D01*
X132023741Y-79628334D01*
X131995240Y-79672681D01*
X131958213Y-79709707D01*
X131958210Y-79709711D01*
X131870609Y-79840814D01*
X131870602Y-79840827D01*
X131810264Y-79986498D01*
X131810261Y-79986510D01*
X131779500Y-80141153D01*
X131779500Y-80298846D01*
X131810261Y-80453489D01*
X131810264Y-80453501D01*
X131870602Y-80599172D01*
X131870609Y-80599185D01*
X131958210Y-80730288D01*
X131958213Y-80730292D01*
X132069707Y-80841786D01*
X132069711Y-80841789D01*
X132200814Y-80929390D01*
X132200827Y-80929397D01*
X132342816Y-80988210D01*
X132346503Y-80989737D01*
X132411147Y-81002595D01*
X132501849Y-81020638D01*
X132563760Y-81053023D01*
X132565339Y-81054574D01*
X138603181Y-87092416D01*
X138636666Y-87153739D01*
X138639500Y-87180097D01*
X138639500Y-90630234D01*
X138619815Y-90697273D01*
X138618602Y-90699125D01*
X138530609Y-90830814D01*
X138530602Y-90830827D01*
X138470264Y-90976498D01*
X138470261Y-90976510D01*
X138439500Y-91131153D01*
X138439500Y-91288846D01*
X138470261Y-91443489D01*
X138470264Y-91443501D01*
X138530602Y-91589172D01*
X138530609Y-91589185D01*
X138618210Y-91720288D01*
X138618213Y-91720292D01*
X138729707Y-91831786D01*
X138729711Y-91831789D01*
X138860814Y-91919390D01*
X138860827Y-91919397D01*
X138982363Y-91969738D01*
X139006503Y-91979737D01*
X139161153Y-92010499D01*
X139161156Y-92010500D01*
X139161158Y-92010500D01*
X139318844Y-92010500D01*
X139318845Y-92010499D01*
X139473497Y-91979737D01*
X139579623Y-91935778D01*
X139649087Y-91928310D01*
X139674513Y-91935775D01*
X139756503Y-91969737D01*
X139903225Y-91998922D01*
X139911153Y-92000499D01*
X139911156Y-92000500D01*
X139911158Y-92000500D01*
X140068844Y-92000500D01*
X140068845Y-92000499D01*
X140223497Y-91969737D01*
X140355836Y-91914920D01*
X140425304Y-91907452D01*
X140473704Y-91929814D01*
X140474646Y-91928405D01*
X140610814Y-92019390D01*
X140610827Y-92019397D01*
X140753328Y-92078422D01*
X140756503Y-92079737D01*
X140911153Y-92110499D01*
X140911156Y-92110500D01*
X140911158Y-92110500D01*
X141068844Y-92110500D01*
X141068845Y-92110499D01*
X141223497Y-92079737D01*
X141345493Y-92029205D01*
X141369172Y-92019397D01*
X141369172Y-92019396D01*
X141369179Y-92019394D01*
X141500289Y-91931789D01*
X141611789Y-91820289D01*
X141699394Y-91689179D01*
X141712244Y-91658154D01*
X141727067Y-91639759D01*
X141738158Y-91618903D01*
X141748582Y-91613059D01*
X141756083Y-91603752D01*
X141778498Y-91596290D01*
X141799106Y-91584740D01*
X141813841Y-91584527D01*
X141822377Y-91581686D01*
X141834280Y-91581833D01*
X141842716Y-91582342D01*
X141871158Y-91588000D01*
X141936393Y-91588000D01*
X141940135Y-91588226D01*
X141969621Y-91598853D01*
X141999699Y-91607685D01*
X142002229Y-91610605D01*
X142005866Y-91611916D01*
X142024933Y-91636807D01*
X142045454Y-91660489D01*
X142047221Y-91664547D01*
X142079223Y-91741808D01*
X142079228Y-91741817D01*
X142155885Y-91856541D01*
X142155888Y-91856545D01*
X142253454Y-91954111D01*
X142253458Y-91954114D01*
X142368182Y-92030771D01*
X142368195Y-92030778D01*
X142495667Y-92083578D01*
X142495672Y-92083580D01*
X142495676Y-92083580D01*
X142495677Y-92083581D01*
X142631004Y-92110500D01*
X142631007Y-92110500D01*
X142768995Y-92110500D01*
X142860041Y-92092389D01*
X142904328Y-92083580D01*
X143025633Y-92033334D01*
X143031809Y-92030776D01*
X143037181Y-92027905D01*
X143037876Y-92029205D01*
X143097562Y-92010520D01*
X143099770Y-92010500D01*
X146503331Y-92010500D01*
X146503347Y-92010501D01*
X146510943Y-92010501D01*
X146669054Y-92010501D01*
X146669057Y-92010501D01*
X146821785Y-91969577D01*
X146887235Y-91931789D01*
X146958716Y-91890520D01*
X147070520Y-91778716D01*
X147070520Y-91778714D01*
X147080724Y-91768511D01*
X147080728Y-91768506D01*
X151328506Y-87520728D01*
X151328511Y-87520724D01*
X151338714Y-87510520D01*
X151338716Y-87510520D01*
X151450520Y-87398716D01*
X151529577Y-87261784D01*
X151566882Y-87122559D01*
X151566883Y-87122557D01*
X151570500Y-87109059D01*
X151570500Y-80789769D01*
X151581697Y-80738276D01*
X151585845Y-80729188D01*
X151590775Y-80721811D01*
X151606078Y-80684865D01*
X151606981Y-80682888D01*
X151628470Y-80658080D01*
X151649061Y-80632527D01*
X151651230Y-80631804D01*
X151652728Y-80630076D01*
X151684221Y-80620823D01*
X151715355Y-80610460D01*
X151717570Y-80611025D01*
X151719764Y-80610381D01*
X151751256Y-80619622D01*
X151783055Y-80627738D01*
X151785570Y-80629692D01*
X151786807Y-80630055D01*
X151788392Y-80631884D01*
X151807465Y-80646700D01*
X156853181Y-85692416D01*
X156886666Y-85753739D01*
X156889500Y-85780097D01*
X156889500Y-92070234D01*
X156869815Y-92137273D01*
X156868602Y-92139125D01*
X156780609Y-92270814D01*
X156780602Y-92270827D01*
X156720264Y-92416498D01*
X156720261Y-92416510D01*
X156689500Y-92571153D01*
X156689500Y-92728846D01*
X156720261Y-92883489D01*
X156720264Y-92883501D01*
X156780602Y-93029172D01*
X156780609Y-93029185D01*
X156868210Y-93160288D01*
X156868213Y-93160292D01*
X156979707Y-93271786D01*
X156979711Y-93271789D01*
X157110814Y-93359390D01*
X157110827Y-93359397D01*
X157256498Y-93419735D01*
X157256503Y-93419737D01*
X157411153Y-93450499D01*
X157411156Y-93450500D01*
X157411158Y-93450500D01*
X157568844Y-93450500D01*
X157568845Y-93450499D01*
X157723497Y-93419737D01*
X157869179Y-93359394D01*
X157901400Y-93337863D01*
X157968077Y-93316985D01*
X158017744Y-93326404D01*
X158146498Y-93379735D01*
X158146503Y-93379737D01*
X158301153Y-93410499D01*
X158301156Y-93410500D01*
X158301158Y-93410500D01*
X158458844Y-93410500D01*
X158458845Y-93410499D01*
X158613497Y-93379737D01*
X158759179Y-93319394D01*
X158890289Y-93231789D01*
X159001789Y-93120289D01*
X159089394Y-92989179D01*
X159149737Y-92843497D01*
X159180500Y-92688842D01*
X159180500Y-92531158D01*
X159180500Y-92531155D01*
X159180499Y-92531153D01*
X159157695Y-92416510D01*
X159149737Y-92376503D01*
X159149735Y-92376498D01*
X159089397Y-92230827D01*
X159089390Y-92230814D01*
X159001398Y-92099125D01*
X158980520Y-92032447D01*
X158980500Y-92030234D01*
X158980500Y-85440945D01*
X158980500Y-85440943D01*
X158939577Y-85288216D01*
X158939577Y-85288215D01*
X158874978Y-85176327D01*
X158860520Y-85151284D01*
X158860518Y-85151282D01*
X158860517Y-85151280D01*
X158744397Y-85035160D01*
X158744374Y-85035139D01*
X155044288Y-81335053D01*
X157528600Y-81335053D01*
X157528600Y-81492746D01*
X157559361Y-81647389D01*
X157559364Y-81647401D01*
X157619702Y-81793072D01*
X157619709Y-81793085D01*
X157707310Y-81924188D01*
X157707313Y-81924192D01*
X157818807Y-82035686D01*
X157818811Y-82035689D01*
X157949914Y-82123290D01*
X157949927Y-82123297D01*
X158095598Y-82183635D01*
X158095603Y-82183637D01*
X158250253Y-82214399D01*
X158250256Y-82214400D01*
X158250258Y-82214400D01*
X158407944Y-82214400D01*
X158407945Y-82214399D01*
X158562597Y-82183637D01*
X158708279Y-82123294D01*
X158839389Y-82035689D01*
X158950889Y-81924189D01*
X159038494Y-81793079D01*
X159098293Y-81648709D01*
X159125170Y-81608484D01*
X160400037Y-80333619D01*
X160461360Y-80300134D01*
X160487718Y-80297300D01*
X164215384Y-80297300D01*
X164262836Y-80306739D01*
X164347699Y-80341890D01*
X164407203Y-80366537D01*
X164561179Y-80397165D01*
X164561853Y-80397299D01*
X164561856Y-80397300D01*
X164561858Y-80397300D01*
X164719544Y-80397300D01*
X164719545Y-80397299D01*
X164874197Y-80366537D01*
X165019879Y-80306194D01*
X165150989Y-80218589D01*
X165262489Y-80107089D01*
X165350094Y-79975979D01*
X165410437Y-79830297D01*
X165441200Y-79675642D01*
X165441200Y-79517958D01*
X165441200Y-79517955D01*
X165441199Y-79517953D01*
X165429729Y-79460289D01*
X165410437Y-79363303D01*
X165396305Y-79329185D01*
X165350097Y-79217627D01*
X165350090Y-79217614D01*
X165262489Y-79086511D01*
X165262486Y-79086507D01*
X165150992Y-78975013D01*
X165150988Y-78975010D01*
X165019885Y-78887409D01*
X165019872Y-78887402D01*
X164874201Y-78827064D01*
X164874189Y-78827061D01*
X164719545Y-78796300D01*
X164719542Y-78796300D01*
X164561858Y-78796300D01*
X164561855Y-78796300D01*
X164407210Y-78827061D01*
X164407198Y-78827064D01*
X164262836Y-78886861D01*
X164215384Y-78896300D01*
X160077203Y-78896300D01*
X159968790Y-78917865D01*
X159968789Y-78917865D01*
X159955331Y-78920542D01*
X159941873Y-78923219D01*
X159915468Y-78934156D01*
X159889066Y-78945092D01*
X159889064Y-78945093D01*
X159889063Y-78945092D01*
X159814391Y-78976023D01*
X159736834Y-79027846D01*
X159735022Y-79029057D01*
X159726239Y-79034925D01*
X159699654Y-79052688D01*
X158134514Y-80617828D01*
X158094286Y-80644708D01*
X157949923Y-80704504D01*
X157949914Y-80704509D01*
X157818811Y-80792110D01*
X157818807Y-80792113D01*
X157707313Y-80903607D01*
X157707310Y-80903611D01*
X157619709Y-81034714D01*
X157619702Y-81034727D01*
X157559364Y-81180398D01*
X157559361Y-81180410D01*
X157528600Y-81335053D01*
X155044288Y-81335053D01*
X151345493Y-77636258D01*
X151312008Y-77574935D01*
X151316992Y-77505243D01*
X151358864Y-77449310D01*
X151366810Y-77444255D01*
X151366746Y-77444160D01*
X151451882Y-77387273D01*
X151476007Y-77371153D01*
X154949500Y-77371153D01*
X154949500Y-77528846D01*
X154980261Y-77683489D01*
X154980264Y-77683501D01*
X155040602Y-77829172D01*
X155040609Y-77829185D01*
X155128210Y-77960288D01*
X155128213Y-77960292D01*
X155239707Y-78071786D01*
X155239711Y-78071789D01*
X155370814Y-78159390D01*
X155370827Y-78159397D01*
X155516498Y-78219735D01*
X155516503Y-78219737D01*
X155671153Y-78250499D01*
X155671156Y-78250500D01*
X155671158Y-78250500D01*
X155828844Y-78250500D01*
X155828845Y-78250499D01*
X155983497Y-78219737D01*
X156129179Y-78159394D01*
X156260289Y-78071789D01*
X156371789Y-77960289D01*
X156459394Y-77829179D01*
X156480987Y-77777047D01*
X156524827Y-77722644D01*
X156591121Y-77700579D01*
X156595548Y-77700500D01*
X161170234Y-77700500D01*
X161237273Y-77720185D01*
X161239125Y-77721398D01*
X161370814Y-77809390D01*
X161370827Y-77809397D01*
X161516498Y-77869735D01*
X161516503Y-77869737D01*
X161671153Y-77900499D01*
X161671156Y-77900500D01*
X161671158Y-77900500D01*
X161828844Y-77900500D01*
X161828845Y-77900499D01*
X161983497Y-77869737D01*
X162129179Y-77809394D01*
X162260289Y-77721789D01*
X162371789Y-77610289D01*
X162459394Y-77479179D01*
X162519737Y-77333497D01*
X162550500Y-77178842D01*
X162550500Y-77021158D01*
X162550500Y-77021155D01*
X162531977Y-76928037D01*
X162538204Y-76858445D01*
X162565913Y-76816164D01*
X162571789Y-76810289D01*
X162659394Y-76679179D01*
X162719737Y-76533497D01*
X162727254Y-76495709D01*
X162759639Y-76433798D01*
X162820354Y-76399224D01*
X162848871Y-76395900D01*
X162881244Y-76395900D01*
X162881245Y-76395899D01*
X163035897Y-76365137D01*
X163181579Y-76304794D01*
X163312689Y-76217189D01*
X163424189Y-76105689D01*
X163448783Y-76068882D01*
X163453175Y-76062309D01*
X163459266Y-76057218D01*
X163462564Y-76049997D01*
X163485691Y-76035133D01*
X163506787Y-76017504D01*
X163516161Y-76015552D01*
X163521342Y-76012223D01*
X163556277Y-76007200D01*
X163655519Y-76007200D01*
X163722558Y-76026885D01*
X163768313Y-76079689D01*
X163775292Y-76099102D01*
X163778937Y-76112702D01*
X163798387Y-76185292D01*
X163798388Y-76185293D01*
X163844526Y-76265205D01*
X163844529Y-76265209D01*
X163844531Y-76265212D01*
X163909788Y-76330469D01*
X163909791Y-76330470D01*
X163909794Y-76330473D01*
X163989706Y-76376611D01*
X163989707Y-76376611D01*
X163989712Y-76376614D01*
X164078856Y-76400500D01*
X164078858Y-76400500D01*
X164171142Y-76400500D01*
X164171144Y-76400500D01*
X164260288Y-76376614D01*
X164328483Y-76337240D01*
X164340145Y-76334411D01*
X164349924Y-76327448D01*
X164373468Y-76326326D01*
X164396378Y-76320768D01*
X164409467Y-76324611D01*
X164419714Y-76324123D01*
X164452476Y-76337238D01*
X164524909Y-76379057D01*
X164580715Y-76411277D01*
X164733443Y-76452201D01*
X164733446Y-76452201D01*
X164899153Y-76452201D01*
X164899169Y-76452200D01*
X165475500Y-76452200D01*
X165542539Y-76471885D01*
X165588294Y-76524689D01*
X165599500Y-76576200D01*
X165599500Y-77320234D01*
X165579815Y-77387273D01*
X165578602Y-77389125D01*
X165490609Y-77520814D01*
X165490602Y-77520827D01*
X165430264Y-77666498D01*
X165430261Y-77666510D01*
X165399500Y-77821153D01*
X165399500Y-77978846D01*
X165430261Y-78133489D01*
X165430264Y-78133501D01*
X165490602Y-78279172D01*
X165490609Y-78279185D01*
X165578210Y-78410288D01*
X165578213Y-78410292D01*
X165689707Y-78521786D01*
X165689711Y-78521789D01*
X165820814Y-78609390D01*
X165820827Y-78609397D01*
X165966498Y-78669735D01*
X165966503Y-78669737D01*
X166101255Y-78696541D01*
X166121153Y-78700499D01*
X166121156Y-78700500D01*
X166121158Y-78700500D01*
X166278844Y-78700500D01*
X166278845Y-78700499D01*
X166433497Y-78669737D01*
X166579179Y-78609394D01*
X166710289Y-78521789D01*
X166821789Y-78410289D01*
X166909394Y-78279179D01*
X166969737Y-78133497D01*
X167000500Y-77978842D01*
X167000500Y-77821158D01*
X167000500Y-77821155D01*
X167000499Y-77821153D01*
X166980734Y-77721789D01*
X166969737Y-77666503D01*
X166954296Y-77629225D01*
X166909397Y-77520827D01*
X166909390Y-77520814D01*
X166821398Y-77389125D01*
X166800520Y-77322447D01*
X166800500Y-77320234D01*
X166800500Y-75612545D01*
X166809939Y-75565092D01*
X166843737Y-75483497D01*
X166874500Y-75328842D01*
X166874500Y-75171158D01*
X166874500Y-75171155D01*
X166874499Y-75171153D01*
X166857383Y-75085107D01*
X166843737Y-75016503D01*
X166810941Y-74937325D01*
X166783397Y-74870827D01*
X166783390Y-74870814D01*
X166695789Y-74739711D01*
X166695786Y-74739707D01*
X166584292Y-74628213D01*
X166584288Y-74628210D01*
X166453185Y-74540609D01*
X166453172Y-74540602D01*
X166307501Y-74480264D01*
X166307489Y-74480261D01*
X166152845Y-74449500D01*
X166152842Y-74449500D01*
X165995158Y-74449500D01*
X165995157Y-74449500D01*
X165989095Y-74450097D01*
X165988881Y-74447925D01*
X165929066Y-74442555D01*
X165873901Y-74399676D01*
X165850676Y-74333780D01*
X165850500Y-74327179D01*
X165850500Y-73620945D01*
X165850500Y-73620943D01*
X165809577Y-73468216D01*
X165752580Y-73369493D01*
X165730524Y-73331290D01*
X165730521Y-73331286D01*
X165730520Y-73331284D01*
X165618716Y-73219480D01*
X165618715Y-73219479D01*
X165614385Y-73215149D01*
X165614374Y-73215139D01*
X164284574Y-71885339D01*
X164251089Y-71824016D01*
X164250638Y-71821849D01*
X164229250Y-71714328D01*
X164219737Y-71666503D01*
X164194679Y-71606006D01*
X164159397Y-71520827D01*
X164159390Y-71520814D01*
X164071789Y-71389711D01*
X164071786Y-71389707D01*
X163960292Y-71278213D01*
X163960288Y-71278210D01*
X163829185Y-71190609D01*
X163829172Y-71190602D01*
X163683501Y-71130264D01*
X163683489Y-71130261D01*
X163528845Y-71099500D01*
X163528842Y-71099500D01*
X163371158Y-71099500D01*
X163371155Y-71099500D01*
X163216510Y-71130261D01*
X163216498Y-71130264D01*
X163070827Y-71190602D01*
X163070814Y-71190609D01*
X162939711Y-71278210D01*
X162939707Y-71278213D01*
X162828213Y-71389707D01*
X162828210Y-71389711D01*
X162740609Y-71520814D01*
X162740602Y-71520827D01*
X162680264Y-71666498D01*
X162680261Y-71666510D01*
X162649500Y-71821153D01*
X162649500Y-71978846D01*
X162680261Y-72133489D01*
X162680264Y-72133501D01*
X162740602Y-72279172D01*
X162740609Y-72279185D01*
X162828210Y-72410288D01*
X162828213Y-72410292D01*
X162939707Y-72521786D01*
X162939711Y-72521789D01*
X163070814Y-72609390D01*
X163070827Y-72609397D01*
X163216498Y-72669735D01*
X163216503Y-72669737D01*
X163281147Y-72682595D01*
X163371849Y-72700638D01*
X163433760Y-72733023D01*
X163435339Y-72734574D01*
X164613181Y-73912416D01*
X164646666Y-73973739D01*
X164649500Y-74000097D01*
X164649500Y-74670235D01*
X164644171Y-74688382D01*
X164643833Y-74707294D01*
X164630335Y-74735502D01*
X164629815Y-74737274D01*
X164628599Y-74739131D01*
X164612309Y-74763508D01*
X164558694Y-74808310D01*
X164489369Y-74817014D01*
X164477119Y-74814388D01*
X164446557Y-74806199D01*
X164288443Y-74806199D01*
X164280847Y-74806199D01*
X164280831Y-74806200D01*
X162950263Y-74806200D01*
X162926071Y-74803817D01*
X162881244Y-74794900D01*
X162881242Y-74794900D01*
X162723558Y-74794900D01*
X162723555Y-74794900D01*
X162568910Y-74825661D01*
X162568898Y-74825664D01*
X162423227Y-74886002D01*
X162423214Y-74886009D01*
X162292111Y-74973610D01*
X162292107Y-74973613D01*
X162180613Y-75085107D01*
X162180610Y-75085111D01*
X162093009Y-75216214D01*
X162093002Y-75216227D01*
X162032664Y-75361898D01*
X162032661Y-75361910D01*
X162025146Y-75399691D01*
X161992761Y-75461602D01*
X161932046Y-75496176D01*
X161903529Y-75499500D01*
X161871155Y-75499500D01*
X161716510Y-75530261D01*
X161716498Y-75530264D01*
X161570827Y-75590602D01*
X161570814Y-75590609D01*
X161439125Y-75678602D01*
X161372447Y-75699480D01*
X161370234Y-75699500D01*
X157382940Y-75699500D01*
X157315901Y-75679815D01*
X157295258Y-75663180D01*
X157260292Y-75628213D01*
X157260288Y-75628210D01*
X157129185Y-75540609D01*
X157129172Y-75540602D01*
X156983501Y-75480264D01*
X156983489Y-75480261D01*
X156828845Y-75449500D01*
X156828842Y-75449500D01*
X156671158Y-75449500D01*
X156671155Y-75449500D01*
X156516510Y-75480261D01*
X156516498Y-75480264D01*
X156370827Y-75540602D01*
X156370814Y-75540609D01*
X156239711Y-75628210D01*
X156239707Y-75628213D01*
X156128213Y-75739707D01*
X156128210Y-75739711D01*
X156040609Y-75870814D01*
X156040602Y-75870827D01*
X155980264Y-76016498D01*
X155980261Y-76016510D01*
X155949500Y-76171153D01*
X155949500Y-76328846D01*
X155962685Y-76395131D01*
X155956458Y-76464722D01*
X155913595Y-76519900D01*
X155901703Y-76527486D01*
X155888157Y-76535079D01*
X155868216Y-76540423D01*
X155731284Y-76619480D01*
X155723228Y-76627535D01*
X155708291Y-76635909D01*
X155690236Y-76640047D01*
X155673978Y-76648919D01*
X155671848Y-76649362D01*
X155516508Y-76680261D01*
X155516498Y-76680264D01*
X155370827Y-76740602D01*
X155370814Y-76740609D01*
X155239711Y-76828210D01*
X155239707Y-76828213D01*
X155128213Y-76939707D01*
X155128210Y-76939711D01*
X155040609Y-77070814D01*
X155040602Y-77070827D01*
X154980264Y-77216498D01*
X154980261Y-77216510D01*
X154949500Y-77371153D01*
X151476007Y-77371153D01*
X151486542Y-77364114D01*
X151528209Y-77322447D01*
X151573272Y-77277385D01*
X151584111Y-77266545D01*
X151584114Y-77266542D01*
X151660775Y-77151811D01*
X151713580Y-77024328D01*
X151713580Y-77024325D01*
X151715346Y-77018506D01*
X151716760Y-77018934D01*
X151745734Y-76963527D01*
X151747241Y-76961992D01*
X162309234Y-66400000D01*
X167525261Y-66400000D01*
X168633012Y-66400000D01*
X168615795Y-66409940D01*
X168559940Y-66465795D01*
X168520444Y-66534204D01*
X168500000Y-66610504D01*
X168500000Y-66689496D01*
X168520444Y-66765796D01*
X168559940Y-66834205D01*
X168615795Y-66890060D01*
X168633012Y-66900000D01*
X167525261Y-66900000D01*
X167528315Y-66919285D01*
X167528318Y-66919295D01*
X167584250Y-67091441D01*
X167584252Y-67091447D01*
X167666434Y-67252734D01*
X167772823Y-67399169D01*
X167900830Y-67527176D01*
X168047265Y-67633565D01*
X168208552Y-67715747D01*
X168208555Y-67715748D01*
X168380706Y-67771682D01*
X168559494Y-67800000D01*
X169050000Y-67800000D01*
X169050000Y-66950000D01*
X169550000Y-66950000D01*
X169550000Y-67800000D01*
X170040506Y-67800000D01*
X170219293Y-67771682D01*
X170391444Y-67715748D01*
X170391447Y-67715747D01*
X170552734Y-67633565D01*
X170699169Y-67527176D01*
X170827176Y-67399169D01*
X170933565Y-67252734D01*
X171015747Y-67091447D01*
X171015749Y-67091441D01*
X171071681Y-66919295D01*
X171071684Y-66919285D01*
X171074739Y-66900000D01*
X169966988Y-66900000D01*
X169984205Y-66890060D01*
X170040060Y-66834205D01*
X170079556Y-66765796D01*
X170100000Y-66689496D01*
X170100000Y-66610504D01*
X170079556Y-66534204D01*
X170040060Y-66465795D01*
X169984205Y-66409940D01*
X169966988Y-66400000D01*
X171074739Y-66400000D01*
X171071684Y-66380714D01*
X171071681Y-66380704D01*
X171015749Y-66208558D01*
X171015747Y-66208552D01*
X170933565Y-66047265D01*
X170827176Y-65900830D01*
X170699169Y-65772823D01*
X170552734Y-65666434D01*
X170391447Y-65584252D01*
X170391444Y-65584251D01*
X170219293Y-65528317D01*
X170040506Y-65500000D01*
X169550000Y-65500000D01*
X169550000Y-66350000D01*
X169050000Y-66350000D01*
X169050000Y-65500000D01*
X168559494Y-65500000D01*
X168380706Y-65528317D01*
X168208555Y-65584251D01*
X168208552Y-65584252D01*
X168047265Y-65666434D01*
X167900830Y-65772823D01*
X167772823Y-65900830D01*
X167666434Y-66047265D01*
X167584252Y-66208552D01*
X167584250Y-66208558D01*
X167528318Y-66380704D01*
X167528315Y-66380714D01*
X167525261Y-66400000D01*
X162309234Y-66400000D01*
X167708506Y-61000728D01*
X167708511Y-61000724D01*
X167718714Y-60990520D01*
X167718716Y-60990520D01*
X167830520Y-60878716D01*
X167883955Y-60786163D01*
X167909577Y-60741785D01*
X167950500Y-60589058D01*
X167950500Y-60430943D01*
X167950500Y-57669769D01*
X167968746Y-57607627D01*
X167967906Y-57607178D01*
X167970064Y-57603140D01*
X167970185Y-57602730D01*
X167970721Y-57601910D01*
X167970771Y-57601816D01*
X167970775Y-57601811D01*
X168023580Y-57474328D01*
X168041842Y-57382519D01*
X168050500Y-57338995D01*
X168050500Y-57201004D01*
X168023581Y-57065677D01*
X168023580Y-57065676D01*
X168023580Y-57065672D01*
X168023578Y-57065667D01*
X167970778Y-56938195D01*
X167970771Y-56938182D01*
X167894114Y-56823458D01*
X167894111Y-56823454D01*
X167796545Y-56725888D01*
X167796541Y-56725885D01*
X167681817Y-56649228D01*
X167681804Y-56649221D01*
X167554332Y-56596421D01*
X167554322Y-56596418D01*
X167418995Y-56569500D01*
X167418993Y-56569500D01*
X167281007Y-56569500D01*
X167281005Y-56569500D01*
X167145677Y-56596418D01*
X167145667Y-56596421D01*
X167018195Y-56649221D01*
X167018182Y-56649228D01*
X166903458Y-56725885D01*
X166903454Y-56725888D01*
X166805888Y-56823454D01*
X166805885Y-56823458D01*
X166729228Y-56938182D01*
X166729221Y-56938195D01*
X166676421Y-57065667D01*
X166676418Y-57065677D01*
X166649500Y-57201004D01*
X166649500Y-57201007D01*
X166649500Y-57338993D01*
X166649500Y-57338995D01*
X166649499Y-57338995D01*
X166676418Y-57474322D01*
X166676421Y-57474332D01*
X166729222Y-57601806D01*
X166732094Y-57607178D01*
X166730792Y-57607874D01*
X166749480Y-57667554D01*
X166749500Y-57669769D01*
X166749500Y-60209902D01*
X166729815Y-60276941D01*
X166713181Y-60297583D01*
X162536294Y-64474470D01*
X162474971Y-64507955D01*
X162405279Y-64502971D01*
X162349346Y-64461099D01*
X162324929Y-64395635D01*
X162339781Y-64327362D01*
X162343619Y-64320817D01*
X162492991Y-64083092D01*
X162637140Y-63783764D01*
X162746868Y-63470181D01*
X162746872Y-63470169D01*
X162820801Y-63146263D01*
X162820804Y-63146249D01*
X162857999Y-62816124D01*
X162858000Y-62816120D01*
X162858000Y-62483879D01*
X162857999Y-62483875D01*
X162820804Y-62153750D01*
X162820801Y-62153736D01*
X162746872Y-61829830D01*
X162746868Y-61829818D01*
X162637140Y-61516235D01*
X162492991Y-61216907D01*
X162316230Y-60935594D01*
X162161715Y-60741836D01*
X161444259Y-61459292D01*
X161369233Y-61361517D01*
X161188483Y-61180767D01*
X161090705Y-61105739D01*
X161808162Y-60388283D01*
X161614405Y-60233769D01*
X161333092Y-60057008D01*
X161033764Y-59912859D01*
X160720181Y-59803131D01*
X160720169Y-59803127D01*
X160396263Y-59729198D01*
X160396249Y-59729195D01*
X160066124Y-59692000D01*
X159733875Y-59692000D01*
X159403750Y-59729195D01*
X159403736Y-59729198D01*
X159079830Y-59803127D01*
X159079818Y-59803131D01*
X158766235Y-59912859D01*
X158466907Y-60057008D01*
X158185590Y-60233771D01*
X158185586Y-60233774D01*
X157991836Y-60388283D01*
X158709293Y-61105740D01*
X158611517Y-61180767D01*
X158430767Y-61361517D01*
X158355740Y-61459293D01*
X157638283Y-60741836D01*
X157483774Y-60935586D01*
X157483771Y-60935590D01*
X157307008Y-61216907D01*
X157162859Y-61516235D01*
X157053131Y-61829818D01*
X157053127Y-61829830D01*
X156979198Y-62153736D01*
X156979195Y-62153750D01*
X156942000Y-62483875D01*
X156942000Y-62816124D01*
X156979195Y-63146249D01*
X156979198Y-63146263D01*
X157053127Y-63470169D01*
X157053131Y-63470181D01*
X157162859Y-63783764D01*
X157307008Y-64083092D01*
X157483769Y-64364405D01*
X157638283Y-64558162D01*
X158355739Y-63840705D01*
X158430767Y-63938483D01*
X158611517Y-64119233D01*
X158709292Y-64194259D01*
X157991836Y-64911715D01*
X158185594Y-65066230D01*
X158466907Y-65242991D01*
X158766235Y-65387140D01*
X159079818Y-65496868D01*
X159079830Y-65496872D01*
X159403736Y-65570801D01*
X159403750Y-65570804D01*
X159733875Y-65607999D01*
X159733879Y-65608000D01*
X160066121Y-65608000D01*
X160066124Y-65607999D01*
X160396249Y-65570804D01*
X160396263Y-65570801D01*
X160720169Y-65496872D01*
X160720181Y-65496868D01*
X161033764Y-65387140D01*
X161333092Y-65242991D01*
X161570817Y-65093619D01*
X161638054Y-65074619D01*
X161704889Y-65094987D01*
X161750103Y-65148255D01*
X161759340Y-65217511D01*
X161729669Y-65280767D01*
X161724470Y-65286294D01*
X150898061Y-76112702D01*
X150841228Y-76143735D01*
X150841506Y-76144650D01*
X150837110Y-76145983D01*
X150836738Y-76146187D01*
X150835787Y-76146385D01*
X150835669Y-76146420D01*
X150708195Y-76199221D01*
X150708182Y-76199228D01*
X150593458Y-76275885D01*
X150593454Y-76275888D01*
X150495888Y-76373454D01*
X150495885Y-76373458D01*
X150415840Y-76493254D01*
X150414092Y-76492086D01*
X150371817Y-76535123D01*
X150303679Y-76550583D01*
X150237999Y-76526751D01*
X150223741Y-76514506D01*
X142834574Y-69125339D01*
X142801089Y-69064016D01*
X142800638Y-69061849D01*
X142769738Y-68906510D01*
X142769737Y-68906503D01*
X142744047Y-68844481D01*
X142709397Y-68760827D01*
X142709390Y-68760814D01*
X142621789Y-68629711D01*
X142621786Y-68629707D01*
X142510292Y-68518213D01*
X142510288Y-68518210D01*
X142379185Y-68430609D01*
X142379172Y-68430602D01*
X142233501Y-68370264D01*
X142233489Y-68370261D01*
X142078845Y-68339500D01*
X142078842Y-68339500D01*
X141921158Y-68339500D01*
X141921155Y-68339500D01*
X141766510Y-68370261D01*
X141766498Y-68370264D01*
X141620827Y-68430602D01*
X141620814Y-68430609D01*
X141489711Y-68518210D01*
X141489707Y-68518213D01*
X141378213Y-68629707D01*
X141378210Y-68629711D01*
X141290609Y-68760814D01*
X141290602Y-68760827D01*
X141230264Y-68906498D01*
X141230261Y-68906510D01*
X141199500Y-69061153D01*
X141199500Y-69218846D01*
X141230261Y-69373489D01*
X141230264Y-69373501D01*
X141290604Y-69519177D01*
X141290605Y-69519179D01*
X141312137Y-69551404D01*
X141333014Y-69618081D01*
X141323595Y-69667745D01*
X141270264Y-69796498D01*
X141270261Y-69796510D01*
X141239500Y-69951153D01*
X141239500Y-70108846D01*
X141270261Y-70263489D01*
X141270264Y-70263501D01*
X141330602Y-70409172D01*
X141330609Y-70409185D01*
X141418210Y-70540288D01*
X141418213Y-70540292D01*
X141529707Y-70651786D01*
X141529711Y-70651789D01*
X141660814Y-70739390D01*
X141660827Y-70739397D01*
X141712502Y-70760801D01*
X141806503Y-70799737D01*
X141871147Y-70812595D01*
X141961849Y-70830638D01*
X142023760Y-70863023D01*
X142025339Y-70864574D01*
X150713299Y-79552534D01*
X150746784Y-79613857D01*
X150741800Y-79683549D01*
X150699928Y-79739482D01*
X150673071Y-79754776D01*
X150638192Y-79769223D01*
X150638182Y-79769228D01*
X150523458Y-79845885D01*
X150523454Y-79845888D01*
X150425888Y-79943454D01*
X150425885Y-79943458D01*
X150349228Y-80058182D01*
X150349221Y-80058195D01*
X150296421Y-80185667D01*
X150296418Y-80185677D01*
X150269500Y-80321004D01*
X150269500Y-80321007D01*
X150269500Y-80458993D01*
X150269500Y-80458995D01*
X150269499Y-80458995D01*
X150296418Y-80594322D01*
X150296421Y-80594332D01*
X150349222Y-80721806D01*
X150352094Y-80727178D01*
X150350792Y-80727874D01*
X150369480Y-80787554D01*
X150369500Y-80789769D01*
X150369500Y-83958527D01*
X150349815Y-84025566D01*
X150297011Y-84071321D01*
X150227853Y-84081265D01*
X150221310Y-84080145D01*
X150158742Y-84067700D01*
X150001058Y-84067700D01*
X150001055Y-84067700D01*
X149846410Y-84098461D01*
X149846398Y-84098464D01*
X149700727Y-84158802D01*
X149700714Y-84158809D01*
X149569025Y-84246802D01*
X149550978Y-84252452D01*
X149535069Y-84262677D01*
X149504107Y-84267128D01*
X149502347Y-84267680D01*
X149500134Y-84267700D01*
X149397170Y-84267700D01*
X149397154Y-84267699D01*
X149389558Y-84267699D01*
X149320286Y-84267699D01*
X149296095Y-84265316D01*
X149268711Y-84259869D01*
X149209044Y-84248000D01*
X149209042Y-84248000D01*
X149051358Y-84248000D01*
X149051355Y-84248000D01*
X148896710Y-84278761D01*
X148896698Y-84278764D01*
X148751027Y-84339102D01*
X148751014Y-84339109D01*
X148619911Y-84426710D01*
X148619907Y-84426713D01*
X148508413Y-84538207D01*
X148508410Y-84538211D01*
X148420809Y-84669314D01*
X148420802Y-84669327D01*
X148360464Y-84814998D01*
X148360461Y-84815010D01*
X148329700Y-84969653D01*
X148329700Y-85127346D01*
X148360461Y-85281989D01*
X148360464Y-85282001D01*
X148420802Y-85427672D01*
X148420809Y-85427685D01*
X148508410Y-85558788D01*
X148508413Y-85558792D01*
X148619907Y-85670286D01*
X148619911Y-85670289D01*
X148751014Y-85757890D01*
X148751027Y-85757897D01*
X148896698Y-85818235D01*
X148896703Y-85818237D01*
X149051353Y-85848999D01*
X149051356Y-85849000D01*
X149051358Y-85849000D01*
X149209044Y-85849000D01*
X149209045Y-85848999D01*
X149363697Y-85818237D01*
X149509379Y-85757894D01*
X149640489Y-85670289D01*
X149665090Y-85645686D01*
X149726410Y-85612203D01*
X149796102Y-85617186D01*
X149800182Y-85618791D01*
X149846403Y-85637937D01*
X149846407Y-85637937D01*
X149846411Y-85637939D01*
X150001053Y-85668699D01*
X150001056Y-85668700D01*
X150001058Y-85668700D01*
X150158744Y-85668700D01*
X150221308Y-85656255D01*
X150290900Y-85662482D01*
X150346077Y-85705345D01*
X150369322Y-85771234D01*
X150369500Y-85777872D01*
X150369500Y-86729903D01*
X150349815Y-86796942D01*
X150333181Y-86817584D01*
X146377584Y-90773181D01*
X146316261Y-90806666D01*
X146289903Y-90809500D01*
X143099770Y-90809500D01*
X143037630Y-90791253D01*
X143037181Y-90792095D01*
X143033140Y-90789935D01*
X143032731Y-90789815D01*
X143031912Y-90789278D01*
X143031809Y-90789223D01*
X142904332Y-90736421D01*
X142904322Y-90736418D01*
X142831173Y-90721868D01*
X142769262Y-90689483D01*
X142734688Y-90628767D01*
X142733759Y-90624499D01*
X142719737Y-90554003D01*
X142700431Y-90507393D01*
X142659397Y-90408327D01*
X142659390Y-90408314D01*
X142571398Y-90276625D01*
X142550520Y-90209947D01*
X142550500Y-90207734D01*
X142550500Y-83910945D01*
X142550500Y-83910943D01*
X142509577Y-83758216D01*
X142509577Y-83758215D01*
X142509577Y-83758214D01*
X142480639Y-83708095D01*
X142480637Y-83708092D01*
X142430520Y-83621284D01*
X142318716Y-83509480D01*
X142318715Y-83509479D01*
X142314385Y-83505149D01*
X142314374Y-83505139D01*
X140404574Y-81595339D01*
X140371089Y-81534016D01*
X140370638Y-81531849D01*
X140339738Y-81376510D01*
X140339737Y-81376503D01*
X140322568Y-81335053D01*
X140279397Y-81230827D01*
X140279390Y-81230814D01*
X140191789Y-81099711D01*
X140191786Y-81099707D01*
X140080292Y-80988213D01*
X140080288Y-80988210D01*
X139949185Y-80900609D01*
X139949172Y-80900602D01*
X139803501Y-80840264D01*
X139803489Y-80840261D01*
X139648845Y-80809500D01*
X139648842Y-80809500D01*
X139491158Y-80809500D01*
X139491155Y-80809500D01*
X139336510Y-80840261D01*
X139336498Y-80840264D01*
X139190827Y-80900602D01*
X139190814Y-80900609D01*
X139059711Y-80988210D01*
X139059707Y-80988213D01*
X138948213Y-81099707D01*
X138948210Y-81099711D01*
X138860609Y-81230814D01*
X138860602Y-81230827D01*
X138800264Y-81376498D01*
X138800261Y-81376510D01*
X138769500Y-81531153D01*
X138769500Y-81688846D01*
X138790234Y-81793079D01*
X138800263Y-81843497D01*
X138833686Y-81924189D01*
X138856471Y-81979195D01*
X138863940Y-82048665D01*
X138832665Y-82111144D01*
X138795698Y-82136814D01*
X138796191Y-82137736D01*
X138790814Y-82140609D01*
X138659711Y-82228210D01*
X138659707Y-82228213D01*
X138548213Y-82339707D01*
X138548210Y-82339711D01*
X138460609Y-82470814D01*
X138460602Y-82470827D01*
X138400264Y-82616498D01*
X138400261Y-82616510D01*
X138369500Y-82771153D01*
X138369500Y-82928846D01*
X138400261Y-83083489D01*
X138400264Y-83083501D01*
X138460602Y-83229172D01*
X138460609Y-83229185D01*
X138548210Y-83360288D01*
X138548213Y-83360292D01*
X138659707Y-83471786D01*
X138659711Y-83471789D01*
X138790814Y-83559390D01*
X138790827Y-83559397D01*
X138899717Y-83604500D01*
X138936503Y-83619737D01*
X139001147Y-83632595D01*
X139091849Y-83650638D01*
X139153760Y-83683023D01*
X139155339Y-83684574D01*
X140353181Y-84882416D01*
X140386666Y-84943739D01*
X140389500Y-84970097D01*
X140389500Y-85610903D01*
X140369815Y-85677942D01*
X140317011Y-85723697D01*
X140247853Y-85733641D01*
X140184297Y-85704616D01*
X140177819Y-85698584D01*
X133414574Y-78935339D01*
X133381089Y-78874016D01*
X133380638Y-78871849D01*
X133349738Y-78716510D01*
X133349737Y-78716503D01*
X133349735Y-78716498D01*
X133289397Y-78570827D01*
X133289390Y-78570814D01*
X133201789Y-78439711D01*
X133201786Y-78439707D01*
X133090292Y-78328213D01*
X133090288Y-78328210D01*
X132959185Y-78240609D01*
X132959172Y-78240602D01*
X132813501Y-78180264D01*
X132813489Y-78180261D01*
X132658845Y-78149500D01*
X132658842Y-78149500D01*
X132501158Y-78149500D01*
X132501155Y-78149500D01*
X132346510Y-78180261D01*
X132346498Y-78180264D01*
X132200827Y-78240602D01*
X132200814Y-78240609D01*
X132069711Y-78328210D01*
X132069707Y-78328213D01*
X131958213Y-78439707D01*
X131958210Y-78439711D01*
X131870609Y-78570814D01*
X131870602Y-78570827D01*
X131810264Y-78716498D01*
X131810261Y-78716510D01*
X131779500Y-78871153D01*
X126569502Y-78871153D01*
X131094114Y-74346543D01*
X131170775Y-74231811D01*
X131223580Y-74104328D01*
X131248297Y-73980070D01*
X131250500Y-73968996D01*
X131250500Y-72376976D01*
X131270185Y-72309937D01*
X131322989Y-72264182D01*
X131350135Y-72256736D01*
X131349932Y-72255876D01*
X131357479Y-72254092D01*
X131357481Y-72254091D01*
X131357483Y-72254091D01*
X131492331Y-72203796D01*
X131607546Y-72117546D01*
X131693796Y-72002331D01*
X131744091Y-71867483D01*
X131750500Y-71807873D01*
X131750499Y-71670410D01*
X131770183Y-71603374D01*
X131822987Y-71557619D01*
X131892145Y-71547675D01*
X131955701Y-71576699D01*
X131984984Y-71614118D01*
X132023104Y-71688933D01*
X132023240Y-71689199D01*
X132134310Y-71842073D01*
X132267927Y-71975690D01*
X132420801Y-72086760D01*
X132481218Y-72117544D01*
X132589163Y-72172545D01*
X132589165Y-72172545D01*
X132589168Y-72172547D01*
X132684779Y-72203613D01*
X132768881Y-72230940D01*
X132955514Y-72260500D01*
X132955519Y-72260500D01*
X133144486Y-72260500D01*
X133331118Y-72230940D01*
X133510832Y-72172547D01*
X133679199Y-72086760D01*
X133832073Y-71975690D01*
X133962319Y-71845444D01*
X134023642Y-71811959D01*
X134093334Y-71816943D01*
X134137681Y-71845444D01*
X134267927Y-71975690D01*
X134420801Y-72086760D01*
X134481218Y-72117544D01*
X134589163Y-72172545D01*
X134589165Y-72172545D01*
X134589168Y-72172547D01*
X134684779Y-72203613D01*
X134768881Y-72230940D01*
X134955514Y-72260500D01*
X134955519Y-72260500D01*
X135144486Y-72260500D01*
X135331118Y-72230940D01*
X135510832Y-72172547D01*
X135679199Y-72086760D01*
X135832073Y-71975690D01*
X135965690Y-71842073D01*
X136076760Y-71689199D01*
X136162547Y-71520832D01*
X136182332Y-71459938D01*
X136221768Y-71402266D01*
X136286126Y-71375067D01*
X136354973Y-71386981D01*
X136406449Y-71434225D01*
X136418193Y-71459941D01*
X136437914Y-71520637D01*
X136523666Y-71688933D01*
X136542116Y-71714328D01*
X137107861Y-71148584D01*
X137130667Y-71233694D01*
X137189910Y-71336306D01*
X137273694Y-71420090D01*
X137376306Y-71479333D01*
X137461413Y-71502137D01*
X136895669Y-72067882D01*
X136895670Y-72067883D01*
X136902906Y-72073141D01*
X136945571Y-72128471D01*
X136951550Y-72198085D01*
X136918944Y-72259880D01*
X136917701Y-72261140D01*
X136184988Y-72993853D01*
X136184982Y-72993861D01*
X136114398Y-73099498D01*
X136114399Y-73099499D01*
X136108326Y-73108587D01*
X136108323Y-73108592D01*
X136055520Y-73236071D01*
X136055518Y-73236077D01*
X136028600Y-73371404D01*
X136028600Y-76047484D01*
X136019161Y-76094936D01*
X135959364Y-76239298D01*
X135959361Y-76239310D01*
X135928600Y-76393953D01*
X135928600Y-76551646D01*
X135959361Y-76706289D01*
X135959364Y-76706301D01*
X136019702Y-76851972D01*
X136019709Y-76851985D01*
X136107310Y-76983088D01*
X136107313Y-76983092D01*
X136218807Y-77094586D01*
X136218811Y-77094589D01*
X136349914Y-77182190D01*
X136349927Y-77182197D01*
X136495598Y-77242535D01*
X136495603Y-77242537D01*
X136616299Y-77266545D01*
X136650253Y-77273299D01*
X136650256Y-77273300D01*
X136650258Y-77273300D01*
X136807944Y-77273300D01*
X136807945Y-77273299D01*
X136962597Y-77242537D01*
X137108279Y-77182194D01*
X137239389Y-77094589D01*
X137350889Y-76983089D01*
X137438494Y-76851979D01*
X137498837Y-76706297D01*
X137529600Y-76551642D01*
X137529600Y-76393958D01*
X137529600Y-76393955D01*
X137529599Y-76393953D01*
X137516971Y-76330469D01*
X137498837Y-76239303D01*
X137482235Y-76199221D01*
X137439039Y-76094936D01*
X137429600Y-76047484D01*
X137429600Y-73781918D01*
X137449285Y-73714879D01*
X137465914Y-73694242D01*
X138219940Y-72940216D01*
X138281259Y-72906734D01*
X138350950Y-72911718D01*
X138406884Y-72953590D01*
X138431301Y-73019054D01*
X138430556Y-73044085D01*
X138395001Y-73314155D01*
X138395000Y-73314172D01*
X138395000Y-73605827D01*
X138395001Y-73605844D01*
X138433069Y-73895003D01*
X138508562Y-74176744D01*
X138620171Y-74446195D01*
X138620179Y-74446211D01*
X138766006Y-74698788D01*
X138766012Y-74698796D01*
X138879608Y-74846837D01*
X139647912Y-74078532D01*
X139742829Y-74209175D01*
X139870825Y-74337171D01*
X140001465Y-74432086D01*
X139233161Y-75200390D01*
X139381203Y-75313987D01*
X139381211Y-75313993D01*
X139633788Y-75459820D01*
X139633804Y-75459828D01*
X139903255Y-75571437D01*
X140184996Y-75646930D01*
X140474155Y-75684998D01*
X140474173Y-75685000D01*
X140765827Y-75685000D01*
X140765844Y-75684998D01*
X141055003Y-75646930D01*
X141336744Y-75571437D01*
X141606195Y-75459828D01*
X141606211Y-75459820D01*
X141858788Y-75313993D01*
X141858806Y-75313981D01*
X142006837Y-75200391D01*
X142006837Y-75200389D01*
X141238533Y-74432086D01*
X141369175Y-74337171D01*
X141497171Y-74209175D01*
X141592086Y-74078533D01*
X142360389Y-74846837D01*
X142360391Y-74846837D01*
X142473981Y-74698806D01*
X142473993Y-74698788D01*
X142619820Y-74446211D01*
X142619828Y-74446195D01*
X142731437Y-74176744D01*
X142806930Y-73895003D01*
X142844998Y-73605844D01*
X142845000Y-73605827D01*
X142845000Y-73314172D01*
X142844998Y-73314155D01*
X142806930Y-73024996D01*
X142731437Y-72743255D01*
X142619828Y-72473804D01*
X142619820Y-72473788D01*
X142473993Y-72221211D01*
X142473987Y-72221203D01*
X142360390Y-72073161D01*
X141592086Y-72841465D01*
X141497171Y-72710825D01*
X141369175Y-72582829D01*
X141238532Y-72487912D01*
X142006837Y-71719608D01*
X141858796Y-71606012D01*
X141858788Y-71606006D01*
X141606211Y-71460179D01*
X141606195Y-71460171D01*
X141336744Y-71348562D01*
X141055003Y-71273069D01*
X140765844Y-71235001D01*
X140765827Y-71235000D01*
X140474173Y-71235000D01*
X140474155Y-71235001D01*
X140184996Y-71273069D01*
X139903255Y-71348562D01*
X139633804Y-71460171D01*
X139633788Y-71460179D01*
X139540400Y-71514098D01*
X139472500Y-71530571D01*
X139406473Y-71507719D01*
X139363283Y-71452798D01*
X139354400Y-71406711D01*
X139354400Y-49244135D01*
X156941500Y-49244135D01*
X156941500Y-54255870D01*
X156941501Y-54255876D01*
X156947908Y-54315483D01*
X156998202Y-54450328D01*
X156998206Y-54450335D01*
X157084452Y-54565544D01*
X157084455Y-54565547D01*
X157199664Y-54651793D01*
X157199671Y-54651797D01*
X157334517Y-54702091D01*
X157334516Y-54702091D01*
X157341444Y-54702835D01*
X157394127Y-54708500D01*
X162405872Y-54708499D01*
X162465483Y-54702091D01*
X162600331Y-54651796D01*
X162715546Y-54565546D01*
X162801796Y-54450331D01*
X162852091Y-54315483D01*
X162858500Y-54255873D01*
X162858499Y-49244128D01*
X162852091Y-49184517D01*
X162840209Y-49152661D01*
X162801797Y-49049671D01*
X162801793Y-49049664D01*
X162715547Y-48934455D01*
X162715544Y-48934452D01*
X162600335Y-48848206D01*
X162600328Y-48848202D01*
X162465482Y-48797908D01*
X162465483Y-48797908D01*
X162405883Y-48791501D01*
X162405881Y-48791500D01*
X162405873Y-48791500D01*
X162405864Y-48791500D01*
X157394129Y-48791500D01*
X157394123Y-48791501D01*
X157334516Y-48797908D01*
X157199671Y-48848202D01*
X157199664Y-48848206D01*
X157084455Y-48934452D01*
X157084452Y-48934455D01*
X156998206Y-49049664D01*
X156998202Y-49049671D01*
X156947908Y-49184517D01*
X156941501Y-49244116D01*
X156941501Y-49244123D01*
X156941500Y-49244135D01*
X139354400Y-49244135D01*
X139354400Y-47500000D01*
X167525261Y-47500000D01*
X168633012Y-47500000D01*
X168615795Y-47509940D01*
X168559940Y-47565795D01*
X168520444Y-47634204D01*
X168500000Y-47710504D01*
X168500000Y-47789496D01*
X168520444Y-47865796D01*
X168559940Y-47934205D01*
X168615795Y-47990060D01*
X168633012Y-48000000D01*
X167525261Y-48000000D01*
X167528315Y-48019285D01*
X167528318Y-48019295D01*
X167584250Y-48191441D01*
X167584252Y-48191447D01*
X167666434Y-48352734D01*
X167772823Y-48499169D01*
X167900830Y-48627176D01*
X168047265Y-48733565D01*
X168208552Y-48815747D01*
X168208555Y-48815748D01*
X168380706Y-48871682D01*
X168559494Y-48900000D01*
X169050000Y-48900000D01*
X169050000Y-48050000D01*
X169550000Y-48050000D01*
X169550000Y-48900000D01*
X170040506Y-48900000D01*
X170219293Y-48871682D01*
X170391444Y-48815748D01*
X170391447Y-48815747D01*
X170552734Y-48733565D01*
X170699169Y-48627176D01*
X170827176Y-48499169D01*
X170933565Y-48352734D01*
X171015747Y-48191447D01*
X171015749Y-48191441D01*
X171071681Y-48019295D01*
X171071684Y-48019285D01*
X171074739Y-48000000D01*
X169966988Y-48000000D01*
X169984205Y-47990060D01*
X170040060Y-47934205D01*
X170079556Y-47865796D01*
X170100000Y-47789496D01*
X170100000Y-47710504D01*
X170079556Y-47634204D01*
X170040060Y-47565795D01*
X169984205Y-47509940D01*
X169966988Y-47500000D01*
X171074739Y-47500000D01*
X171071684Y-47480714D01*
X171071681Y-47480704D01*
X171015749Y-47308558D01*
X171015747Y-47308552D01*
X170933565Y-47147265D01*
X170827176Y-47000830D01*
X170699169Y-46872823D01*
X170552734Y-46766434D01*
X170391447Y-46684252D01*
X170391444Y-46684251D01*
X170219293Y-46628317D01*
X170040506Y-46600000D01*
X169550000Y-46600000D01*
X169550000Y-47450000D01*
X169050000Y-47450000D01*
X169050000Y-46600000D01*
X168559494Y-46600000D01*
X168380706Y-46628317D01*
X168208555Y-46684251D01*
X168208552Y-46684252D01*
X168047265Y-46766434D01*
X167900830Y-46872823D01*
X167772823Y-47000830D01*
X167666434Y-47147265D01*
X167584252Y-47308552D01*
X167584250Y-47308558D01*
X167528318Y-47480704D01*
X167528315Y-47480714D01*
X167525261Y-47500000D01*
X139354400Y-47500000D01*
X139354400Y-43584904D01*
X139327481Y-43449577D01*
X139327480Y-43449576D01*
X139327480Y-43449572D01*
X139327478Y-43449567D01*
X139274677Y-43322092D01*
X139198012Y-43207354D01*
X139198011Y-43207353D01*
X136648662Y-40658005D01*
X136615177Y-40596682D01*
X136620161Y-40526990D01*
X136662033Y-40471057D01*
X136716943Y-40447851D01*
X136917951Y-40416015D01*
X137127606Y-40347895D01*
X137324022Y-40247815D01*
X137502365Y-40118242D01*
X137658242Y-39962365D01*
X137787815Y-39784022D01*
X137887895Y-39587606D01*
X137956015Y-39377951D01*
X137990500Y-39160222D01*
X137990500Y-38939778D01*
X137956015Y-38722049D01*
X137887895Y-38512394D01*
X137887895Y-38512393D01*
X137826825Y-38392539D01*
X137787815Y-38315978D01*
X137729501Y-38235715D01*
X137658247Y-38137641D01*
X137658243Y-38137636D01*
X137502363Y-37981756D01*
X137502358Y-37981752D01*
X137324025Y-37852187D01*
X137324024Y-37852186D01*
X137324022Y-37852185D01*
X137206791Y-37792452D01*
X137127606Y-37752104D01*
X137127603Y-37752103D01*
X136917952Y-37683985D01*
X136809086Y-37666742D01*
X136700222Y-37649500D01*
X136479778Y-37649500D01*
X136439320Y-37655908D01*
X136262045Y-37683985D01*
X136191794Y-37706811D01*
X136121953Y-37708806D01*
X136065796Y-37676561D01*
X134327590Y-35938355D01*
X134327588Y-35938352D01*
X134208717Y-35819481D01*
X134208716Y-35819480D01*
X134121904Y-35769360D01*
X134121904Y-35769359D01*
X134121900Y-35769358D01*
X134071785Y-35740423D01*
X133919057Y-35699499D01*
X133760943Y-35699499D01*
X133753347Y-35699499D01*
X133753331Y-35699500D01*
X125629766Y-35699500D01*
X125562727Y-35679815D01*
X125560875Y-35678602D01*
X125429185Y-35590609D01*
X125429172Y-35590602D01*
X125283501Y-35530264D01*
X125283489Y-35530261D01*
X125128845Y-35499500D01*
X125128842Y-35499500D01*
X124971158Y-35499500D01*
X124971155Y-35499500D01*
X124816510Y-35530261D01*
X124816498Y-35530264D01*
X124670827Y-35590602D01*
X124670814Y-35590609D01*
X124539711Y-35678210D01*
X124539707Y-35678213D01*
X124428213Y-35789707D01*
X124428210Y-35789711D01*
X124340609Y-35920814D01*
X124340602Y-35920827D01*
X124280264Y-36066498D01*
X124280261Y-36066510D01*
X124249500Y-36221153D01*
X124249500Y-36378846D01*
X124280261Y-36533489D01*
X124280264Y-36533501D01*
X124340602Y-36679172D01*
X124340609Y-36679185D01*
X124428210Y-36810288D01*
X124428213Y-36810292D01*
X124539707Y-36921786D01*
X124539711Y-36921789D01*
X124670814Y-37009390D01*
X124670827Y-37009397D01*
X124816498Y-37069735D01*
X124816503Y-37069737D01*
X124971153Y-37100499D01*
X124971156Y-37100500D01*
X124971158Y-37100500D01*
X125128844Y-37100500D01*
X125128845Y-37100499D01*
X125283497Y-37069737D01*
X125429179Y-37009394D01*
X125521174Y-36947925D01*
X125560875Y-36921398D01*
X125627553Y-36900520D01*
X125629766Y-36900500D01*
X133539903Y-36900500D01*
X133606942Y-36920185D01*
X133627584Y-36936819D01*
X134128584Y-37437819D01*
X134162069Y-37499142D01*
X134157085Y-37568834D01*
X134115213Y-37624767D01*
X134049749Y-37649184D01*
X134040903Y-37649500D01*
X133939778Y-37649500D01*
X133867201Y-37660995D01*
X133722047Y-37683985D01*
X133512396Y-37752103D01*
X133512393Y-37752104D01*
X133315974Y-37852187D01*
X133137641Y-37981752D01*
X133137636Y-37981756D01*
X133087463Y-38031929D01*
X133026140Y-38065413D01*
X132956448Y-38060428D01*
X132900515Y-38018557D01*
X132883601Y-37987580D01*
X132853797Y-37907671D01*
X132853793Y-37907664D01*
X132767547Y-37792455D01*
X132767544Y-37792452D01*
X132652335Y-37706206D01*
X132652328Y-37706202D01*
X132517482Y-37655908D01*
X132517483Y-37655908D01*
X132457883Y-37649501D01*
X132457881Y-37649500D01*
X132457873Y-37649500D01*
X132457864Y-37649500D01*
X130562129Y-37649500D01*
X130562123Y-37649501D01*
X130502516Y-37655908D01*
X130367671Y-37706202D01*
X130367664Y-37706206D01*
X130252455Y-37792452D01*
X130252452Y-37792455D01*
X130166206Y-37907664D01*
X130166202Y-37907671D01*
X130115908Y-38042517D01*
X130109501Y-38102116D01*
X130109500Y-38102135D01*
X130109500Y-38325500D01*
X130089815Y-38392539D01*
X130037011Y-38438294D01*
X129985500Y-38449500D01*
X124150097Y-38449500D01*
X124083058Y-38429815D01*
X124062416Y-38413181D01*
X121934574Y-36285339D01*
X121901089Y-36224016D01*
X121900638Y-36221849D01*
X121869738Y-36066510D01*
X121869737Y-36066503D01*
X121813728Y-35931284D01*
X121809397Y-35920827D01*
X121809390Y-35920814D01*
X121721789Y-35789711D01*
X121721786Y-35789707D01*
X121610292Y-35678213D01*
X121610288Y-35678210D01*
X121479185Y-35590609D01*
X121479172Y-35590602D01*
X121333501Y-35530264D01*
X121333489Y-35530261D01*
X121178845Y-35499500D01*
X121178842Y-35499500D01*
X121021158Y-35499500D01*
X121021155Y-35499500D01*
X120866510Y-35530261D01*
X120866498Y-35530264D01*
X120720827Y-35590602D01*
X120720814Y-35590609D01*
X120589711Y-35678210D01*
X120589707Y-35678213D01*
X120478213Y-35789707D01*
X120478210Y-35789711D01*
X120390609Y-35920814D01*
X120390602Y-35920827D01*
X120330264Y-36066498D01*
X120330261Y-36066510D01*
X120299500Y-36221153D01*
X120299500Y-36378846D01*
X120330261Y-36533489D01*
X120330264Y-36533501D01*
X120390602Y-36679172D01*
X120390609Y-36679185D01*
X120478210Y-36810288D01*
X120478213Y-36810292D01*
X120589707Y-36921786D01*
X120589711Y-36921789D01*
X120720814Y-37009390D01*
X120720827Y-37009397D01*
X120866498Y-37069735D01*
X120866503Y-37069737D01*
X120931147Y-37082595D01*
X121021849Y-37100638D01*
X121083760Y-37133023D01*
X121085339Y-37134574D01*
X123365139Y-39414374D01*
X123365149Y-39414385D01*
X123369479Y-39418715D01*
X123369480Y-39418716D01*
X123481284Y-39530520D01*
X123568095Y-39580639D01*
X123568097Y-39580641D01*
X123618213Y-39609576D01*
X123618215Y-39609577D01*
X123770942Y-39650500D01*
X123770943Y-39650500D01*
X129985501Y-39650500D01*
X130052540Y-39670185D01*
X130098295Y-39722989D01*
X130109501Y-39774500D01*
X130109501Y-39997876D01*
X130115908Y-40057483D01*
X130166202Y-40192328D01*
X130166206Y-40192335D01*
X130252452Y-40307544D01*
X130252455Y-40307547D01*
X130367664Y-40393793D01*
X130367671Y-40393797D01*
X130502517Y-40444091D01*
X130502516Y-40444091D01*
X130509444Y-40444835D01*
X130562127Y-40450500D01*
X132457872Y-40450499D01*
X132517483Y-40444091D01*
X132652331Y-40393796D01*
X132767546Y-40307546D01*
X132853796Y-40192331D01*
X132881429Y-40118243D01*
X132883601Y-40112420D01*
X132925471Y-40056486D01*
X132990936Y-40032068D01*
X133059209Y-40046919D01*
X133087464Y-40068071D01*
X133137636Y-40118243D01*
X133137641Y-40118247D01*
X133239603Y-40192326D01*
X133315978Y-40247815D01*
X133444375Y-40313237D01*
X133512393Y-40347895D01*
X133512396Y-40347896D01*
X133617221Y-40381955D01*
X133722049Y-40416015D01*
X133939778Y-40450500D01*
X133939779Y-40450500D01*
X134160221Y-40450500D01*
X134160222Y-40450500D01*
X134356475Y-40419416D01*
X134425765Y-40428370D01*
X134463551Y-40454208D01*
X137917081Y-43907738D01*
X137950566Y-43969061D01*
X137953400Y-43995419D01*
X137953400Y-69763748D01*
X137933715Y-69830787D01*
X137880911Y-69876542D01*
X137811753Y-69886486D01*
X137810002Y-69886221D01*
X137644447Y-69860000D01*
X137455553Y-69860000D01*
X137268997Y-69889548D01*
X137089362Y-69947914D01*
X136921060Y-70033669D01*
X136895670Y-70052116D01*
X136895669Y-70052116D01*
X137461414Y-70617861D01*
X137376306Y-70640667D01*
X137273694Y-70699910D01*
X137189910Y-70783694D01*
X137130667Y-70886306D01*
X137107861Y-70971414D01*
X136542116Y-70405669D01*
X136542116Y-70405670D01*
X136523669Y-70431060D01*
X136437915Y-70599361D01*
X136418193Y-70660059D01*
X136378755Y-70717734D01*
X136314396Y-70744932D01*
X136245550Y-70733017D01*
X136194074Y-70685773D01*
X136182332Y-70660061D01*
X136162547Y-70599168D01*
X136076760Y-70430801D01*
X135965690Y-70277927D01*
X135832073Y-70144310D01*
X135679199Y-70033240D01*
X135510836Y-69947454D01*
X135331118Y-69889059D01*
X135144486Y-69859500D01*
X135144481Y-69859500D01*
X134955519Y-69859500D01*
X134955514Y-69859500D01*
X134768881Y-69889059D01*
X134589163Y-69947454D01*
X134420800Y-70033240D01*
X134333579Y-70096610D01*
X134267927Y-70144310D01*
X134267925Y-70144312D01*
X134267924Y-70144312D01*
X134137681Y-70274556D01*
X134076358Y-70308041D01*
X134006666Y-70303057D01*
X133962319Y-70274556D01*
X133832075Y-70144312D01*
X133832073Y-70144310D01*
X133679199Y-70033240D01*
X133510836Y-69947454D01*
X133331118Y-69889059D01*
X133144486Y-69859500D01*
X133144481Y-69859500D01*
X132955519Y-69859500D01*
X132955514Y-69859500D01*
X132768881Y-69889059D01*
X132589163Y-69947454D01*
X132420800Y-70033240D01*
X132333579Y-70096610D01*
X132267927Y-70144310D01*
X132267925Y-70144312D01*
X132267924Y-70144312D01*
X132134312Y-70277924D01*
X132134312Y-70277925D01*
X132134310Y-70277927D01*
X132101388Y-70323240D01*
X132023240Y-70430800D01*
X131984984Y-70505882D01*
X131937009Y-70556678D01*
X131869188Y-70573473D01*
X131803053Y-70550935D01*
X131759602Y-70496220D01*
X131750499Y-70449587D01*
X131750499Y-70312129D01*
X131750498Y-70312123D01*
X131750497Y-70312116D01*
X131744091Y-70252517D01*
X131738472Y-70237453D01*
X131693797Y-70117671D01*
X131693793Y-70117664D01*
X131607547Y-70002455D01*
X131607544Y-70002452D01*
X131492335Y-69916206D01*
X131492328Y-69916202D01*
X131357482Y-69865908D01*
X131357483Y-69865908D01*
X131297883Y-69859501D01*
X131297881Y-69859500D01*
X131297873Y-69859500D01*
X131297864Y-69859500D01*
X129802129Y-69859500D01*
X129802123Y-69859501D01*
X129742516Y-69865908D01*
X129607671Y-69916202D01*
X129607664Y-69916206D01*
X129492455Y-70002452D01*
X129492452Y-70002455D01*
X129406206Y-70117664D01*
X129406202Y-70117671D01*
X129355908Y-70252517D01*
X129350475Y-70303057D01*
X129349501Y-70312123D01*
X129349500Y-70312135D01*
X129349500Y-71807870D01*
X129349501Y-71807876D01*
X129355909Y-71867485D01*
X129370951Y-71907816D01*
X129375935Y-71977508D01*
X129342449Y-72038831D01*
X129281125Y-72072315D01*
X129246659Y-72074883D01*
X129220389Y-72073161D01*
X128452086Y-72841465D01*
X128357171Y-72710825D01*
X128229175Y-72582829D01*
X128098532Y-72487912D01*
X128866837Y-71719608D01*
X128718796Y-71606012D01*
X128718788Y-71606006D01*
X128466211Y-71460179D01*
X128466195Y-71460171D01*
X128196744Y-71348562D01*
X127915003Y-71273069D01*
X127625844Y-71235001D01*
X127625827Y-71235000D01*
X127334173Y-71235000D01*
X127334155Y-71235001D01*
X127044996Y-71273069D01*
X126763255Y-71348562D01*
X126493804Y-71460171D01*
X126493788Y-71460179D01*
X126241211Y-71606006D01*
X126241195Y-71606017D01*
X126093161Y-71719606D01*
X126093161Y-71719608D01*
X126861466Y-72487913D01*
X126730825Y-72582829D01*
X126602829Y-72710825D01*
X126507913Y-72841466D01*
X125739608Y-72073161D01*
X125739606Y-72073161D01*
X125626017Y-72221195D01*
X125626006Y-72221211D01*
X125480179Y-72473788D01*
X125480171Y-72473804D01*
X125368562Y-72743255D01*
X125293069Y-73024996D01*
X125255001Y-73314155D01*
X125255000Y-73314172D01*
X125255000Y-73605827D01*
X125255001Y-73605844D01*
X125293069Y-73895003D01*
X125368562Y-74176744D01*
X125480171Y-74446195D01*
X125480179Y-74446211D01*
X125626006Y-74698788D01*
X125626012Y-74698796D01*
X125739608Y-74846837D01*
X126507912Y-74078532D01*
X126602829Y-74209175D01*
X126730825Y-74337171D01*
X126861465Y-74432086D01*
X126093161Y-75200389D01*
X126093161Y-75200390D01*
X126241203Y-75313987D01*
X126241211Y-75313993D01*
X126493788Y-75459820D01*
X126493804Y-75459828D01*
X126763255Y-75571437D01*
X127044996Y-75646930D01*
X127334155Y-75684998D01*
X127334173Y-75685000D01*
X127474980Y-75685000D01*
X127542019Y-75704685D01*
X127587774Y-75757489D01*
X127597718Y-75826647D01*
X127568693Y-75890203D01*
X127562661Y-75896681D01*
X125294044Y-78165297D01*
X125232721Y-78198782D01*
X125163029Y-78193798D01*
X125107096Y-78151926D01*
X125084746Y-78101809D01*
X125073580Y-78045672D01*
X125045899Y-77978844D01*
X125020778Y-77918195D01*
X125020771Y-77918182D01*
X124944114Y-77803458D01*
X124944111Y-77803454D01*
X124846545Y-77705888D01*
X124846541Y-77705885D01*
X124731817Y-77629228D01*
X124731804Y-77629221D01*
X124604330Y-77576420D01*
X124598494Y-77574650D01*
X124598922Y-77573236D01*
X124543515Y-77544252D01*
X124541938Y-77542702D01*
X108476289Y-61477053D01*
X116510400Y-61477053D01*
X116510400Y-61634746D01*
X116541161Y-61789389D01*
X116541164Y-61789401D01*
X116601502Y-61935072D01*
X116601509Y-61935085D01*
X116689110Y-62066188D01*
X116689113Y-62066192D01*
X116800607Y-62177686D01*
X116800611Y-62177689D01*
X116931714Y-62265290D01*
X116931727Y-62265297D01*
X117077398Y-62325635D01*
X117077403Y-62325637D01*
X117232053Y-62356399D01*
X117232056Y-62356400D01*
X117232058Y-62356400D01*
X117389744Y-62356400D01*
X117389745Y-62356399D01*
X117544397Y-62325637D01*
X117690079Y-62265294D01*
X117821189Y-62177689D01*
X117932689Y-62066189D01*
X118020294Y-61935079D01*
X118080637Y-61789397D01*
X118100013Y-61691985D01*
X118111538Y-61634050D01*
X118143923Y-61572139D01*
X118145417Y-61570617D01*
X120630520Y-59085516D01*
X120709577Y-58948584D01*
X120750501Y-58795857D01*
X120750501Y-58637742D01*
X120750501Y-58630147D01*
X120750500Y-58630129D01*
X120750500Y-53012162D01*
X120770185Y-52945123D01*
X120822989Y-52899368D01*
X120848552Y-52890907D01*
X120852788Y-52889999D01*
X120852797Y-52889999D01*
X121019334Y-52834814D01*
X121168656Y-52742712D01*
X121292712Y-52618656D01*
X121384814Y-52469334D01*
X121439999Y-52302797D01*
X121450500Y-52200009D01*
X121450499Y-50999992D01*
X121439999Y-50897203D01*
X121384814Y-50730666D01*
X121292712Y-50581344D01*
X121168656Y-50457288D01*
X121019334Y-50365186D01*
X120957558Y-50344715D01*
X120900115Y-50304943D01*
X120873292Y-50240427D01*
X120872946Y-50217280D01*
X120875921Y-50179473D01*
X120196447Y-49500000D01*
X120202661Y-49500000D01*
X120304394Y-49472741D01*
X120395606Y-49420080D01*
X120470080Y-49345606D01*
X120522741Y-49254394D01*
X120550000Y-49152661D01*
X120550000Y-49146448D01*
X121229474Y-49825922D01*
X121229474Y-49825921D01*
X121261859Y-49781349D01*
X121354755Y-49599031D01*
X121417990Y-49404417D01*
X121450000Y-49202317D01*
X121450000Y-48997682D01*
X121417990Y-48795582D01*
X121354755Y-48600968D01*
X121261859Y-48418650D01*
X121229474Y-48374077D01*
X121229474Y-48374076D01*
X120550000Y-49053551D01*
X120550000Y-49047339D01*
X120522741Y-48945606D01*
X120470080Y-48854394D01*
X120395606Y-48779920D01*
X120304394Y-48727259D01*
X120202661Y-48700000D01*
X120196446Y-48700000D01*
X120875922Y-48020524D01*
X120875921Y-48020523D01*
X120831359Y-47988147D01*
X120831350Y-47988141D01*
X120649031Y-47895244D01*
X120454417Y-47832009D01*
X120252317Y-47800000D01*
X120047683Y-47800000D01*
X119845582Y-47832009D01*
X119650968Y-47895244D01*
X119468644Y-47988143D01*
X119424077Y-48020523D01*
X119424077Y-48020524D01*
X120103554Y-48700000D01*
X120097339Y-48700000D01*
X119995606Y-48727259D01*
X119904394Y-48779920D01*
X119829920Y-48854394D01*
X119777259Y-48945606D01*
X119750000Y-49047339D01*
X119750000Y-49053553D01*
X119070524Y-48374077D01*
X119070523Y-48374077D01*
X119038143Y-48418644D01*
X118945244Y-48600968D01*
X118882009Y-48795582D01*
X118850000Y-48997682D01*
X118850000Y-49202317D01*
X118882009Y-49404417D01*
X118945244Y-49599031D01*
X119038141Y-49781350D01*
X119038147Y-49781359D01*
X119070523Y-49825921D01*
X119070524Y-49825922D01*
X119750000Y-49146446D01*
X119750000Y-49152661D01*
X119777259Y-49254394D01*
X119829920Y-49345606D01*
X119904394Y-49420080D01*
X119995606Y-49472741D01*
X120097339Y-49500000D01*
X120103553Y-49500000D01*
X119424076Y-50179474D01*
X119427052Y-50217282D01*
X119412687Y-50285659D01*
X119363636Y-50335415D01*
X119342440Y-50344715D01*
X119280672Y-50365184D01*
X119280663Y-50365187D01*
X119131342Y-50457289D01*
X119007289Y-50581342D01*
X118915187Y-50730663D01*
X118915186Y-50730666D01*
X118860001Y-50897203D01*
X118860001Y-50897204D01*
X118860000Y-50897204D01*
X118849500Y-50999983D01*
X118849500Y-52200001D01*
X118849501Y-52200018D01*
X118860000Y-52302796D01*
X118860001Y-52302799D01*
X118915185Y-52469331D01*
X118915186Y-52469334D01*
X119007288Y-52618656D01*
X119131344Y-52742712D01*
X119280666Y-52834814D01*
X119447203Y-52889999D01*
X119447209Y-52889999D01*
X119451448Y-52890907D01*
X119512884Y-52924185D01*
X119546576Y-52985394D01*
X119549500Y-53012162D01*
X119549500Y-58416702D01*
X119529815Y-58483741D01*
X119513181Y-58504383D01*
X117296239Y-60721325D01*
X117234916Y-60754810D01*
X117232750Y-60755261D01*
X117077408Y-60786161D01*
X117077398Y-60786164D01*
X116931727Y-60846502D01*
X116931714Y-60846509D01*
X116800611Y-60934110D01*
X116800607Y-60934113D01*
X116689113Y-61045607D01*
X116689110Y-61045611D01*
X116601509Y-61176714D01*
X116601502Y-61176727D01*
X116541164Y-61322398D01*
X116541161Y-61322410D01*
X116510400Y-61477053D01*
X108476289Y-61477053D01*
X107076819Y-60077583D01*
X107043334Y-60016260D01*
X107040500Y-59989902D01*
X107040500Y-56771153D01*
X109899500Y-56771153D01*
X109899500Y-56928846D01*
X109930261Y-57083489D01*
X109930264Y-57083501D01*
X109990602Y-57229172D01*
X109990609Y-57229185D01*
X110078209Y-57360287D01*
X110078210Y-57360288D01*
X110078211Y-57360289D01*
X110163182Y-57445260D01*
X110196666Y-57506581D01*
X110199500Y-57532940D01*
X110199500Y-57813330D01*
X110199499Y-57813348D01*
X110199499Y-57979054D01*
X110199498Y-57979054D01*
X110240423Y-58131785D01*
X110240424Y-58131788D01*
X110242817Y-58135932D01*
X110242819Y-58135935D01*
X110282887Y-58205335D01*
X110299500Y-58267334D01*
X110299500Y-58278846D01*
X110330261Y-58433489D01*
X110330264Y-58433501D01*
X110390602Y-58579172D01*
X110390609Y-58579185D01*
X110478210Y-58710288D01*
X110478213Y-58710292D01*
X110589707Y-58821786D01*
X110589711Y-58821789D01*
X110720814Y-58909390D01*
X110720827Y-58909397D01*
X110815437Y-58948585D01*
X110866503Y-58969737D01*
X111021153Y-59000499D01*
X111021156Y-59000500D01*
X111021158Y-59000500D01*
X111178844Y-59000500D01*
X111178845Y-59000499D01*
X111333497Y-58969737D01*
X111479179Y-58909394D01*
X111610289Y-58821789D01*
X111721789Y-58710289D01*
X111809394Y-58579179D01*
X111869737Y-58433497D01*
X111900500Y-58278842D01*
X111900500Y-58121158D01*
X111900500Y-58121155D01*
X111900499Y-58121153D01*
X111872234Y-57979057D01*
X111869737Y-57966503D01*
X111809443Y-57820939D01*
X111809397Y-57820827D01*
X111809390Y-57820814D01*
X111721789Y-57689711D01*
X111721786Y-57689707D01*
X111610292Y-57578213D01*
X111610288Y-57578210D01*
X111479185Y-57490609D01*
X111479169Y-57490601D01*
X111477038Y-57489718D01*
X111476094Y-57488957D01*
X111473809Y-57487736D01*
X111474040Y-57487302D01*
X111461477Y-57477176D01*
X111443297Y-57468874D01*
X111434830Y-57455699D01*
X111422638Y-57445873D01*
X111416328Y-57426909D01*
X111405523Y-57410096D01*
X111401557Y-57382519D01*
X111400579Y-57379577D01*
X111400500Y-57375161D01*
X111400500Y-57275316D01*
X111409939Y-57227864D01*
X111469735Y-57083501D01*
X111469737Y-57083497D01*
X111500500Y-56928842D01*
X111500500Y-56771158D01*
X111500500Y-56771155D01*
X111500499Y-56771153D01*
X111491495Y-56725886D01*
X111469737Y-56616503D01*
X111461419Y-56596421D01*
X111409397Y-56470827D01*
X111409390Y-56470814D01*
X111321789Y-56339711D01*
X111321786Y-56339707D01*
X111210292Y-56228213D01*
X111210288Y-56228210D01*
X111079185Y-56140609D01*
X111079172Y-56140602D01*
X110933501Y-56080264D01*
X110933489Y-56080261D01*
X110778845Y-56049500D01*
X110778842Y-56049500D01*
X110621158Y-56049500D01*
X110621155Y-56049500D01*
X110466510Y-56080261D01*
X110466498Y-56080264D01*
X110320827Y-56140602D01*
X110320814Y-56140609D01*
X110189711Y-56228210D01*
X110189707Y-56228213D01*
X110078213Y-56339707D01*
X110078210Y-56339711D01*
X109990609Y-56470814D01*
X109990602Y-56470827D01*
X109930264Y-56616498D01*
X109930261Y-56616510D01*
X109899500Y-56771153D01*
X107040500Y-56771153D01*
X107040500Y-54071153D01*
X114649500Y-54071153D01*
X114649500Y-54228846D01*
X114680261Y-54383489D01*
X114680264Y-54383501D01*
X114740602Y-54529172D01*
X114740609Y-54529185D01*
X114828210Y-54660288D01*
X114828213Y-54660292D01*
X114939707Y-54771786D01*
X114939711Y-54771789D01*
X115070814Y-54859390D01*
X115070827Y-54859397D01*
X115216498Y-54919735D01*
X115216503Y-54919737D01*
X115371153Y-54950499D01*
X115371156Y-54950500D01*
X115371158Y-54950500D01*
X115528844Y-54950500D01*
X115528845Y-54950499D01*
X115683497Y-54919737D01*
X115829179Y-54859394D01*
X115960289Y-54771789D01*
X116071789Y-54660289D01*
X116159394Y-54529179D01*
X116159395Y-54529176D01*
X116159397Y-54529173D01*
X116219192Y-54384812D01*
X116246069Y-54344586D01*
X117244114Y-53346543D01*
X117320775Y-53231811D01*
X117326418Y-53218189D01*
X117373578Y-53104332D01*
X117373580Y-53104328D01*
X117400500Y-52968994D01*
X117400500Y-52831006D01*
X117400500Y-47525316D01*
X117409939Y-47477864D01*
X117450561Y-47379792D01*
X117469737Y-47333497D01*
X117500500Y-47178842D01*
X117500500Y-47021158D01*
X117500500Y-47021155D01*
X117500499Y-47021153D01*
X117469738Y-46866510D01*
X117469737Y-46866503D01*
X117448917Y-46816239D01*
X117409397Y-46720827D01*
X117409390Y-46720814D01*
X117321789Y-46589711D01*
X117321786Y-46589707D01*
X117210292Y-46478213D01*
X117210288Y-46478210D01*
X117079185Y-46390609D01*
X117079172Y-46390602D01*
X116933501Y-46330264D01*
X116933489Y-46330261D01*
X116778845Y-46299500D01*
X116778842Y-46299500D01*
X116621158Y-46299500D01*
X116621155Y-46299500D01*
X116466510Y-46330261D01*
X116466498Y-46330264D01*
X116320827Y-46390602D01*
X116320814Y-46390609D01*
X116189711Y-46478210D01*
X116189707Y-46478213D01*
X116078213Y-46589707D01*
X116078210Y-46589711D01*
X115990609Y-46720814D01*
X115990602Y-46720827D01*
X115930264Y-46866498D01*
X115930261Y-46866510D01*
X115899500Y-47021153D01*
X115899500Y-47178846D01*
X115930261Y-47333489D01*
X115930264Y-47333501D01*
X115990061Y-47477864D01*
X115999500Y-47525316D01*
X115999500Y-52558480D01*
X115979815Y-52625519D01*
X115963181Y-52646161D01*
X115255412Y-53353929D01*
X115215184Y-53380809D01*
X115070823Y-53440604D01*
X115070814Y-53440609D01*
X114939711Y-53528210D01*
X114939707Y-53528213D01*
X114828213Y-53639707D01*
X114828210Y-53639711D01*
X114740609Y-53770814D01*
X114740602Y-53770827D01*
X114680264Y-53916498D01*
X114680261Y-53916510D01*
X114649500Y-54071153D01*
X107040500Y-54071153D01*
X107040500Y-53949769D01*
X107058746Y-53887627D01*
X107057906Y-53887178D01*
X107060064Y-53883140D01*
X107060185Y-53882730D01*
X107060721Y-53881910D01*
X107060771Y-53881816D01*
X107060775Y-53881811D01*
X107113580Y-53754328D01*
X107140500Y-53618993D01*
X107140500Y-53481007D01*
X107140500Y-53481004D01*
X107113581Y-53345677D01*
X107113580Y-53345676D01*
X107113580Y-53345672D01*
X107113578Y-53345667D01*
X107060778Y-53218195D01*
X107060771Y-53218182D01*
X106984114Y-53103458D01*
X106984111Y-53103454D01*
X106886545Y-53005888D01*
X106886541Y-53005885D01*
X106771817Y-52929228D01*
X106771804Y-52929221D01*
X106644332Y-52876421D01*
X106644322Y-52876418D01*
X106508995Y-52849500D01*
X106508993Y-52849500D01*
X106371007Y-52849500D01*
X106371005Y-52849500D01*
X106235677Y-52876418D01*
X106235667Y-52876421D01*
X106108195Y-52929221D01*
X106108182Y-52929228D01*
X105993458Y-53005885D01*
X105993454Y-53005888D01*
X105895888Y-53103454D01*
X105895885Y-53103458D01*
X105819228Y-53218182D01*
X105819221Y-53218195D01*
X105766421Y-53345667D01*
X105766418Y-53345677D01*
X105739500Y-53481004D01*
X105739500Y-53481007D01*
X105739500Y-53618993D01*
X105739500Y-53618995D01*
X105739499Y-53618995D01*
X105766418Y-53754322D01*
X105766421Y-53754332D01*
X105819222Y-53881806D01*
X105822094Y-53887178D01*
X105820792Y-53887874D01*
X105839480Y-53947554D01*
X105839500Y-53949769D01*
X105839500Y-60203330D01*
X105839499Y-60203348D01*
X105839499Y-60369054D01*
X105839498Y-60369054D01*
X105880423Y-60521785D01*
X105909358Y-60571900D01*
X105909359Y-60571904D01*
X105909360Y-60571904D01*
X105959479Y-60658714D01*
X105959481Y-60658717D01*
X106078349Y-60777585D01*
X106078355Y-60777590D01*
X123692702Y-78391938D01*
X123723735Y-78448771D01*
X123724650Y-78448494D01*
X123725982Y-78452887D01*
X123726187Y-78453261D01*
X123726386Y-78454215D01*
X123726420Y-78454330D01*
X123779221Y-78581804D01*
X123779228Y-78581817D01*
X123855885Y-78696541D01*
X123855888Y-78696545D01*
X123953454Y-78794111D01*
X123953458Y-78794114D01*
X124068182Y-78870771D01*
X124068195Y-78870778D01*
X124181877Y-78917866D01*
X124195672Y-78923580D01*
X124251808Y-78934746D01*
X124313718Y-78967130D01*
X124348292Y-79027846D01*
X124344553Y-79097615D01*
X124315297Y-79144044D01*
X124133842Y-79325499D01*
X124072519Y-79358984D01*
X124002827Y-79354000D01*
X123946894Y-79312128D01*
X123943059Y-79306709D01*
X123894114Y-79233457D01*
X123796545Y-79135888D01*
X123796541Y-79135885D01*
X123681817Y-79059228D01*
X123681804Y-79059221D01*
X123554332Y-79006421D01*
X123554322Y-79006418D01*
X123418995Y-78979500D01*
X123418993Y-78979500D01*
X123281007Y-78979500D01*
X123281005Y-78979500D01*
X123145677Y-79006418D01*
X123145667Y-79006421D01*
X123018190Y-79059223D01*
X123012819Y-79062095D01*
X123012123Y-79060794D01*
X122952438Y-79079480D01*
X122950230Y-79079500D01*
X116810098Y-79079500D01*
X116743059Y-79059815D01*
X116722417Y-79043181D01*
X83556819Y-45877583D01*
X83523334Y-45816260D01*
X83520500Y-45789902D01*
X83520500Y-41510791D01*
X83540185Y-41443752D01*
X83571612Y-41410475D01*
X83702073Y-41315690D01*
X83835690Y-41182073D01*
X83946760Y-41029199D01*
X84032547Y-40860832D01*
X84090940Y-40681118D01*
X84094601Y-40658005D01*
X84120500Y-40494486D01*
X84120500Y-37635513D01*
X85389500Y-37635513D01*
X85389500Y-40524486D01*
X85419059Y-40711118D01*
X85477454Y-40890836D01*
X85547954Y-41029199D01*
X85563240Y-41059199D01*
X85674310Y-41212073D01*
X85807927Y-41345690D01*
X85960801Y-41456760D01*
X85960803Y-41456761D01*
X85961862Y-41457301D01*
X85962193Y-41457613D01*
X85964953Y-41459305D01*
X85964597Y-41459884D01*
X86012657Y-41505275D01*
X86029452Y-41573096D01*
X86006914Y-41639231D01*
X85974320Y-41669794D01*
X85974743Y-41670376D01*
X85970801Y-41673239D01*
X85970801Y-41673240D01*
X85817927Y-41784310D01*
X85817925Y-41784312D01*
X85817924Y-41784312D01*
X85684312Y-41917924D01*
X85684312Y-41917925D01*
X85684310Y-41917927D01*
X85647985Y-41967924D01*
X85573240Y-42070800D01*
X85487454Y-42239163D01*
X85429059Y-42418881D01*
X85399500Y-42605513D01*
X85399500Y-45494486D01*
X85429059Y-45681118D01*
X85487454Y-45860836D01*
X85548981Y-45981588D01*
X85573240Y-46029199D01*
X85684310Y-46182073D01*
X85817927Y-46315690D01*
X85970801Y-46426760D01*
X86041033Y-46462545D01*
X86139163Y-46512545D01*
X86139165Y-46512545D01*
X86139168Y-46512547D01*
X86235497Y-46543846D01*
X86318881Y-46570940D01*
X86505514Y-46600500D01*
X86505519Y-46600500D01*
X86694486Y-46600500D01*
X86881118Y-46570940D01*
X86944025Y-46550500D01*
X87060832Y-46512547D01*
X87229199Y-46426760D01*
X87382073Y-46315690D01*
X87515690Y-46182073D01*
X87626760Y-46029199D01*
X87712547Y-45860832D01*
X87770940Y-45681118D01*
X87778859Y-45631118D01*
X87800500Y-45494486D01*
X87800500Y-42655513D01*
X90919500Y-42655513D01*
X90919500Y-45444486D01*
X90949059Y-45631118D01*
X91007454Y-45810836D01*
X91032931Y-45860836D01*
X91093240Y-45979199D01*
X91204310Y-46132073D01*
X91337927Y-46265690D01*
X91490801Y-46376760D01*
X91570347Y-46417290D01*
X91659163Y-46462545D01*
X91659165Y-46462545D01*
X91659168Y-46462547D01*
X91707377Y-46478211D01*
X91838881Y-46520940D01*
X92025514Y-46550500D01*
X92025519Y-46550500D01*
X92214486Y-46550500D01*
X92401118Y-46520940D01*
X92426955Y-46512545D01*
X92580832Y-46462547D01*
X92749199Y-46376760D01*
X92902073Y-46265690D01*
X93035690Y-46132073D01*
X93146760Y-45979199D01*
X93232547Y-45810832D01*
X93290940Y-45631118D01*
X93292668Y-45620208D01*
X93320500Y-45444486D01*
X93320500Y-42655513D01*
X93290940Y-42468881D01*
X93232545Y-42289163D01*
X93146759Y-42120800D01*
X93035690Y-41967927D01*
X92902073Y-41834310D01*
X92749199Y-41723240D01*
X92580836Y-41637454D01*
X92401118Y-41579059D01*
X92214486Y-41549500D01*
X92214481Y-41549500D01*
X92025519Y-41549500D01*
X92025514Y-41549500D01*
X91838881Y-41579059D01*
X91659163Y-41637454D01*
X91490800Y-41723240D01*
X91406746Y-41784310D01*
X91337927Y-41834310D01*
X91337925Y-41834312D01*
X91337924Y-41834312D01*
X91204312Y-41967924D01*
X91204312Y-41967925D01*
X91204310Y-41967927D01*
X91156610Y-42033579D01*
X91093240Y-42120800D01*
X91007454Y-42289163D01*
X90949059Y-42468881D01*
X90919500Y-42655513D01*
X87800500Y-42655513D01*
X87800500Y-42605513D01*
X87770940Y-42418881D01*
X87712545Y-42239163D01*
X87626759Y-42070800D01*
X87515690Y-41917927D01*
X87382073Y-41784310D01*
X87229199Y-41673240D01*
X87229195Y-41673237D01*
X87228129Y-41672694D01*
X87227796Y-41672379D01*
X87225047Y-41670695D01*
X87225401Y-41670117D01*
X87177337Y-41624716D01*
X87160547Y-41556894D01*
X87183090Y-41490760D01*
X87215682Y-41460209D01*
X87215257Y-41459624D01*
X87219199Y-41456760D01*
X87372073Y-41345690D01*
X87505690Y-41212073D01*
X87616760Y-41059199D01*
X87702547Y-40890832D01*
X87760940Y-40711118D01*
X87790500Y-40524486D01*
X87790500Y-37635513D01*
X87788050Y-37620045D01*
X87785748Y-37605513D01*
X93999500Y-37605513D01*
X93999500Y-40494486D01*
X94029059Y-40681118D01*
X94087454Y-40860836D01*
X94173240Y-41029199D01*
X94284310Y-41182073D01*
X94417927Y-41315690D01*
X94570801Y-41426760D01*
X94635811Y-41459884D01*
X94739163Y-41512545D01*
X94739165Y-41512545D01*
X94739168Y-41512547D01*
X94831498Y-41542547D01*
X94918881Y-41570940D01*
X95105514Y-41600500D01*
X95105519Y-41600500D01*
X95294486Y-41600500D01*
X95481118Y-41570940D01*
X95494401Y-41566624D01*
X95660832Y-41512547D01*
X95829199Y-41426760D01*
X95982073Y-41315690D01*
X96115690Y-41182073D01*
X96226760Y-41029199D01*
X96312547Y-40860832D01*
X96370940Y-40681118D01*
X96374601Y-40658005D01*
X96400500Y-40494486D01*
X96400500Y-37605513D01*
X96370940Y-37418881D01*
X96343846Y-37335497D01*
X96312547Y-37239168D01*
X96312545Y-37239165D01*
X96312545Y-37239163D01*
X96259254Y-37134574D01*
X96226760Y-37070801D01*
X96115690Y-36917927D01*
X95982073Y-36784310D01*
X95829199Y-36673240D01*
X95828051Y-36672655D01*
X95660836Y-36587454D01*
X95481118Y-36529059D01*
X95294486Y-36499500D01*
X95294481Y-36499500D01*
X95105519Y-36499500D01*
X95105514Y-36499500D01*
X94918881Y-36529059D01*
X94739163Y-36587454D01*
X94570800Y-36673240D01*
X94483579Y-36736610D01*
X94417927Y-36784310D01*
X94417925Y-36784312D01*
X94417924Y-36784312D01*
X94284312Y-36917924D01*
X94173240Y-37070800D01*
X94087454Y-37239163D01*
X94029059Y-37418881D01*
X93999500Y-37605513D01*
X87785748Y-37605513D01*
X87760940Y-37448881D01*
X87702545Y-37269163D01*
X87616759Y-37100800D01*
X87505690Y-36947927D01*
X87372073Y-36814310D01*
X87295636Y-36758775D01*
X87219197Y-36703238D01*
X87169176Y-36677752D01*
X87118380Y-36629778D01*
X87101584Y-36561957D01*
X87124121Y-36495822D01*
X87169175Y-36456782D01*
X87228941Y-36426329D01*
X87381741Y-36315314D01*
X87381746Y-36315310D01*
X87515310Y-36181746D01*
X87515314Y-36181741D01*
X87626329Y-36028940D01*
X87712085Y-35860637D01*
X87770451Y-35681002D01*
X87800000Y-35494447D01*
X87800000Y-34300000D01*
X86975000Y-34300000D01*
X86975000Y-33800000D01*
X87800000Y-33800000D01*
X87800000Y-32605552D01*
X87799994Y-32605513D01*
X90909500Y-32605513D01*
X90909500Y-35494486D01*
X90939059Y-35681118D01*
X90997454Y-35860836D01*
X91083108Y-36028940D01*
X91083240Y-36029199D01*
X91194310Y-36182073D01*
X91327927Y-36315690D01*
X91480801Y-36426760D01*
X91539723Y-36456782D01*
X91649163Y-36512545D01*
X91649165Y-36512545D01*
X91649168Y-36512547D01*
X91745497Y-36543846D01*
X91828881Y-36570940D01*
X92015514Y-36600500D01*
X92015519Y-36600500D01*
X92204486Y-36600500D01*
X92391118Y-36570940D01*
X92401764Y-36567481D01*
X92570832Y-36512547D01*
X92739199Y-36426760D01*
X92892073Y-36315690D01*
X93025690Y-36182073D01*
X93136760Y-36029199D01*
X93222547Y-35860832D01*
X93280940Y-35681118D01*
X93281146Y-35679815D01*
X93310500Y-35494486D01*
X93310500Y-32605513D01*
X93280940Y-32418881D01*
X93248811Y-32320000D01*
X93222547Y-32239168D01*
X93222545Y-32239165D01*
X93222544Y-32239160D01*
X93188900Y-32173130D01*
X93188899Y-32173129D01*
X93161819Y-32119983D01*
X157949500Y-32119983D01*
X157949500Y-33320001D01*
X157949501Y-33320018D01*
X157960000Y-33422796D01*
X157960001Y-33422799D01*
X157975681Y-33470116D01*
X158015186Y-33589334D01*
X158107288Y-33738656D01*
X158231344Y-33862712D01*
X158380666Y-33954814D01*
X158547203Y-34009999D01*
X158649991Y-34020500D01*
X159850008Y-34020499D01*
X159952797Y-34009999D01*
X160119334Y-33954814D01*
X160268656Y-33862712D01*
X160392712Y-33738656D01*
X160484814Y-33589334D01*
X160508102Y-33519054D01*
X160512110Y-33511050D01*
X160530060Y-33491772D01*
X160545055Y-33470116D01*
X160553495Y-33466606D01*
X160559725Y-33459917D01*
X160585249Y-33453404D01*
X160609571Y-33443292D01*
X160625834Y-33443048D01*
X160627425Y-33442643D01*
X160628523Y-33443008D01*
X160632719Y-33442946D01*
X160670525Y-33445921D01*
X161350000Y-32766446D01*
X161350000Y-32772661D01*
X161377259Y-32874394D01*
X161429920Y-32965606D01*
X161504394Y-33040080D01*
X161595606Y-33092741D01*
X161697339Y-33120000D01*
X161703553Y-33120000D01*
X161024076Y-33799474D01*
X161068650Y-33831859D01*
X161250968Y-33924755D01*
X161445582Y-33987990D01*
X161647683Y-34020000D01*
X161852317Y-34020000D01*
X162054417Y-33987990D01*
X162249031Y-33924755D01*
X162431349Y-33831859D01*
X162475921Y-33799474D01*
X161796447Y-33120000D01*
X161802661Y-33120000D01*
X161904394Y-33092741D01*
X161995606Y-33040080D01*
X162070080Y-32965606D01*
X162122741Y-32874394D01*
X162150000Y-32772661D01*
X162150000Y-32766448D01*
X162829474Y-33445922D01*
X162829474Y-33445921D01*
X162861859Y-33401349D01*
X162954755Y-33219031D01*
X163017990Y-33024417D01*
X163050000Y-32822317D01*
X163050000Y-32617682D01*
X163017990Y-32415582D01*
X162954755Y-32220968D01*
X162861859Y-32038650D01*
X162829474Y-31994077D01*
X162829474Y-31994076D01*
X162150000Y-32673551D01*
X162150000Y-32667339D01*
X162122741Y-32565606D01*
X162070080Y-32474394D01*
X161995606Y-32399920D01*
X161904394Y-32347259D01*
X161802661Y-32320000D01*
X161796446Y-32320000D01*
X162475922Y-31640524D01*
X162475921Y-31640523D01*
X162431359Y-31608147D01*
X162431350Y-31608141D01*
X162249031Y-31515244D01*
X162054417Y-31452009D01*
X161852317Y-31420000D01*
X161647683Y-31420000D01*
X161445582Y-31452009D01*
X161250968Y-31515244D01*
X161068644Y-31608143D01*
X161024077Y-31640523D01*
X161024077Y-31640524D01*
X161703554Y-32320000D01*
X161697339Y-32320000D01*
X161595606Y-32347259D01*
X161504394Y-32399920D01*
X161429920Y-32474394D01*
X161377259Y-32565606D01*
X161350000Y-32667339D01*
X161350000Y-32673553D01*
X160670524Y-31994077D01*
X160632719Y-31997053D01*
X160564341Y-31982689D01*
X160514584Y-31933638D01*
X160512110Y-31928949D01*
X160508101Y-31920942D01*
X160484814Y-31850666D01*
X160392712Y-31701344D01*
X160268656Y-31577288D01*
X160119334Y-31485186D01*
X159952797Y-31430001D01*
X159952795Y-31430000D01*
X159850010Y-31419500D01*
X158649998Y-31419500D01*
X158649981Y-31419501D01*
X158547203Y-31430000D01*
X158547200Y-31430001D01*
X158380668Y-31485185D01*
X158380663Y-31485187D01*
X158231342Y-31577289D01*
X158107289Y-31701342D01*
X158015187Y-31850663D01*
X158015185Y-31850668D01*
X157992898Y-31917927D01*
X157960001Y-32017203D01*
X157960001Y-32017204D01*
X157960000Y-32017204D01*
X157949500Y-32119983D01*
X93161819Y-32119983D01*
X93136759Y-32070800D01*
X93025690Y-31917927D01*
X92892073Y-31784310D01*
X92739199Y-31673240D01*
X92570836Y-31587454D01*
X92391118Y-31529059D01*
X92204486Y-31499500D01*
X92204481Y-31499500D01*
X92015519Y-31499500D01*
X92015514Y-31499500D01*
X91828881Y-31529059D01*
X91649163Y-31587454D01*
X91480800Y-31673240D01*
X91442122Y-31701342D01*
X91327927Y-31784310D01*
X91327925Y-31784312D01*
X91327924Y-31784312D01*
X91194312Y-31917924D01*
X91194312Y-31917925D01*
X91194310Y-31917927D01*
X91147257Y-31982689D01*
X91083240Y-32070800D01*
X90997454Y-32239163D01*
X90939059Y-32418881D01*
X90909500Y-32605513D01*
X87799994Y-32605513D01*
X87770451Y-32418997D01*
X87712085Y-32239362D01*
X87626329Y-32071059D01*
X87515314Y-31918258D01*
X87515310Y-31918253D01*
X87381746Y-31784689D01*
X87381741Y-31784685D01*
X87228940Y-31673670D01*
X87060635Y-31587913D01*
X86881004Y-31529549D01*
X86880995Y-31529547D01*
X86850000Y-31524637D01*
X86850000Y-32394670D01*
X86830255Y-32374925D01*
X86744745Y-32325556D01*
X86649370Y-32300000D01*
X86550630Y-32300000D01*
X86455255Y-32325556D01*
X86369745Y-32374925D01*
X86350000Y-32394670D01*
X86350000Y-31524637D01*
X86349999Y-31524637D01*
X86319004Y-31529547D01*
X86318995Y-31529549D01*
X86139364Y-31587913D01*
X85971059Y-31673670D01*
X85818258Y-31784685D01*
X85818253Y-31784689D01*
X85684689Y-31918253D01*
X85684685Y-31918258D01*
X85573670Y-32071059D01*
X85487914Y-32239362D01*
X85429548Y-32418997D01*
X85400000Y-32605552D01*
X85400000Y-33800000D01*
X86225000Y-33800000D01*
X86225000Y-34300000D01*
X85400000Y-34300000D01*
X85400000Y-35494447D01*
X85429548Y-35681002D01*
X85487914Y-35860637D01*
X85573670Y-36028940D01*
X85684685Y-36181741D01*
X85684689Y-36181746D01*
X85818253Y-36315310D01*
X85818258Y-36315314D01*
X85971061Y-36426331D01*
X86020823Y-36451686D01*
X86071619Y-36499660D01*
X86088415Y-36567481D01*
X86065878Y-36633616D01*
X86020825Y-36672655D01*
X85960803Y-36703238D01*
X85884364Y-36758775D01*
X85807927Y-36814310D01*
X85807925Y-36814312D01*
X85807924Y-36814312D01*
X85674312Y-36947924D01*
X85674312Y-36947925D01*
X85674310Y-36947927D01*
X85629654Y-37009390D01*
X85563240Y-37100800D01*
X85477454Y-37269163D01*
X85419059Y-37448881D01*
X85389500Y-37635513D01*
X84120500Y-37635513D01*
X84120500Y-37605513D01*
X84090940Y-37418881D01*
X84063846Y-37335497D01*
X84032547Y-37239168D01*
X84032545Y-37239165D01*
X84032545Y-37239163D01*
X83979254Y-37134574D01*
X83946760Y-37070801D01*
X83835690Y-36917927D01*
X83702073Y-36784310D01*
X83549199Y-36673240D01*
X83548051Y-36672655D01*
X83380836Y-36587454D01*
X83201118Y-36529059D01*
X83014486Y-36499500D01*
X83014481Y-36499500D01*
X82825519Y-36499500D01*
X82825514Y-36499500D01*
X82638881Y-36529059D01*
X82459163Y-36587454D01*
X82290800Y-36673240D01*
X82203579Y-36736610D01*
X82137927Y-36784310D01*
X82137925Y-36784312D01*
X82137924Y-36784312D01*
X82004312Y-36917924D01*
X81893240Y-37070800D01*
X81807454Y-37239163D01*
X81749059Y-37418881D01*
X81719500Y-37605513D01*
X65500500Y-37605513D01*
X65500500Y-29893713D01*
X75649500Y-29893713D01*
X75649500Y-30106286D01*
X75682753Y-30316239D01*
X75748444Y-30518414D01*
X75844951Y-30707820D01*
X75969890Y-30879786D01*
X76120213Y-31030109D01*
X76292179Y-31155048D01*
X76292181Y-31155049D01*
X76292184Y-31155051D01*
X76481588Y-31251557D01*
X76683757Y-31317246D01*
X76893713Y-31350500D01*
X76893714Y-31350500D01*
X77106286Y-31350500D01*
X77106287Y-31350500D01*
X77316243Y-31317246D01*
X77518412Y-31251557D01*
X77707816Y-31155051D01*
X77729789Y-31139086D01*
X77879786Y-31030109D01*
X77879788Y-31030106D01*
X77879792Y-31030104D01*
X78030104Y-30879792D01*
X78030106Y-30879788D01*
X78030109Y-30879786D01*
X78155048Y-30707820D01*
X78155047Y-30707820D01*
X78155051Y-30707816D01*
X78251557Y-30518412D01*
X78317246Y-30316243D01*
X78350500Y-30106287D01*
X78350500Y-29893713D01*
X171649500Y-29893713D01*
X171649500Y-30106286D01*
X171682753Y-30316239D01*
X171748444Y-30518414D01*
X171844951Y-30707820D01*
X171969890Y-30879786D01*
X172120213Y-31030109D01*
X172292179Y-31155048D01*
X172292181Y-31155049D01*
X172292184Y-31155051D01*
X172481588Y-31251557D01*
X172683757Y-31317246D01*
X172893713Y-31350500D01*
X172893714Y-31350500D01*
X173106286Y-31350500D01*
X173106287Y-31350500D01*
X173316243Y-31317246D01*
X173518412Y-31251557D01*
X173707816Y-31155051D01*
X173729789Y-31139086D01*
X173879786Y-31030109D01*
X173879788Y-31030106D01*
X173879792Y-31030104D01*
X174030104Y-30879792D01*
X174030106Y-30879788D01*
X174030109Y-30879786D01*
X174155048Y-30707820D01*
X174155047Y-30707820D01*
X174155051Y-30707816D01*
X174251557Y-30518412D01*
X174317246Y-30316243D01*
X174350500Y-30106287D01*
X174350500Y-29893713D01*
X174317246Y-29683757D01*
X174251557Y-29481588D01*
X174155051Y-29292184D01*
X174155049Y-29292181D01*
X174155048Y-29292179D01*
X174030109Y-29120213D01*
X173879786Y-28969890D01*
X173707820Y-28844951D01*
X173518414Y-28748444D01*
X173518413Y-28748443D01*
X173518412Y-28748443D01*
X173316243Y-28682754D01*
X173316241Y-28682753D01*
X173316240Y-28682753D01*
X173154957Y-28657208D01*
X173106287Y-28649500D01*
X172893713Y-28649500D01*
X172845042Y-28657208D01*
X172683760Y-28682753D01*
X172481585Y-28748444D01*
X172292179Y-28844951D01*
X172120213Y-28969890D01*
X171969890Y-29120213D01*
X171844951Y-29292179D01*
X171748444Y-29481585D01*
X171682753Y-29683760D01*
X171649500Y-29893713D01*
X78350500Y-29893713D01*
X78317246Y-29683757D01*
X78251557Y-29481588D01*
X78155051Y-29292184D01*
X78155049Y-29292181D01*
X78155048Y-29292179D01*
X78030109Y-29120213D01*
X77879786Y-28969890D01*
X77707820Y-28844951D01*
X77518414Y-28748444D01*
X77518413Y-28748443D01*
X77518412Y-28748443D01*
X77316243Y-28682754D01*
X77316241Y-28682753D01*
X77316240Y-28682753D01*
X77154957Y-28657208D01*
X77106287Y-28649500D01*
X76893713Y-28649500D01*
X76845042Y-28657208D01*
X76683760Y-28682753D01*
X76481585Y-28748444D01*
X76292179Y-28844951D01*
X76120213Y-28969890D01*
X75969890Y-29120213D01*
X75844951Y-29292179D01*
X75748444Y-29481585D01*
X75682753Y-29683760D01*
X75649500Y-29893713D01*
X65500500Y-29893713D01*
X65500500Y-27004427D01*
X65500816Y-26995581D01*
X65515130Y-26795443D01*
X65515131Y-26795434D01*
X65517646Y-26777938D01*
X65559356Y-26586199D01*
X65564333Y-26569248D01*
X65632911Y-26385385D01*
X65640259Y-26369298D01*
X65702815Y-26254734D01*
X65734291Y-26197089D01*
X65743845Y-26182221D01*
X65861448Y-26025123D01*
X65873020Y-26011769D01*
X66011769Y-25873020D01*
X66025123Y-25861448D01*
X66182221Y-25743845D01*
X66197089Y-25734291D01*
X66369298Y-25640258D01*
X66385385Y-25632911D01*
X66569248Y-25564333D01*
X66586199Y-25559356D01*
X66777938Y-25517646D01*
X66795436Y-25515130D01*
X66995582Y-25500816D01*
X67004428Y-25500500D01*
X67065892Y-25500500D01*
X182934108Y-25500500D01*
X182995572Y-25500500D01*
X183004418Y-25500816D01*
G37*
%TD.AperFunction*%
%TD*%
M02*
